<svg width="26" height="26" viewBox="0 0 26 26" fill="none" xmlns="http://www.w3.org/2000/svg">
<circle cx="13" cy="13" r="13" fill="url(#paint0_linear_1999_22534)"/>
<path fill-rule="evenodd" clip-rule="evenodd" d="M15.4321 7.55317C15.4321 9.21892 16.7844 10.5693 18.4526 10.5693C18.6363 10.5684 18.8195 10.5507 19 10.5166V16.4961C19 19.0117 17.5161 20.5 14.9968 20.5H9.50977C6.98388 20.5 5.5 19.0117 5.5 16.4961V11.0171C5.5 8.50146 6.98388 7 9.50977 7H15.4849C15.4494 7.18225 15.4317 7.36751 15.4321 7.55317ZM13.8625 15.1724L16.0059 12.4066V12.3934C16.1894 12.1468 16.1425 11.7992 15.9003 11.6098C15.7831 11.5193 15.6342 11.4801 15.4875 11.5012C15.3408 11.5223 15.209 11.6019 15.1221 11.7217L13.3151 14.0463L11.2574 12.4263C11.14 12.3348 10.9905 12.2944 10.8429 12.3142C10.6952 12.3341 10.5617 12.4125 10.4726 12.5317L8.25672 15.3898C8.17883 15.4868 8.13689 15.6078 8.13801 15.7322C8.12515 15.9836 8.2839 16.212 8.52428 16.2879C8.76466 16.3637 9.02603 16.268 9.16023 16.0549L11.0134 13.6578L13.0711 15.2712C13.1881 15.3656 13.3385 15.4083 13.4878 15.3897C13.6371 15.3711 13.7723 15.2927 13.8625 15.1724Z" fill="#0E093C"/>
<circle opacity="0.4" cx="18.625" cy="7.375" r="1.875" fill="#0E093C"/>
<defs>
<linearGradient id="paint0_linear_1999_22534" x1="13" y1="-1.01505e-06" x2="32.8599" y2="6.06417" gradientUnits="userSpaceOnUse">
<stop stop-color="#F6F6F6"/>
<stop offset="1" stop-color="#F2EFEF"/>
</linearGradient>
</defs>
</svg>
