<svg width="74" height="33" viewBox="0 0 74 33" fill="none" xmlns="http://www.w3.org/2000/svg">
<mask id="mask0_1_100510" style="mask-type:luminance" maskUnits="userSpaceOnUse" x="16" y="12" width="25" height="21">
<path d="M16.7905 12.459H40.0001V32.9786H16.7905V12.459Z" fill="white"/>
</mask>
<g mask="url(#mask0_1_100510)">
<path fill-rule="evenodd" clip-rule="evenodd" d="M20.0834 17.6717C21.9052 16.5148 23.1386 14.6304 23.4688 12.5C26.7799 13.5572 29.6251 15.6593 31.6009 18.4508L33.0537 20.9624L34.1198 22.8058L40.0001 32.9741C26.3749 31.7092 25.3526 20.6698 16.8687 18.7976C18.0001 18.6752 19.1016 18.2956 20.0834 17.6717Z" fill="#0399DF"/>
</g>
<mask id="mask1_1_100510" style="mask-type:luminance" maskUnits="userSpaceOnUse" x="0" y="18" width="26" height="15">
<path d="M0 18.7012H25.8681V32.6018H0V18.7012Z" fill="white"/>
</mask>
<g mask="url(#mask1_1_100510)">
<mask id="mask2_1_100510" style="mask-type:luminance" maskUnits="userSpaceOnUse" x="0" y="18" width="26" height="15">
<path fill-rule="evenodd" clip-rule="evenodd" d="M0 32.4188C6.49541 21.1877 4.05804 20.1865 16.8682 18.7969C20.77 19.6579 23.1154 22.5496 25.7384 25.2973C15.8548 18.219 13.4357 34.153 0 32.4188Z" fill="white"/>
</mask>
<g mask="url(#mask2_1_100510)">
<path d="M0 18.2188V32.976H25.7384V18.2188H0Z" fill="url(#paint0_linear_1_100510)"/>
</g>
</g>
<mask id="mask3_1_100510" style="mask-type:luminance" maskUnits="userSpaceOnUse" x="10" y="0" width="22" height="19">
<path d="M10.6904 0H31.6832V18.5582H10.6904V0Z" fill="white"/>
</mask>
<g mask="url(#mask3_1_100510)">
<path fill-rule="evenodd" clip-rule="evenodd" d="M18.7468 0.00390625C21.402 0.45049 22.4359 2.60584 23.7086 4.80662L31.5997 18.4524C29.6233 15.6609 26.7787 13.5588 23.4675 12.5016C19.2256 11.148 14.6085 11.6345 10.7427 13.8436L18.7463 0.00390625H18.7468Z" fill="#02AEEC"/>
</g>
<path d="M37.02 22V9.25H39.094V22H37.02ZM43.2112 26.25H41.1372V13.5H43.2112V14.5795C43.4889 14.1942 43.8289 13.8825 44.2312 13.6445C44.6392 13.4008 45.1152 13.279 45.6592 13.279C46.2825 13.279 46.8634 13.3952 47.4017 13.6275C47.94 13.8598 48.4132 14.1828 48.8212 14.5965C49.2349 15.0045 49.555 15.4777 49.7817 16.016C50.014 16.5543 50.1302 17.1323 50.1302 17.75C50.1302 18.3677 50.014 18.9485 49.7817 19.4925C49.555 20.0365 49.2349 20.5153 48.8212 20.929C48.4132 21.337 47.94 21.6572 47.4017 21.8895C46.8634 22.1218 46.2825 22.238 45.6592 22.238C45.1152 22.238 44.6392 22.119 44.2312 21.881C43.8289 21.6373 43.4889 21.3228 43.2112 20.9375V26.25ZM45.6337 15.2765C45.203 15.2765 44.8177 15.3898 44.4777 15.6165C44.1377 15.8375 43.8714 16.135 43.6787 16.509C43.486 16.883 43.3897 17.2967 43.3897 17.75C43.3897 18.2033 43.486 18.6198 43.6787 18.9995C43.8714 19.3735 44.1377 19.6738 44.4777 19.9005C44.8177 20.1215 45.203 20.232 45.6337 20.232C46.07 20.232 46.4695 20.1215 46.8322 19.9005C47.1949 19.6795 47.4839 19.382 47.6992 19.008C47.9145 18.6283 48.0222 18.209 48.0222 17.75C48.0222 17.2967 47.9145 16.883 47.6992 16.509C47.4839 16.135 47.1949 15.8375 46.8322 15.6165C46.4752 15.3898 46.0757 15.2765 45.6337 15.2765ZM59.1165 16.628V22H57.0425V17.172C57.0425 16.8377 56.9604 16.5345 56.796 16.2625C56.6317 15.9848 56.4107 15.7667 56.133 15.608C55.861 15.4437 55.5579 15.3615 55.2235 15.3615C54.8892 15.3615 54.5832 15.4437 54.3055 15.608C54.0335 15.7667 53.8154 15.9848 53.651 16.2625C53.4924 16.5345 53.413 16.8377 53.413 17.172V22H51.339L51.3305 9.25H53.4045L53.413 14.2565C53.702 13.9505 54.0477 13.7097 54.45 13.534C54.8524 13.3527 55.2859 13.262 55.7505 13.262C56.3682 13.262 56.932 13.415 57.442 13.721C57.952 14.0213 58.3572 14.4265 58.6575 14.9365C58.9635 15.4408 59.1165 16.0047 59.1165 16.628ZM67.053 13.5H69.127V22H67.053L66.9595 20.946C66.7272 21.3257 66.4184 21.6345 66.033 21.8725C65.6534 22.1048 65.2029 22.221 64.6815 22.221C64.0525 22.221 63.4632 22.102 62.9135 21.864C62.3639 21.626 61.8794 21.2973 61.46 20.878C61.0464 20.4587 60.7205 19.9742 60.4825 19.4245C60.2502 18.8748 60.134 18.2855 60.134 17.6565C60.134 17.0502 60.2445 16.4807 60.4655 15.948C60.6922 15.4153 61.0067 14.9478 61.409 14.5455C61.8114 14.1432 62.276 13.8287 62.803 13.602C63.33 13.3753 63.8967 13.262 64.503 13.262C65.064 13.262 65.5655 13.3867 66.0075 13.636C66.4552 13.8853 66.8349 14.2027 67.1465 14.588L67.053 13.5ZM64.6305 20.2235C65.0725 20.2235 65.4635 20.113 65.8035 19.892C66.1435 19.671 66.4099 19.3735 66.6025 18.9995C66.7952 18.6198 66.8915 18.2033 66.8915 17.75C66.8915 17.291 66.7952 16.8745 66.6025 16.5005C66.4099 16.1208 66.1407 15.8205 65.795 15.5995C65.455 15.3785 65.0669 15.268 64.6305 15.268C64.1942 15.268 63.7947 15.3813 63.432 15.608C63.075 15.829 62.7889 16.1265 62.5735 16.5005C62.3639 16.8745 62.259 17.291 62.259 17.75C62.259 18.209 62.3667 18.6255 62.582 18.9995C62.7974 19.3735 63.0835 19.671 63.4405 19.892C63.8032 20.113 64.1999 20.2235 64.6305 20.2235Z" fill="black"/>
<path d="M59.6 30V23H62.15C62.52 23 62.8533 23.0767 63.15 23.23C63.45 23.38 63.6867 23.5967 63.86 23.88C64.0367 24.16 64.125 24.4917 64.125 24.875C64.125 25.045 64.1 25.2167 64.05 25.39C64 25.5633 63.9233 25.72 63.82 25.86C63.7167 25.9967 63.5833 26.0983 63.42 26.165C63.6367 26.2183 63.8133 26.315 63.95 26.455C64.0867 26.595 64.1933 26.76 64.27 26.95C64.3467 27.1367 64.3983 27.3283 64.425 27.525C64.455 27.7183 64.47 27.8983 64.47 28.065C64.47 28.435 64.3783 28.765 64.195 29.055C64.0117 29.345 63.765 29.575 63.455 29.745C63.1483 29.915 62.8083 30 62.435 30H59.6ZM60.82 28.955H62.31C62.51 28.955 62.69 28.9067 62.85 28.81C63.01 28.7133 63.1383 28.58 63.235 28.41C63.3317 28.24 63.38 28.0467 63.38 27.83C63.38 27.6433 63.3317 27.4667 63.235 27.3C63.1383 27.1333 63.01 26.9983 62.85 26.895C62.69 26.7917 62.51 26.74 62.31 26.74H60.82V28.955ZM60.82 25.71H62.01C62.2567 25.71 62.4667 25.6333 62.64 25.48C62.8167 25.3267 62.905 25.1233 62.905 24.87C62.905 24.6 62.8167 24.3967 62.64 24.26C62.4667 24.12 62.2567 24.05 62.01 24.05H60.82V25.71ZM67.4055 30.13C66.9455 30.13 66.5255 30.0117 66.1455 29.775C65.7688 29.5383 65.4671 29.22 65.2405 28.82C65.0171 28.42 64.9055 27.9783 64.9055 27.495C64.9055 27.1317 64.9705 26.7917 65.1005 26.475C65.2305 26.155 65.4088 25.875 65.6355 25.635C65.8655 25.3917 66.1321 25.2017 66.4355 25.065C66.7388 24.9283 67.0621 24.86 67.4055 24.86C67.7955 24.86 68.1521 24.9433 68.4755 25.11C68.8021 25.2733 69.0788 25.4983 69.3055 25.785C69.5321 26.0717 69.6971 26.3983 69.8005 26.765C69.9038 27.1317 69.9271 27.515 69.8705 27.915H66.2155C66.2621 28.1017 66.3388 28.27 66.4455 28.42C66.5521 28.5667 66.6871 28.685 66.8505 28.775C67.0138 28.8617 67.1988 28.9067 67.4055 28.91C67.6188 28.9133 67.8121 28.8633 67.9855 28.76C68.1621 28.6533 68.3088 28.51 68.4255 28.33L69.6705 28.62C69.4671 29.0633 69.1638 29.4267 68.7605 29.71C68.3571 29.99 67.9055 30.13 67.4055 30.13ZM66.1755 27H68.6355C68.5988 26.8 68.5205 26.62 68.4005 26.46C68.2838 26.2967 68.1388 26.1667 67.9655 26.07C67.7921 25.9733 67.6055 25.925 67.4055 25.925C67.2055 25.925 67.0205 25.9733 66.8505 26.07C66.6805 26.1633 66.5355 26.2917 66.4155 26.455C66.2988 26.615 66.2188 26.7967 66.1755 27ZM73.364 26.22H72.394V30H71.174V26.22H70.434V25H71.174V23.43H72.394V25H73.364V26.22Z" fill="black"/>
<defs>
<linearGradient id="paint0_linear_1_100510" x1="-0.799048" y1="20.1588" x2="26.4023" y2="31.364" gradientUnits="userSpaceOnUse">
<stop stop-color="#05457B"/>
<stop offset="0.0078125" stop-color="#05457B"/>
<stop offset="0.015625" stop-color="#05467C"/>
<stop offset="0.0234375" stop-color="#05467D"/>
<stop offset="0.03125" stop-color="#05477E"/>
<stop offset="0.0390625" stop-color="#05487E"/>
<stop offset="0.046875" stop-color="#05497F"/>
<stop offset="0.0546875" stop-color="#054980"/>
<stop offset="0.0625" stop-color="#054A81"/>
<stop offset="0.0703125" stop-color="#054B82"/>
<stop offset="0.078125" stop-color="#054B82"/>
<stop offset="0.0859375" stop-color="#054C83"/>
<stop offset="0.09375" stop-color="#054D84"/>
<stop offset="0.101562" stop-color="#054D85"/>
<stop offset="0.109375" stop-color="#054E86"/>
<stop offset="0.117187" stop-color="#054F86"/>
<stop offset="0.125" stop-color="#054F87"/>
<stop offset="0.132813" stop-color="#055088"/>
<stop offset="0.140625" stop-color="#055189"/>
<stop offset="0.148438" stop-color="#05518A"/>
<stop offset="0.15625" stop-color="#05528A"/>
<stop offset="0.164062" stop-color="#05538B"/>
<stop offset="0.171875" stop-color="#05538C"/>
<stop offset="0.179688" stop-color="#05548D"/>
<stop offset="0.1875" stop-color="#05558E"/>
<stop offset="0.191059" stop-color="#05558E"/>
<stop offset="0.195312" stop-color="#05568F"/>
<stop offset="0.203125" stop-color="#05568F"/>
<stop offset="0.210938" stop-color="#055790"/>
<stop offset="0.21875" stop-color="#055791"/>
<stop offset="0.226562" stop-color="#055892"/>
<stop offset="0.234375" stop-color="#055992"/>
<stop offset="0.242188" stop-color="#045993"/>
<stop offset="0.25" stop-color="#045A94"/>
<stop offset="0.257812" stop-color="#045B95"/>
<stop offset="0.265625" stop-color="#045B96"/>
<stop offset="0.273438" stop-color="#045C96"/>
<stop offset="0.28125" stop-color="#045D97"/>
<stop offset="0.289063" stop-color="#045D98"/>
<stop offset="0.296875" stop-color="#045E99"/>
<stop offset="0.304688" stop-color="#045F99"/>
<stop offset="0.3125" stop-color="#045F9A"/>
<stop offset="0.320313" stop-color="#04609B"/>
<stop offset="0.328125" stop-color="#04619C"/>
<stop offset="0.335938" stop-color="#04619D"/>
<stop offset="0.34375" stop-color="#04629D"/>
<stop offset="0.351562" stop-color="#04639E"/>
<stop offset="0.359375" stop-color="#04639F"/>
<stop offset="0.367188" stop-color="#0464A0"/>
<stop offset="0.375" stop-color="#0465A1"/>
<stop offset="0.382812" stop-color="#0466A1"/>
<stop offset="0.390625" stop-color="#0466A2"/>
<stop offset="0.398438" stop-color="#0467A3"/>
<stop offset="0.40625" stop-color="#0468A4"/>
<stop offset="0.414062" stop-color="#0468A5"/>
<stop offset="0.421875" stop-color="#0469A5"/>
<stop offset="0.429688" stop-color="#046AA6"/>
<stop offset="0.4375" stop-color="#046AA7"/>
<stop offset="0.445312" stop-color="#046BA8"/>
<stop offset="0.453125" stop-color="#046CA9"/>
<stop offset="0.460937" stop-color="#046CA9"/>
<stop offset="0.46875" stop-color="#046DAA"/>
<stop offset="0.476562" stop-color="#046EAB"/>
<stop offset="0.484375" stop-color="#046EAC"/>
<stop offset="0.492188" stop-color="#046FAD"/>
<stop offset="0.5" stop-color="#0470AD"/>
<stop offset="0.507812" stop-color="#0470AE"/>
<stop offset="0.515625" stop-color="#0471AF"/>
<stop offset="0.523438" stop-color="#0472B0"/>
<stop offset="0.53125" stop-color="#0472B1"/>
<stop offset="0.539063" stop-color="#0473B1"/>
<stop offset="0.546875" stop-color="#0474B2"/>
<stop offset="0.554687" stop-color="#0474B3"/>
<stop offset="0.5625" stop-color="#0475B4"/>
<stop offset="0.570312" stop-color="#0476B5"/>
<stop offset="0.578125" stop-color="#0476B5"/>
<stop offset="0.585937" stop-color="#0477B6"/>
<stop offset="0.59375" stop-color="#0478B7"/>
<stop offset="0.601562" stop-color="#0478B8"/>
<stop offset="0.609375" stop-color="#0479B8"/>
<stop offset="0.617187" stop-color="#047AB9"/>
<stop offset="0.625" stop-color="#047ABA"/>
<stop offset="0.632812" stop-color="#047BBB"/>
<stop offset="0.640625" stop-color="#047CBC"/>
<stop offset="0.648437" stop-color="#047CBC"/>
<stop offset="0.65625" stop-color="#047DBD"/>
<stop offset="0.664062" stop-color="#047EBE"/>
<stop offset="0.671875" stop-color="#047EBF"/>
<stop offset="0.679688" stop-color="#047FC0"/>
<stop offset="0.6875" stop-color="#0480C0"/>
<stop offset="0.695312" stop-color="#0480C1"/>
<stop offset="0.703125" stop-color="#0481C2"/>
<stop offset="0.710937" stop-color="#0482C3"/>
<stop offset="0.71875" stop-color="#0483C4"/>
<stop offset="0.726562" stop-color="#0483C4"/>
<stop offset="0.734375" stop-color="#0484C5"/>
<stop offset="0.742187" stop-color="#0485C6"/>
<stop offset="0.75" stop-color="#0485C7"/>
<stop offset="0.757812" stop-color="#0386C8"/>
<stop offset="0.765625" stop-color="#0387C8"/>
<stop offset="0.773437" stop-color="#0387C9"/>
<stop offset="0.78125" stop-color="#0388CA"/>
<stop offset="0.789062" stop-color="#0389CB"/>
<stop offset="0.796875" stop-color="#0389CC"/>
<stop offset="0.804688" stop-color="#038ACC"/>
<stop offset="0.808941" stop-color="#038BCD"/>
<stop offset="0.8125" stop-color="#038BCE"/>
<stop offset="0.820312" stop-color="#038BCE"/>
<stop offset="0.828125" stop-color="#038CCF"/>
<stop offset="0.835938" stop-color="#038DD0"/>
<stop offset="0.84375" stop-color="#038DD0"/>
<stop offset="0.851562" stop-color="#038ED1"/>
<stop offset="0.859375" stop-color="#038FD2"/>
<stop offset="0.867187" stop-color="#038FD3"/>
<stop offset="0.875" stop-color="#0390D4"/>
<stop offset="0.882812" stop-color="#0391D4"/>
<stop offset="0.890625" stop-color="#0391D5"/>
<stop offset="0.898437" stop-color="#0392D6"/>
<stop offset="0.90625" stop-color="#0393D7"/>
<stop offset="0.914062" stop-color="#0393D7"/>
<stop offset="0.921875" stop-color="#0394D8"/>
<stop offset="0.929688" stop-color="#0395D9"/>
<stop offset="0.9375" stop-color="#0395DA"/>
<stop offset="0.945312" stop-color="#0396DB"/>
<stop offset="0.953125" stop-color="#0397DB"/>
<stop offset="0.960938" stop-color="#0397DC"/>
<stop offset="0.96875" stop-color="#0398DD"/>
<stop offset="1" stop-color="#0399DE"/>
</linearGradient>
</defs>
</svg>
