<svg width="17" height="17" viewBox="0 0 17 17" fill="none" xmlns="http://www.w3.org/2000/svg">
<g clip-path="url(#clip0_1_91168)">
<path d="M6.37508 15.5832H10.6251C14.1667 15.5832 15.5834 14.1665 15.5834 10.6248V6.37484C15.5834 2.83317 14.1667 1.4165 10.6251 1.4165H6.37508C2.83341 1.4165 1.41675 2.83317 1.41675 6.37484V10.6248C1.41675 14.1665 2.83341 15.5832 6.37508 15.5832Z" fill="#0B9FE1" stroke="#0B9FE1" stroke-width="1.0625" stroke-linecap="round" stroke-linejoin="round"/>
<path d="M8.59961 10.6748V9.28637C8.59961 7.50137 10.0446 6.04932 11.8367 6.04932H13.225" stroke="#9DD9F3" stroke-width="1.0625" stroke-linecap="round" stroke-linejoin="round"/>
<path d="M3.98193 6.05566H5.37029C7.15527 6.05566 8.60736 7.50066 8.60736 9.29275V9.75316V12.2182" stroke="#9DD9F3" stroke-width="1.0625" stroke-linecap="round" stroke-linejoin="round"/>
<path d="M5.05746 4.78125L3.78247 6.05625L5.05746 7.33125" stroke="#9DD9F3" stroke-width="1.0625" stroke-linecap="round" stroke-linejoin="round"/>
<path d="M11.9424 4.78125L13.2174 6.05625L11.9424 7.33125" stroke="#9DD9F3" stroke-width="1.0625" stroke-linecap="round" stroke-linejoin="round"/>
</g>
<defs>
<clipPath id="clip0_1_91168">
<rect width="17" height="17" fill="white"/>
</clipPath>
</defs>
</svg>
