<svg width="18" height="18" viewBox="0 0 18 18" fill="none" xmlns="http://www.w3.org/2000/svg">
<path d="M3 13.5V8.25" stroke="#9DD9F3" stroke-width="1.125" stroke-miterlimit="10" stroke-linecap="round" stroke-linejoin="round"/>
<path d="M6 13.5V8.25" stroke="#9DD9F3" stroke-width="1.125" stroke-miterlimit="10" stroke-linecap="round" stroke-linejoin="round"/>
<path d="M9 13.5V8.25" stroke="#9DD9F3" stroke-width="1.125" stroke-miterlimit="10" stroke-linecap="round" stroke-linejoin="round"/>
<path d="M12 13.5V8.25" stroke="#9DD9F3" stroke-width="1.125" stroke-miterlimit="10" stroke-linecap="round" stroke-linejoin="round"/>
<path d="M15 13.5V8.25" stroke="#9DD9F3" stroke-width="1.125" stroke-miterlimit="10" stroke-linecap="round" stroke-linejoin="round"/>
<path d="M0.75 16.5H17.25" stroke="#0B9FE1" stroke-width="1.125" stroke-miterlimit="10" stroke-linecap="round" stroke-linejoin="round"/>
<path d="M9.2775 1.61385L16.0275 4.31383C16.29 4.41883 16.5 4.73382 16.5 5.01133V7.50133C16.5 7.91382 16.1625 8.25132 15.75 8.25132H2.25C1.8375 8.25132 1.5 7.91382 1.5 7.50133V5.01133C1.5 4.73382 1.71 4.41883 1.9725 4.31383L8.7225 1.61385C8.8725 1.55385 9.1275 1.55385 9.2775 1.61385Z" fill="#0B9FE1" stroke="#0B9FE1" stroke-width="1.125" stroke-miterlimit="10" stroke-linecap="round" stroke-linejoin="round"/>
<path d="M9 6.375C9.6213 6.375 10.125 5.87132 10.125 5.25C10.125 4.62868 9.6213 4.125 9 4.125C8.3787 4.125 7.875 4.62868 7.875 5.25C7.875 5.87132 8.3787 6.375 9 6.375Z" fill="#9DD9F3" stroke="#9DD9F3" stroke-width="1.125" stroke-miterlimit="10" stroke-linecap="round" stroke-linejoin="round"/>
<path d="M16.5 16.5H1.5V14.25C1.5 13.8375 1.8375 13.5 2.25 13.5H15.75C16.1625 13.5 16.5 13.8375 16.5 14.25V16.5Z" fill="#0B9FE1" stroke="#0B9FE1" stroke-width="1.125" stroke-miterlimit="10" stroke-linecap="round" stroke-linejoin="round"/>
</svg>
