<svg width="36" height="36" viewBox="0 0 36 36" fill="none" xmlns="http://www.w3.org/2000/svg">
<path d="M33.3115 14.6779C32.7702 14.3632 32.2838 13.9624 31.8715 13.4913C31.9132 12.8353 32.0694 12.1917 32.3331 11.5896C32.8181 10.2213 33.3665 8.67126 32.4865 7.46626C31.6065 6.26126 29.9448 6.29959 28.4865 6.33293C27.8421 6.39923 27.1911 6.35527 26.5615 6.20293C26.226 5.6571 25.9864 5.0579 25.8531 4.43126C25.4398 3.02292 24.9681 1.43126 23.5198 0.954592C22.1231 0.504592 20.8298 1.49459 19.6865 2.36459C19.1931 2.81512 18.6215 3.17155 17.9998 3.41626C17.3716 3.17355 16.7936 2.81702 16.2948 2.36459C15.1548 1.49959 13.8665 0.499592 12.4631 0.956258C11.0181 1.42626 10.5465 3.02292 10.1298 4.43126C9.99668 5.05587 9.75948 5.65365 9.42812 6.19959C8.79732 6.35152 8.1455 6.39659 7.49979 6.33293C6.03646 6.29292 4.38812 6.24959 3.49979 7.46626C2.61146 8.68292 3.16646 10.2213 3.65313 11.5879C3.92053 12.1891 4.0791 12.833 4.12146 13.4896C3.70992 13.9614 3.22408 14.3628 2.68313 14.6779C1.46312 15.5113 0.078125 16.4596 0.078125 17.9996C0.078125 19.5396 1.46312 20.4846 2.68313 21.3213C3.22396 21.6359 3.70979 22.0367 4.12146 22.5079C4.08355 23.1643 3.9295 23.8087 3.66646 24.4113C3.18313 25.7779 2.63646 27.3279 3.51479 28.5329C4.39313 29.7379 6.04979 29.6996 7.51479 29.6663C8.15974 29.5999 8.81127 29.6439 9.44146 29.7963C9.77543 30.3426 10.0144 30.9417 10.1481 31.5679C10.5615 32.9763 11.0331 34.5679 12.4815 35.0446C12.7137 35.119 12.9559 35.1573 13.1998 35.1579C14.3718 34.9897 15.4611 34.4568 16.3131 33.6346C16.8065 33.1841 17.3781 32.8276 17.9998 32.5829C18.628 32.8256 19.206 33.1822 19.7048 33.6346C20.8465 34.5063 22.1398 35.5013 23.5381 35.0429C24.9831 34.5729 25.4548 32.9763 25.8715 31.5696C26.005 30.9438 26.244 30.3453 26.5781 29.7996C27.2065 29.6466 27.8563 29.6015 28.4998 29.6663C29.9631 29.7013 31.6115 29.7496 32.4998 28.5329C33.3881 27.3163 32.8331 25.7779 32.3465 24.4096C32.0809 23.809 31.9224 23.1665 31.8781 22.5113C32.2899 22.039 32.7764 21.6376 33.3181 21.3229C34.5381 20.4896 35.9231 19.5396 35.9231 17.9996C35.9231 16.4596 34.5331 15.5129 33.3115 14.6779Z" fill="black"/>
<path d="M16.3334 22.584C16.1692 22.5843 16.0066 22.5521 15.855 22.4891C15.7034 22.4262 15.5658 22.3338 15.4501 22.2173L12.1167 18.884C11.8959 18.647 11.7757 18.3336 11.7814 18.0098C11.7872 17.686 11.9183 17.377 12.1474 17.148C12.3764 16.9189 12.6854 16.7877 13.0092 16.782C13.333 16.7763 13.6464 16.8965 13.8834 17.1173L16.4501 19.684L22.2501 15.334C22.5153 15.1351 22.8487 15.0497 23.1768 15.0966C23.505 15.1434 23.8012 15.3188 24.0001 15.584C24.199 15.8492 24.2844 16.1826 24.2375 16.5108C24.1906 16.839 24.0153 17.1351 23.7501 17.334L17.0834 22.334C16.867 22.4962 16.6038 22.5839 16.3334 22.584Z" fill="white"/>
</svg>
