<svg width="25" height="25" viewBox="0 0 25 25" fill="none" xmlns="http://www.w3.org/2000/svg">
<rect x="1" y="1" width="23" height="23" rx="3" fill="#EEFAFF"/>
<rect x="0.5" y="0.5" width="24" height="24" rx="3.5" stroke="#0B9FE1" stroke-opacity="0.31"/>
<path opacity="0.4" d="M4.58398 11.7715C4.62357 13.6224 4.7344 16.7883 4.75023 17.1374C4.80644 17.8839 5.09223 18.6384 5.53715 19.1704C6.15623 19.9169 6.91861 20.2502 7.98182 20.2502C9.45115 20.2582 11.0709 20.2582 12.6439 20.2582C14.2233 20.2582 15.756 20.2582 17.0504 20.2502C18.0985 20.2502 18.8847 19.9082 19.4958 19.1704C19.9407 18.6384 20.2265 17.876 20.2669 17.1374C20.2827 16.8437 20.3619 13.4071 20.4094 11.7715H4.58398Z" fill="#003E79"/>
<path d="M11.9023 15.1797V16.2041C11.9023 16.5319 12.1683 16.7979 12.4961 16.7979C12.8238 16.7979 13.0898 16.5319 13.0898 16.2041V15.1797C13.0898 14.8519 12.8238 14.5859 12.4961 14.5859C12.1683 14.5859 11.9023 14.8519 11.9023 15.1797Z" fill="#003E79"/>
<path fill-rule="evenodd" clip-rule="evenodd" d="M11.0844 14.5241C11.0052 14.8115 10.7289 14.9952 10.4297 14.9556C8.41011 14.6738 6.48003 13.9573 4.85078 12.8814C4.68373 12.7722 4.58398 12.5854 4.58398 12.3859V9.64194C4.58398 7.97944 5.93932 6.62728 7.60578 6.62728H9.16298C9.31182 5.47778 10.2856 4.58398 11.4747 4.58398H13.5187C14.707 4.58398 15.6816 5.47778 15.8304 6.62728H17.3955C19.0572 6.62728 20.4094 7.97944 20.4094 9.64194V12.3859C20.4094 12.5854 20.3089 12.7714 20.1434 12.8814C18.511 13.9621 16.573 14.6817 14.54 14.9627C14.5123 14.9667 14.4854 14.9683 14.4584 14.9683C14.1901 14.9683 13.9502 14.787 13.8829 14.521C13.723 13.8908 13.1506 13.4499 12.4927 13.4499C11.8262 13.4499 11.2601 13.8813 11.0844 14.5241ZM13.5186 5.77148H11.4745C10.9417 5.77148 10.4968 6.13565 10.3638 6.62728H14.6285C14.4955 6.13565 14.0506 5.77148 13.5186 5.77148Z" fill="#003E79"/>
</svg>
