<svg width="14" height="16" viewBox="0 0 14 16" fill="none" xmlns="http://www.w3.org/2000/svg">
<path fill-rule="evenodd" clip-rule="evenodd" d="M0.25 11.6531V5.94336H13.75V11.6989C13.75 14.0531 12.2681 15.5006 9.89709 15.5006H4.0955C1.74671 15.5006 0.25 14.0231 0.25 11.6531ZM3.96954 9.80811C3.6287 9.82386 3.34715 9.55311 3.33233 9.20886C3.33233 8.86386 3.59907 8.57886 3.9399 8.56311C4.27333 8.56311 4.54748 8.82636 4.55488 9.16311C4.5697 9.50886 4.30296 9.79386 3.96954 9.80811ZM7.01482 9.80811C6.67399 9.82386 6.39243 9.55311 6.37761 9.20886C6.37761 8.86386 6.64435 8.57886 6.98518 8.56311C7.31861 8.56311 7.59276 8.82636 7.60016 9.16311C7.61498 9.50886 7.34824 9.79386 7.01482 9.80811ZM10.0379 12.5681C9.69704 12.5606 9.42289 12.2756 9.42289 11.9306C9.41548 11.5856 9.68963 11.3014 10.0305 11.2939H10.0379C10.3861 11.2939 10.6677 11.5789 10.6677 11.9306C10.6677 12.2831 10.3861 12.5681 10.0379 12.5681ZM6.37761 11.9306C6.39243 12.2756 6.67399 12.5464 7.01482 12.5306C7.34824 12.5164 7.61498 12.2314 7.60016 11.8864C7.59276 11.5489 7.31861 11.2856 6.98518 11.2856C6.64435 11.3014 6.37761 11.5856 6.37761 11.9306ZM3.32492 11.9306C3.33974 12.2756 3.6213 12.5464 3.96213 12.5306C4.29555 12.5164 4.56229 12.2314 4.54748 11.8864C4.54007 11.5489 4.26592 11.2856 3.93249 11.2856C3.59166 11.3014 3.32492 11.5856 3.32492 11.9306ZM9.4303 9.20136C9.4303 8.85636 9.69704 8.57886 10.0379 8.57136C10.3713 8.57136 10.638 8.84061 10.6529 9.17136C10.6603 9.51636 10.3935 9.80136 10.0601 9.80811C9.71926 9.81561 9.43771 9.55311 9.4303 9.20886V9.20136Z" fill="#003E79"/>
<path opacity="0.4" d="M0.252441 5.94244C0.262074 5.50219 0.299121 4.62844 0.36877 4.34719C0.724423 2.76544 1.93216 1.76044 3.65856 1.61719H10.3419C12.0535 1.76794 13.276 2.77969 13.6317 4.34719C13.7006 4.62094 13.7376 5.50144 13.7473 5.94244H0.252441Z" fill="#003E79"/>
<path d="M4.22873 3.9425C4.55475 3.9425 4.79926 3.69575 4.79926 3.365V1.07825C4.79926 0.7475 4.55475 0.5 4.22873 0.5C3.90271 0.5 3.6582 0.7475 3.6582 1.07825V3.365C3.6582 3.69575 3.90271 3.9425 4.22873 3.9425Z" fill="#003E79"/>
<path d="M9.77121 3.9425C10.0898 3.9425 10.3417 3.69575 10.3417 3.365V1.07825C10.3417 0.7475 10.0898 0.5 9.77121 0.5C9.4452 0.5 9.20068 0.7475 9.20068 1.07825V3.365C9.20068 3.69575 9.4452 3.9425 9.77121 3.9425Z" fill="#003E79"/>
</svg>
