<svg width="27" height="26" viewBox="0 0 27 26" fill="none" xmlns="http://www.w3.org/2000/svg">
<circle cx="13.1992" cy="13" r="13" fill="url(#paint0_linear_2891_19419)"/>
<path d="M20.6767 17.7475C20.6767 18.0175 20.6167 18.295 20.4892 18.565C20.3617 18.835 20.1967 19.09 19.9792 19.33C19.6117 19.735 19.2067 20.0275 18.7492 20.215C18.2992 20.4025 17.8117 20.5 17.2867 20.5C16.5217 20.5 15.7042 20.32 14.8417 19.9525C13.9792 19.585 13.1167 19.09 12.2617 18.4675C11.3992 17.8375 10.5817 17.14 9.80172 16.3675C9.02922 15.5875 8.33172 14.77 7.70922 13.915C7.09422 13.06 6.59922 12.205 6.23922 11.3575C5.87922 10.5025 5.69922 9.685 5.69922 8.905C5.69922 8.395 5.78922 7.9075 5.96922 7.4575C6.14922 7 6.43422 6.58 6.83172 6.205C7.31172 5.7325 7.83672 5.5 8.39172 5.5C8.60172 5.5 8.81172 5.545 8.99922 5.635C9.19422 5.725 9.36672 5.86 9.50172 6.055L11.2417 8.5075C11.3767 8.695 11.4742 8.8675 11.5417 9.0325C11.6092 9.19 11.6467 9.3475 11.6467 9.49C11.6467 9.67 11.5942 9.85 11.4892 10.0225C11.3917 10.195 11.2492 10.375 11.0692 10.555L10.4992 11.1475C10.4167 11.23 10.3792 11.3275 10.3792 11.4475C10.3792 11.5075 10.3867 11.56 10.4017 11.62C10.4242 11.68 10.4467 11.725 10.4617 11.77C10.5967 12.0175 10.8292 12.34 11.1592 12.73C11.4967 13.12 11.8567 13.5175 12.2467 13.915C12.6517 14.3125 13.0417 14.68 13.4392 15.0175C13.8292 15.3475 14.1517 15.5725 14.4067 15.7075C14.4442 15.7225 14.4892 15.745 14.5417 15.7675C14.6017 15.79 14.6617 15.7975 14.7292 15.7975C14.8567 15.7975 14.9542 15.7525 15.0367 15.67L15.6067 15.1075C15.7942 14.92 15.9742 14.7775 16.1467 14.6875C16.3192 14.5825 16.4917 14.53 16.6792 14.53C16.8217 14.53 16.9717 14.56 17.1367 14.6275C17.3017 14.695 17.4742 14.7925 17.6617 14.92L20.1442 16.6825C20.3392 16.8175 20.4742 16.975 20.5567 17.1625C20.6317 17.35 20.6767 17.5375 20.6767 17.7475Z" stroke="#0E093C" stroke-width="1.5" stroke-miterlimit="10"/>
<path d="M18.0742 10.75C18.0742 10.3 17.7217 9.61 17.1967 9.0475C16.7167 8.53 16.0792 8.125 15.4492 8.125" stroke="#0E093C" stroke-width="1.5" stroke-linecap="round" stroke-linejoin="round"/>
<path d="M20.6992 10.75C20.6992 7.8475 18.3517 5.5 15.4492 5.5" stroke="#0E093C" stroke-width="1.5" stroke-linecap="round" stroke-linejoin="round"/>
<defs>
<linearGradient id="paint0_linear_2891_19419" x1="13.1992" y1="-1.01505e-06" x2="33.0591" y2="6.06417" gradientUnits="userSpaceOnUse">
<stop stop-color="#F6F6F6"/>
<stop offset="1" stop-color="#F2EFEF"/>
</linearGradient>
</defs>
</svg>
