<svg width="20" height="20" viewBox="0 0 20 20" fill="none" xmlns="http://www.w3.org/2000/svg">
<path opacity="0.4" d="M14.34 0H5.67C2.28 0 0 2.38 0 5.92V14.09C0 17.62 2.28 20 5.67 20H14.34C17.73 20 20 17.62 20 14.09V5.92C20 2.38 17.73 0 14.34 0Z" fill="#969696"/>
<path d="M13.0156 11.7705L11.2366 9.9925L13.0146 8.2145C13.3566 7.8735 13.3566 7.3185 13.0146 6.9775C12.6726 6.6335 12.1196 6.6345 11.7776 6.9765L9.99858 8.7545L8.21958 6.9745C7.87758 6.6325 7.32358 6.6345 6.98158 6.9745C6.64058 7.3165 6.64058 7.8715 6.98158 8.2125L8.76158 9.9925L6.98558 11.7675C6.64358 12.1095 6.64358 12.6645 6.98558 13.0045C7.15658 13.1765 7.37958 13.2615 7.60358 13.2615C7.82858 13.2615 8.05158 13.1765 8.22258 13.0055L9.99858 11.2295L11.7786 13.0085C11.9496 13.1795 12.1726 13.2645 12.3966 13.2645C12.6206 13.2645 12.8446 13.1785 13.0156 13.0085C13.3576 12.6665 13.3576 12.1125 13.0156 11.7705Z" fill="#969696"/>
</svg>
