<svg width="20" height="20" viewBox="0 0 20 20" fill="none" xmlns="http://www.w3.org/2000/svg">
<path fill-rule="evenodd" clip-rule="evenodd" d="M2.34219 -0.00146484C1.07019 -0.00146484 -0.0078125 1.07654 -0.0078125 2.34854V6.84854C-0.0078125 8.12054 1.07019 9.19853 2.34219 9.19853H6.84219C8.11419 9.19853 9.19219 8.12054 9.19219 6.84854V2.34854C9.19219 1.07654 8.11419 -0.00146484 6.84219 -0.00146484H2.34219ZM1.99219 2.34854C1.99219 2.18054 2.17419 1.99854 2.34219 1.99854H6.84219C7.01019 1.99854 7.19219 2.18054 7.19219 2.34854V6.84854C7.19219 7.01654 7.01019 7.19853 6.84219 7.19853H2.34219C2.17419 7.19853 1.99219 7.01654 1.99219 6.84854V2.34854ZM13.1422 -0.00146484C11.8702 -0.00146484 10.7922 1.07654 10.7922 2.34854V6.84854C10.7922 8.12054 11.8702 9.19853 13.1422 9.19853H17.6422C18.9142 9.19853 19.9922 8.12054 19.9922 6.84854V2.34854C19.9922 1.07654 18.9142 -0.00146484 17.6422 -0.00146484H13.1422ZM12.7922 2.34854C12.7922 2.18054 12.9742 1.99854 13.1422 1.99854H17.6422C17.8102 1.99854 17.9922 2.18054 17.9922 2.34854V6.84854C17.9922 7.01654 17.8102 7.19853 17.6422 7.19853H13.1422C12.9742 7.19853 12.7922 7.01654 12.7922 6.84854V2.34854ZM-0.0078125 13.1485C-0.0078125 11.8765 1.07019 10.7985 2.34219 10.7985H6.84219C8.11419 10.7985 9.19219 11.8765 9.19219 13.1485V17.6485C9.19219 18.9205 8.11419 19.9985 6.84219 19.9985H2.34219C1.07019 19.9985 -0.0078125 18.9205 -0.0078125 17.6485V13.1485ZM2.34219 12.7985C2.17419 12.7985 1.99219 12.9805 1.99219 13.1485V17.6485C1.99219 17.8165 2.17419 17.9985 2.34219 17.9985H6.84219C7.01019 17.9985 7.19219 17.8165 7.19219 17.6485V13.1485C7.19219 12.9805 7.01019 12.7985 6.84219 12.7985H2.34219ZM13.1422 10.7985C11.8702 10.7985 10.7922 11.8765 10.7922 13.1485V17.6485C10.7922 18.9205 11.8702 19.9985 13.1422 19.9985H17.6422C18.9142 19.9985 19.9922 18.9205 19.9922 17.6485V13.1485C19.9922 11.8765 18.9142 10.7985 17.6422 10.7985H13.1422ZM12.7922 13.1485C12.7922 12.9805 12.9742 12.7985 13.1422 12.7985H17.6422C17.8102 12.7985 17.9922 12.9805 17.9922 13.1485V17.6485C17.9922 17.8165 17.8102 17.9985 17.6422 17.9985H13.1422C12.9742 17.9985 12.7922 17.8165 12.7922 17.6485V13.1485Z" fill="black"/>
</svg>
