<svg width="136" height="73" viewBox="0 0 136 73" fill="none" xmlns="http://www.w3.org/2000/svg">
<g filter="url(#filter0_d_3488_47290)">
<rect x="3" y="3" width="129.207" height="65.8661" rx="2.94609" fill="white"/>
<rect x="3.10522" y="3.10522" width="128.997" height="65.6557" rx="2.84087" stroke="#F0F0F0" stroke-width="0.210435"/>
</g>
<g filter="url(#filter1_f_3488_47290)">
<path d="M16.8867 24.8852C16.8867 24.5366 17.1694 24.2539 17.518 24.2539H95.1685C95.5172 24.2539 95.7998 24.5366 95.7998 24.8852V55.8191H16.8867V24.8852Z" fill="url(#paint0_linear_3488_47290)" fill-opacity="0.18"/>
</g>
<line x1="8.05078" y1="16.1" x2="127.367" y2="16.1" stroke="#F0F0F0" stroke-width="0.315652"/>
<path d="M8.27805 12.2617V9.61024H9.12652C9.26794 9.61024 9.39546 9.64496 9.5091 9.7144C9.62273 9.78259 9.71301 9.87539 9.77993 9.99281C9.84811 10.109 9.8822 10.2396 9.8822 10.3848C9.8822 10.5313 9.84747 10.6633 9.77803 10.7807C9.70985 10.8981 9.61831 10.9909 9.50341 11.0591C9.38978 11.1273 9.26415 11.1614 9.12652 11.1614H8.5432V12.2617H8.27805ZM8.5432 10.8962H9.10569C9.19912 10.8962 9.28435 10.8735 9.36137 10.828C9.43965 10.7813 9.50152 10.7188 9.54697 10.6405C9.59369 10.561 9.61705 10.4713 9.61705 10.3716C9.61705 10.2718 9.59369 10.1828 9.54697 10.1046C9.50152 10.025 9.43965 9.96251 9.36137 9.91705C9.28435 9.87034 9.19912 9.84698 9.10569 9.84698H8.5432V10.8962ZM11.5864 10.3678H11.8516V12.2617H11.5864L11.577 11.9095C11.5151 12.0294 11.4286 12.1266 11.3175 12.2011C11.2064 12.2743 11.0738 12.311 10.9198 12.311C10.7809 12.311 10.6508 12.2851 10.5296 12.2333C10.4084 12.1803 10.3017 12.1077 10.2095 12.0155C10.1174 11.9233 10.0454 11.8166 9.99364 11.6954C9.94187 11.5742 9.91599 11.4442 9.91599 11.3053C9.91599 11.1689 9.94124 11.0408 9.99175 10.9208C10.0435 10.8009 10.1142 10.6955 10.2039 10.6045C10.2948 10.5136 10.3996 10.4429 10.5183 10.3924C10.6382 10.3407 10.7664 10.3148 10.9027 10.3148C11.0605 10.3148 11.1982 10.3527 11.3156 10.4284C11.433 10.5029 11.5264 10.6008 11.5959 10.722L11.5864 10.3678ZM10.9141 12.0534C11.0492 12.0534 11.1653 12.0206 11.2626 11.9549C11.3598 11.888 11.4343 11.7983 11.486 11.686C11.5391 11.5736 11.5656 11.4499 11.5656 11.3148C11.5656 11.1759 11.5391 11.0509 11.486 10.9398C11.433 10.8274 11.3579 10.7384 11.2607 10.6727C11.1634 10.6071 11.0479 10.5742 10.9141 10.5742C10.7802 10.5742 10.6578 10.6077 10.5467 10.6746C10.4368 10.7403 10.3491 10.8293 10.2834 10.9417C10.219 11.054 10.1868 11.1784 10.1868 11.3148C10.1868 11.4524 10.2203 11.5774 10.2872 11.6898C10.3541 11.8009 10.4425 11.8892 10.5523 11.9549C10.6635 12.0206 10.784 12.0534 10.9141 12.0534ZM13.4077 10.3678H13.688L12.6521 13.2087H12.3699L12.7146 12.2617L12.0347 10.3678H12.3244L12.8471 11.8962L13.4077 10.3678ZM15.2225 12.311C15.0432 12.311 14.8747 12.2756 14.7168 12.2049C14.559 12.1329 14.4201 12.0338 14.3002 11.9076C14.1802 11.7813 14.0862 11.6355 14.018 11.4701C13.9498 11.3034 13.9157 11.1254 13.9157 10.936C13.9157 10.7466 13.9498 10.5692 14.018 10.4038C14.0862 10.2371 14.1802 10.0907 14.3002 9.9644C14.4201 9.83814 14.559 9.73966 14.7168 9.66895C14.8747 9.59698 15.0432 9.561 15.2225 9.561C15.4031 9.561 15.5722 9.59698 15.7301 9.66895C15.8879 9.73966 16.0268 9.83814 16.1467 9.9644C16.2667 10.0907 16.3601 10.2371 16.427 10.4038C16.4952 10.5692 16.5293 10.7466 16.5293 10.936C16.5293 11.1254 16.4952 11.3034 16.427 11.4701C16.3601 11.6355 16.2667 11.7813 16.1467 11.9076C16.0268 12.0338 15.8879 12.1329 15.7301 12.2049C15.5722 12.2756 15.4031 12.311 15.2225 12.311ZM15.2225 12.0458C15.3677 12.0458 15.5028 12.0168 15.6278 11.9587C15.7541 11.8993 15.8645 11.8185 15.9592 11.7163C16.0552 11.614 16.1297 11.4959 16.1827 11.3621C16.237 11.2283 16.2642 11.0862 16.2642 10.936C16.2642 10.7845 16.237 10.6418 16.1827 10.508C16.1284 10.3729 16.0533 10.2548 15.9573 10.1538C15.8626 10.0515 15.7522 9.97135 15.6259 9.91327C15.5009 9.85519 15.3664 9.82615 15.2225 9.82615C15.0773 9.82615 14.9416 9.85582 14.8153 9.91516C14.6903 9.97324 14.5798 10.0534 14.4839 10.1557C14.3892 10.258 14.3147 10.376 14.2604 10.5098C14.2074 10.6437 14.1808 10.7857 14.1808 10.936C14.1808 11.0888 14.208 11.2321 14.2623 11.3659C14.3166 11.4997 14.3911 11.6178 14.4858 11.7201C14.5817 11.8223 14.6922 11.9025 14.8172 11.9606C14.9435 12.0174 15.0786 12.0458 15.2225 12.0458ZM16.7289 11.5363V10.3678H16.9941V11.4833C16.9941 11.5869 17.0193 11.6809 17.0698 11.7655C17.1203 11.8501 17.1879 11.9177 17.2725 11.9682C17.3583 12.0187 17.4524 12.0439 17.5546 12.0439C17.6582 12.0439 17.7516 12.0187 17.8349 11.9682C17.9195 11.9177 17.9871 11.8501 18.0376 11.7655C18.0881 11.6809 18.1134 11.5869 18.1134 11.4833V10.3678H18.3785L18.3804 12.2617H18.1152L18.1134 11.9966C18.0464 12.0925 17.9593 12.1689 17.852 12.2257C17.7459 12.2826 17.6298 12.311 17.5035 12.311C17.3608 12.311 17.2308 12.2762 17.1134 12.2068C16.9959 12.1374 16.9025 12.0439 16.8331 11.9265C16.7636 11.8091 16.7289 11.679 16.7289 11.5363ZM19.6498 10.633H19.1971L19.1953 12.2617H18.9301L18.932 10.633H18.5892V10.3678H18.932L18.9301 9.77312H19.1953L19.1971 10.3678H19.6498V10.633ZM20.4824 12.2977C20.3789 12.2952 20.2779 12.2762 20.1794 12.2409C20.0809 12.2055 19.9951 12.1576 19.9218 12.0969C19.8486 12.0363 19.7962 11.9675 19.7646 11.8905L19.9938 11.792C20.014 11.8413 20.0513 11.8867 20.1055 11.9284C20.1611 11.9688 20.2242 12.0016 20.2949 12.0269C20.3656 12.0509 20.4357 12.0629 20.5052 12.0629C20.5822 12.0629 20.6541 12.0502 20.7211 12.025C20.788 11.9997 20.8423 11.9637 20.8839 11.917C20.9269 11.869 20.9483 11.8129 20.9483 11.7485C20.9483 11.679 20.9256 11.6247 20.8802 11.5856C20.8347 11.5452 20.7773 11.5136 20.7078 11.4909C20.6384 11.4669 20.567 11.4442 20.4938 11.4227C20.36 11.3861 20.2419 11.3457 20.1396 11.3015C20.0374 11.2573 19.9572 11.2011 19.8991 11.1329C19.8423 11.0635 19.8139 10.9745 19.8139 10.8659C19.8139 10.751 19.8461 10.6519 19.9105 10.5686C19.9761 10.484 20.0614 10.4189 20.1662 10.3735C20.2722 10.3268 20.3852 10.3034 20.5052 10.3034C20.6592 10.3034 20.7993 10.3369 20.9256 10.4038C21.0531 10.4707 21.1453 10.5597 21.2021 10.6708L20.9881 10.7977C20.9654 10.746 20.9294 10.7011 20.8802 10.6633C20.8309 10.6254 20.7747 10.5957 20.7116 10.5742C20.6497 10.5528 20.5866 10.5414 20.5222 10.5402C20.4414 10.5389 20.3663 10.5509 20.2968 10.5761C20.2274 10.6001 20.1712 10.6361 20.1283 10.6841C20.0866 10.7321 20.0658 10.7908 20.0658 10.8602C20.0658 10.9297 20.0866 10.9827 20.1283 11.0193C20.1699 11.0547 20.2261 11.0837 20.2968 11.1064C20.3688 11.1279 20.4496 11.1531 20.5393 11.1822C20.6541 11.2188 20.7621 11.2605 20.8631 11.3072C20.9641 11.3539 21.0456 11.412 21.1074 11.4814C21.1693 11.5509 21.1996 11.6386 21.1983 11.7447C21.1983 11.8583 21.1642 11.9574 21.0961 12.042C21.0279 12.1266 20.9395 12.1916 20.8309 12.2371C20.7223 12.2813 20.6062 12.3015 20.4824 12.2977Z" fill="#003E79"/>
<g opacity="0.25">
<line x1="16.2539" y1="55.926" x2="124.207" y2="55.926" stroke="#332D5B" stroke-width="0.210435" stroke-dasharray="0.42 0.42"/>
</g>
<g opacity="0.25">
<line x1="16.2539" y1="49.6174" x2="124.207" y2="49.6174" stroke="#332D5B" stroke-width="0.210435" stroke-dasharray="0.42 0.42"/>
</g>
<g opacity="0.25">
<line x1="16.2539" y1="43.301" x2="124.207" y2="43.301" stroke="#332D5B" stroke-width="0.210435" stroke-dasharray="0.42 0.42"/>
<line x1="16.2539" y1="36.9885" x2="124.207" y2="36.9885" stroke="#332D5B" stroke-width="0.210435" stroke-dasharray="0.42 0.42"/>
<line x1="16.2539" y1="30.676" x2="124.207" y2="30.676" stroke="#332D5B" stroke-width="0.210435" stroke-dasharray="0.42 0.42"/>
<line x1="16.2539" y1="24.3635" x2="124.207" y2="24.3635" stroke="#332D5B" stroke-width="0.210435" stroke-dasharray="0.42 0.42"/>
</g>
<path d="M8.79055 23.169C8.71059 23.1682 8.63567 23.1816 8.56581 23.2094C8.49678 23.2364 8.44081 23.2742 8.39788 23.3231C8.35495 23.371 8.33349 23.4274 8.33349 23.4922C8.33349 23.568 8.35327 23.6265 8.39283 23.6677C8.43323 23.7082 8.48795 23.7385 8.55697 23.7587C8.62599 23.7789 8.70385 23.797 8.79055 23.8129C8.90335 23.8323 9.00814 23.8626 9.10494 23.9039C9.20174 23.9443 9.2796 23.9986 9.33852 24.0667C9.39745 24.1341 9.42691 24.2174 9.42691 24.3167C9.42691 24.411 9.40081 24.4939 9.34863 24.5655C9.29728 24.637 9.22868 24.6942 9.14282 24.7372C9.05696 24.7801 8.96269 24.8058 8.86 24.8142V25.068H8.7249V24.8142C8.6382 24.8083 8.55529 24.7902 8.47616 24.7599C8.39788 24.7288 8.3297 24.6871 8.27162 24.6349C8.21438 24.5827 8.17314 24.5217 8.14788 24.4518L8.31329 24.39C8.3318 24.4421 8.36547 24.4872 8.41429 24.5251C8.46396 24.5621 8.52162 24.5907 8.58727 24.6109C8.65377 24.6311 8.72153 24.6412 8.79055 24.6412C8.87136 24.6412 8.94669 24.6278 9.01656 24.6008C9.08642 24.5739 9.14282 24.5364 9.18575 24.4884C9.22868 24.4396 9.25014 24.3824 9.25014 24.3167C9.25014 24.2502 9.22784 24.1955 9.18322 24.1526C9.13861 24.1097 9.08095 24.076 9.01025 24.0516C8.94038 24.0263 8.86715 24.007 8.79055 23.9935C8.67018 23.9725 8.56202 23.9438 8.46606 23.9076C8.37094 23.8714 8.29561 23.8205 8.24005 23.7549C8.1845 23.6884 8.15672 23.6008 8.15672 23.4922C8.15672 23.398 8.1824 23.3151 8.23374 23.2435C8.28593 23.172 8.35495 23.1147 8.44081 23.0718C8.52751 23.0289 8.6222 23.0036 8.7249 22.996V22.7347H8.86V22.996C8.94333 23.0019 9.02371 23.02 9.10115 23.0503C9.17859 23.0806 9.24677 23.1219 9.3057 23.1741C9.36546 23.2254 9.40881 23.2873 9.43575 23.3597L9.26782 23.4203C9.2493 23.3672 9.21521 23.3222 9.16555 23.2852C9.11673 23.2473 9.05949 23.2187 8.99383 23.1993C8.92818 23.1791 8.86042 23.169 8.79055 23.169ZM9.82676 24.7852V23.1943H9.63737L9.68787 23.0175H10.0035V24.7852H9.82676ZM10.9584 24.818C10.8524 24.818 10.7577 24.7944 10.6743 24.7473C10.591 24.6993 10.5199 24.6332 10.461 24.549C10.402 24.4649 10.357 24.3677 10.3259 24.2574C10.2956 24.1463 10.2804 24.0276 10.2804 23.9013C10.2804 23.7751 10.2956 23.6564 10.3259 23.5453C10.357 23.4342 10.402 23.3369 10.461 23.2536C10.5199 23.1694 10.591 23.1038 10.6743 23.0566C10.7577 23.0087 10.8524 22.9847 10.9584 22.9847C11.0637 22.9847 11.1579 23.0087 11.2413 23.0566C11.3246 23.1038 11.3953 23.1694 11.4534 23.2536C11.5115 23.3369 11.5556 23.4342 11.5859 23.5453C11.6171 23.6564 11.6327 23.7751 11.6327 23.9013C11.6327 24.0276 11.6171 24.1463 11.5859 24.2574C11.5556 24.3677 11.5115 24.4649 11.4534 24.549C11.3953 24.6332 11.3246 24.6993 11.2413 24.7473C11.1579 24.7944 11.0637 24.818 10.9584 24.818ZM10.9584 24.6412C11.0695 24.6412 11.1626 24.6071 11.2375 24.5389C11.3132 24.4708 11.37 24.3807 11.4079 24.2687C11.4458 24.156 11.4647 24.0335 11.4647 23.9013C11.4647 23.7616 11.445 23.6362 11.4054 23.5251C11.3667 23.4131 11.3094 23.3247 11.2337 23.2599C11.1588 23.1943 11.067 23.1614 10.9584 23.1614C10.8726 23.1614 10.7977 23.1812 10.7337 23.2208C10.6697 23.2603 10.6167 23.3146 10.5746 23.3837C10.5325 23.4527 10.5009 23.5318 10.4799 23.621C10.4589 23.7094 10.4483 23.8028 10.4483 23.9013C10.4483 24.0343 10.4677 24.1572 10.5064 24.27C10.5451 24.382 10.6024 24.472 10.6781 24.5402C10.7539 24.6075 10.8473 24.6412 10.9584 24.6412ZM12.4381 24.818C12.332 24.818 12.2373 24.7944 12.154 24.7473C12.0706 24.6993 11.9995 24.6332 11.9406 24.549C11.8817 24.4649 11.8366 24.3677 11.8055 24.2574C11.7752 24.1463 11.76 24.0276 11.76 23.9013C11.76 23.7751 11.7752 23.6564 11.8055 23.5453C11.8366 23.4342 11.8817 23.3369 11.9406 23.2536C11.9995 23.1694 12.0706 23.1038 12.154 23.0566C12.2373 23.0087 12.332 22.9847 12.4381 22.9847C12.5433 22.9847 12.6375 23.0087 12.7209 23.0566C12.8042 23.1038 12.8749 23.1694 12.933 23.2536C12.9911 23.3369 13.0353 23.4342 13.0656 23.5453C13.0967 23.6564 13.1123 23.7751 13.1123 23.9013C13.1123 24.0276 13.0967 24.1463 13.0656 24.2574C13.0353 24.3677 12.9911 24.4649 12.933 24.549C12.8749 24.6332 12.8042 24.6993 12.7209 24.7473C12.6375 24.7944 12.5433 24.818 12.4381 24.818ZM12.4381 24.6412C12.5492 24.6412 12.6422 24.6071 12.7171 24.5389C12.7928 24.4708 12.8497 24.3807 12.8875 24.2687C12.9254 24.156 12.9444 24.0335 12.9444 23.9013C12.9444 23.7616 12.9246 23.6362 12.885 23.5251C12.8463 23.4131 12.7891 23.3247 12.7133 23.2599C12.6384 23.1943 12.5466 23.1614 12.4381 23.1614C12.3522 23.1614 12.2773 23.1812 12.2133 23.2208C12.1493 23.2603 12.0963 23.3146 12.0542 23.3837C12.0121 23.4527 11.9806 23.5318 11.9595 23.621C11.9385 23.7094 11.928 23.8028 11.928 23.9013C11.928 24.0343 11.9473 24.1572 11.986 24.27C12.0248 24.382 12.082 24.472 12.1578 24.5402C12.2335 24.6075 12.3269 24.6412 12.4381 24.6412ZM14.3262 24.7852H14.1229L13.7694 24.1753L13.5168 24.4771V24.7852H13.3401V22.8912H13.5168V24.2018L14.0863 23.5225H14.3173L13.8893 24.0314L14.3262 24.7852Z" fill="#656565"/>
<path d="M8.79055 29.5362C8.71059 29.5354 8.63567 29.5488 8.56581 29.5766C8.49678 29.6035 8.44081 29.6414 8.39788 29.6902C8.35495 29.7382 8.33349 29.7946 8.33349 29.8594C8.33349 29.9352 8.35327 29.9937 8.39283 30.0349C8.43323 30.0753 8.48795 30.1056 8.55697 30.1258C8.62599 30.146 8.70385 30.1641 8.79055 30.1801C8.90335 30.1995 9.00814 30.2298 9.10494 30.271C9.20174 30.3114 9.2796 30.3657 9.33852 30.4339C9.39745 30.5013 9.42691 30.5846 9.42691 30.6839C9.42691 30.7782 9.40081 30.8611 9.34863 30.9326C9.29728 31.0042 9.22868 31.0614 9.14282 31.1044C9.05696 31.1473 8.96269 31.173 8.86 31.1814V31.4352H8.7249V31.1814C8.6382 31.1755 8.55529 31.1574 8.47616 31.1271C8.39788 31.0959 8.3297 31.0543 8.27162 31.0021C8.21438 30.9499 8.17314 30.8889 8.14788 30.819L8.31329 30.7571C8.3318 30.8093 8.36547 30.8544 8.41429 30.8922C8.46396 30.9293 8.52162 30.9579 8.58727 30.9781C8.65377 30.9983 8.72153 31.0084 8.79055 31.0084C8.87136 31.0084 8.94669 30.9949 9.01656 30.968C9.08642 30.9411 9.14282 30.9036 9.18575 30.8556C9.22868 30.8068 9.25014 30.7496 9.25014 30.6839C9.25014 30.6174 9.22784 30.5627 9.18322 30.5198C9.13861 30.4768 9.08095 30.4432 9.01025 30.4188C8.94038 30.3935 8.86715 30.3742 8.79055 30.3607C8.67018 30.3396 8.56202 30.311 8.46606 30.2748C8.37094 30.2386 8.29561 30.1877 8.24005 30.1221C8.1845 30.0556 8.15672 29.968 8.15672 29.8594C8.15672 29.7652 8.1824 29.6822 8.23374 29.6107C8.28593 29.5391 8.35495 29.4819 8.44081 29.439C8.52751 29.3961 8.6222 29.3708 8.7249 29.3632V29.1019H8.86V29.3632C8.94333 29.3691 9.02371 29.3872 9.10115 29.4175C9.17859 29.4478 9.24677 29.4891 9.3057 29.5413C9.36546 29.5926 9.40881 29.6545 9.43575 29.7269L9.26782 29.7875C9.2493 29.7344 9.21521 29.6894 9.16555 29.6524C9.11673 29.6145 9.05949 29.5859 8.99383 29.5665C8.92818 29.5463 8.86042 29.5362 8.79055 29.5362ZM10.2043 31.1852C10.0965 31.1852 9.99847 31.1591 9.91009 31.1069C9.82255 31.0547 9.75311 30.9848 9.70176 30.8973C9.65042 30.8089 9.62474 30.7121 9.62474 30.6069H9.80151C9.80151 30.6801 9.81961 30.7475 9.8558 30.8089C9.89199 30.8695 9.94039 30.9179 10.001 30.9541C10.0624 30.9903 10.1302 31.0084 10.2043 31.0084C10.2775 31.0084 10.3444 30.9903 10.405 30.9541C10.4656 30.9179 10.514 30.8695 10.5502 30.8089C10.5873 30.7475 10.6058 30.6801 10.6058 30.6069C10.6058 30.5328 10.5881 30.4655 10.5528 30.4049C10.5182 30.3434 10.469 30.2946 10.405 30.2584C10.3419 30.2214 10.2666 30.2029 10.179 30.2029H9.74974L9.91641 29.3847H10.7434V29.5615H10.0591L9.96691 30.0261L10.1727 30.0274C10.2931 30.029 10.3987 30.0547 10.4896 30.1044C10.5814 30.154 10.6529 30.2222 10.7043 30.3089C10.7565 30.3948 10.7826 30.4941 10.7826 30.6069C10.7826 30.686 10.7674 30.7605 10.7371 30.8304C10.7076 30.9002 10.666 30.9621 10.6121 31.016C10.5591 31.069 10.4976 31.1107 10.4278 31.141C10.3587 31.1704 10.2842 31.1852 10.2043 31.1852ZM11.6119 31.1852C11.5059 31.1852 11.4112 31.1616 11.3278 31.1145C11.2445 31.0665 11.1734 31.0004 11.1145 30.9162C11.0555 30.8321 11.0105 30.7348 10.9794 30.6246C10.9491 30.5135 10.9339 30.3948 10.9339 30.2685C10.9339 30.1423 10.9491 30.0236 10.9794 29.9125C11.0105 29.8014 11.0555 29.7041 11.1145 29.6208C11.1734 29.5366 11.2445 29.471 11.3278 29.4238C11.4112 29.3759 11.5059 29.3519 11.6119 29.3519C11.7171 29.3519 11.8114 29.3759 11.8948 29.4238C11.9781 29.471 12.0488 29.5366 12.1069 29.6208C12.165 29.7041 12.2091 29.8014 12.2394 29.9125C12.2706 30.0236 12.2862 30.1423 12.2862 30.2685C12.2862 30.3948 12.2706 30.5135 12.2394 30.6246C12.2091 30.7348 12.165 30.8321 12.1069 30.9162C12.0488 31.0004 11.9781 31.0665 11.8948 31.1145C11.8114 31.1616 11.7171 31.1852 11.6119 31.1852ZM11.6119 31.0084C11.723 31.0084 11.8161 30.9743 11.891 30.9061C11.9667 30.838 12.0235 30.7479 12.0614 30.6359C12.0993 30.5231 12.1182 30.4007 12.1182 30.2685C12.1182 30.1288 12.0985 30.0034 12.0589 29.8923C12.0202 29.7803 11.9629 29.6919 11.8872 29.6271C11.8123 29.5615 11.7205 29.5286 11.6119 29.5286C11.5261 29.5286 11.4512 29.5484 11.3872 29.588C11.3232 29.6275 11.2702 29.6818 11.2281 29.7508C11.186 29.8199 11.1544 29.899 11.1334 29.9882C11.1124 30.0766 11.1018 30.17 11.1018 30.2685C11.1018 30.4015 11.1212 30.5244 11.1599 30.6372C11.1986 30.7492 11.2559 30.8392 11.3316 30.9074C11.4074 30.9747 11.5008 31.0084 11.6119 31.0084ZM13.5 31.1523H13.2968L12.9432 30.5425L12.6907 30.8443V31.1523H12.5139V29.2584H12.6907V30.569L13.2602 29.8897H13.4912L13.0632 30.3986L13.5 31.1523Z" fill="#656565"/>
<path d="M8.79055 35.9034C8.71059 35.9025 8.63567 35.916 8.56581 35.9438C8.49678 35.9707 8.44081 36.0086 8.39788 36.0574C8.35495 36.1054 8.33349 36.1618 8.33349 36.2266C8.33349 36.3024 8.35327 36.3609 8.39283 36.4021C8.43323 36.4425 8.48795 36.4728 8.55697 36.493C8.62599 36.5132 8.70385 36.5313 8.79055 36.5473C8.90335 36.5667 9.00814 36.597 9.10494 36.6382C9.20174 36.6786 9.2796 36.7329 9.33852 36.8011C9.39745 36.8684 9.42691 36.9518 9.42691 37.0511C9.42691 37.1454 9.40081 37.2283 9.34863 37.2998C9.29728 37.3714 9.22868 37.4286 9.14282 37.4716C9.05696 37.5145 8.96269 37.5402 8.86 37.5486V37.8024H8.7249V37.5486C8.6382 37.5427 8.55529 37.5246 8.47616 37.4943C8.39788 37.4631 8.3297 37.4215 8.27162 37.3693C8.21438 37.3171 8.17314 37.2561 8.14788 37.1862L8.31329 37.1243C8.3318 37.1765 8.36547 37.2216 8.41429 37.2594C8.46396 37.2965 8.52162 37.3251 8.58727 37.3453C8.65377 37.3655 8.72153 37.3756 8.79055 37.3756C8.87136 37.3756 8.94669 37.3621 9.01656 37.3352C9.08642 37.3083 9.14282 37.2708 9.18575 37.2228C9.22868 37.174 9.25014 37.1168 9.25014 37.0511C9.25014 36.9846 9.22784 36.9299 9.18322 36.887C9.13861 36.844 9.08095 36.8104 9.01025 36.786C8.94038 36.7607 8.86715 36.7413 8.79055 36.7279C8.67018 36.7068 8.56202 36.6782 8.46606 36.642C8.37094 36.6058 8.29561 36.5549 8.24005 36.4892C8.1845 36.4227 8.15672 36.3352 8.15672 36.2266C8.15672 36.1323 8.1824 36.0494 8.23374 35.9779C8.28593 35.9063 8.35495 35.8491 8.44081 35.8062C8.52751 35.7632 8.6222 35.738 8.7249 35.7304V35.4691H8.86V35.7304C8.94333 35.7363 9.02371 35.7544 9.10115 35.7847C9.17859 35.815 9.24677 35.8563 9.3057 35.9084C9.36546 35.9598 9.40881 36.0217 9.43575 36.094L9.26782 36.1547C9.2493 36.1016 9.21521 36.0566 9.16555 36.0196C9.11673 35.9817 9.05949 35.9531 8.99383 35.9337C8.92818 35.9135 8.86042 35.9034 8.79055 35.9034ZM10.4 37.5195V37.0233H9.63737V36.844L10.3545 35.7519H10.5767V36.8466H10.7624V37.0233H10.5767V37.5195H10.4ZM9.84696 36.844L10.4 36.8466L10.3962 36.0044L9.84696 36.844ZM11.5922 37.5524C11.4861 37.5524 11.3914 37.5288 11.3081 37.4817C11.2248 37.4337 11.1537 37.3676 11.0947 37.2834C11.0358 37.1992 10.9908 37.102 10.9596 36.9918C10.9293 36.8807 10.9142 36.762 10.9142 36.6357C10.9142 36.5094 10.9293 36.3908 10.9596 36.2796C10.9908 36.1685 11.0358 36.0713 11.0947 35.988C11.1537 35.9038 11.2248 35.8382 11.3081 35.791C11.3914 35.743 11.4861 35.719 11.5922 35.719C11.6974 35.719 11.7917 35.743 11.875 35.791C11.9584 35.8382 12.0291 35.9038 12.0871 35.988C12.1452 36.0713 12.1894 36.1685 12.2197 36.2796C12.2509 36.3908 12.2664 36.5094 12.2664 36.6357C12.2664 36.762 12.2509 36.8807 12.2197 36.9918C12.1894 37.102 12.1452 37.1992 12.0871 37.2834C12.0291 37.3676 11.9584 37.4337 11.875 37.4817C11.7917 37.5288 11.6974 37.5524 11.5922 37.5524ZM11.5922 37.3756C11.7033 37.3756 11.7963 37.3415 11.8712 37.2733C11.947 37.2051 12.0038 37.1151 12.0417 37.0031C12.0796 36.8903 12.0985 36.7679 12.0985 36.6357C12.0985 36.496 12.0787 36.3706 12.0392 36.2594C12.0004 36.1475 11.9432 36.0591 11.8675 35.9943C11.7925 35.9286 11.7008 35.8958 11.5922 35.8958C11.5063 35.8958 11.4314 35.9156 11.3675 35.9552C11.3035 35.9947 11.2505 36.049 11.2084 36.118C11.1663 36.1871 11.1347 36.2662 11.1137 36.3554C11.0926 36.4438 11.0821 36.5372 11.0821 36.6357C11.0821 36.7687 11.1015 36.8916 11.1402 37.0044C11.1789 37.1163 11.2361 37.2064 11.3119 37.2746C11.3877 37.3419 11.4811 37.3756 11.5922 37.3756ZM13.4803 37.5195H13.277L12.9235 36.9097L12.671 37.2115V37.5195H12.4942V35.6256H12.671V36.9362L13.2404 36.2569H13.4715L13.0435 36.7658L13.4803 37.5195Z" fill="#656565"/>
<path d="M8.79055 42.2706C8.71059 42.2697 8.63567 42.2832 8.56581 42.311C8.49678 42.3379 8.44081 42.3758 8.39788 42.4246C8.35495 42.4726 8.33349 42.529 8.33349 42.5938C8.33349 42.6696 8.35327 42.7281 8.39283 42.7693C8.43323 42.8097 8.48795 42.84 8.55697 42.8602C8.62599 42.8804 8.70385 42.8985 8.79055 42.9145C8.90335 42.9339 9.00814 42.9642 9.10494 43.0054C9.20174 43.0458 9.2796 43.1001 9.33852 43.1683C9.39745 43.2356 9.42691 43.319 9.42691 43.4183C9.42691 43.5126 9.40081 43.5955 9.34863 43.667C9.29728 43.7386 9.22868 43.7958 9.14282 43.8387C9.05696 43.8817 8.96269 43.9073 8.86 43.9158V44.1695H8.7249V43.9158C8.6382 43.9099 8.55529 43.8918 8.47616 43.8615C8.39788 43.8303 8.3297 43.7887 8.27162 43.7365C8.21438 43.6843 8.17314 43.6233 8.14788 43.5534L8.31329 43.4915C8.3318 43.5437 8.36547 43.5887 8.41429 43.6266C8.46396 43.6637 8.52162 43.6923 8.58727 43.7125C8.65377 43.7327 8.72153 43.7428 8.79055 43.7428C8.87136 43.7428 8.94669 43.7293 9.01656 43.7024C9.08642 43.6754 9.14282 43.638 9.18575 43.59C9.22868 43.5412 9.25014 43.4839 9.25014 43.4183C9.25014 43.3518 9.22784 43.2971 9.18322 43.2542C9.13861 43.2112 9.08095 43.1776 9.01025 43.1531C8.94038 43.1279 8.86715 43.1085 8.79055 43.0951C8.67018 43.074 8.56202 43.0454 8.46606 43.0092C8.37094 42.973 8.29561 42.9221 8.24005 42.8564C8.1845 42.7899 8.15672 42.7024 8.15672 42.5938C8.15672 42.4995 8.1824 42.4166 8.23374 42.3451C8.28593 42.2735 8.35495 42.2163 8.44081 42.1734C8.52751 42.1304 8.6222 42.1052 8.7249 42.0976V41.8362H8.86V42.0976C8.94333 42.1035 9.02371 42.1216 9.10115 42.1519C9.17859 42.1822 9.24677 42.2234 9.3057 42.2756C9.36546 42.327 9.40881 42.3888 9.43575 42.4612L9.26782 42.5218C9.2493 42.4688 9.21521 42.4238 9.16555 42.3867C9.11673 42.3489 9.05949 42.3202 8.99383 42.3009C8.92818 42.2807 8.86042 42.2706 8.79055 42.2706ZM10.1563 43.9195C10.0486 43.9195 9.95386 43.896 9.87221 43.8488C9.79057 43.8009 9.72659 43.7369 9.6803 43.6569C9.63484 43.577 9.61212 43.4886 9.61212 43.3918H9.78888C9.78888 43.4557 9.80361 43.5147 9.83307 43.5685C9.86338 43.6216 9.90588 43.6641 9.9606 43.6961C10.0153 43.7272 10.0805 43.7428 10.1563 43.7428C10.2203 43.7428 10.28 43.7272 10.3356 43.6961C10.392 43.6641 10.4374 43.6216 10.472 43.5685C10.5073 43.5147 10.525 43.4557 10.525 43.3918C10.525 43.3118 10.5048 43.2453 10.4644 43.1923C10.424 43.1384 10.3684 43.0984 10.2977 43.0723C10.227 43.0454 10.1462 43.0319 10.0553 43.0319V42.8855C10.1807 42.8855 10.2813 42.859 10.3571 42.8059C10.4337 42.7521 10.472 42.6734 10.472 42.5698C10.472 42.5134 10.4564 42.4621 10.4252 42.4158C10.3949 42.3695 10.355 42.3324 10.3053 42.3047C10.2565 42.276 10.2039 42.2617 10.1475 42.2617C10.0911 42.2617 10.0368 42.276 9.98459 42.3047C9.93324 42.3324 9.89115 42.3695 9.85833 42.4158C9.82634 42.4621 9.81035 42.5134 9.81035 42.5698H9.63358C9.63358 42.5033 9.64747 42.441 9.67525 42.383C9.70302 42.324 9.7409 42.2723 9.78888 42.2276C9.83686 42.183 9.89157 42.1481 9.95302 42.1229C10.0145 42.0976 10.0789 42.085 10.1462 42.085C10.2346 42.085 10.3167 42.1069 10.3924 42.1506C10.469 42.1944 10.5309 42.2529 10.578 42.3261C10.6251 42.3994 10.6487 42.4806 10.6487 42.5698C10.6487 42.6565 10.6264 42.7348 10.5818 42.8047C10.5372 42.8745 10.477 42.9238 10.4012 42.9524C10.4669 42.9743 10.522 43.0075 10.5666 43.0521C10.6113 43.0959 10.6449 43.1468 10.6677 43.2049C10.6904 43.263 10.7017 43.3253 10.7017 43.3918C10.7017 43.4886 10.6765 43.577 10.626 43.6569C10.5755 43.7369 10.5086 43.8009 10.4252 43.8488C10.3427 43.896 10.2531 43.9195 10.1563 43.9195ZM11.5306 43.9195C11.4245 43.9195 11.3298 43.896 11.2465 43.8488C11.1631 43.8009 11.092 43.7348 11.0331 43.6506C10.9742 43.5664 10.9291 43.4692 10.898 43.3589C10.8677 43.2478 10.8525 43.1292 10.8525 43.0029C10.8525 42.8766 10.8677 42.7579 10.898 42.6468C10.9291 42.5357 10.9742 42.4385 11.0331 42.3552C11.092 42.271 11.1631 42.2053 11.2465 42.1582C11.3298 42.1102 11.4245 42.0862 11.5306 42.0862C11.6358 42.0862 11.73 42.1102 11.8134 42.1582C11.8967 42.2053 11.9674 42.271 12.0255 42.3552C12.0836 42.4385 12.1278 42.5357 12.1581 42.6468C12.1892 42.7579 12.2048 42.8766 12.2048 43.0029C12.2048 43.1292 12.1892 43.2478 12.1581 43.3589C12.1278 43.4692 12.0836 43.5664 12.0255 43.6506C11.9674 43.7348 11.8967 43.8009 11.8134 43.8488C11.73 43.896 11.6358 43.9195 11.5306 43.9195ZM11.5306 43.7428C11.6417 43.7428 11.7347 43.7087 11.8096 43.6405C11.8853 43.5723 11.9422 43.4823 11.98 43.3703C12.0179 43.2575 12.0369 43.135 12.0369 43.0029C12.0369 42.8632 12.0171 42.7377 11.9775 42.6266C11.9388 42.5147 11.8816 42.4263 11.8058 42.3615C11.7309 42.2958 11.6391 42.263 11.5306 42.263C11.4447 42.263 11.3698 42.2828 11.3058 42.3223C11.2418 42.3619 11.1888 42.4162 11.1467 42.4852C11.1046 42.5542 11.0731 42.6334 11.052 42.7226C11.031 42.811 11.0205 42.9044 11.0205 43.0029C11.0205 43.1359 11.0398 43.2588 11.0785 43.3716C11.1173 43.4835 11.1745 43.5736 11.2503 43.6418C11.326 43.7091 11.4194 43.7428 11.5306 43.7428ZM13.4187 43.8867H13.2154L12.8619 43.2769L12.6093 43.5786V43.8867H12.4326V41.9928H12.6093V43.3034L13.1788 42.6241H13.4098L12.9818 43.1329L13.4187 43.8867Z" fill="#656565"/>
<path d="M8.79055 48.6378C8.71059 48.6369 8.63567 48.6504 8.56581 48.6782C8.49678 48.7051 8.44081 48.743 8.39788 48.7918C8.35495 48.8398 8.33349 48.8962 8.33349 48.961C8.33349 49.0368 8.35327 49.0953 8.39283 49.1365C8.43323 49.1769 8.48795 49.2072 8.55697 49.2274C8.62599 49.2476 8.70385 49.2657 8.79055 49.2817C8.90335 49.3011 9.00814 49.3314 9.10494 49.3726C9.20174 49.413 9.2796 49.4673 9.33852 49.5355C9.39745 49.6028 9.42691 49.6862 9.42691 49.7855C9.42691 49.8798 9.40081 49.9627 9.34863 50.0342C9.29728 50.1058 9.22868 50.163 9.14282 50.2059C9.05696 50.2489 8.96269 50.2745 8.86 50.2829V50.5367H8.7249V50.2829C8.6382 50.2771 8.55529 50.259 8.47616 50.2287C8.39788 50.1975 8.3297 50.1558 8.27162 50.1037C8.21438 50.0515 8.17314 49.9904 8.14788 49.9206L8.31329 49.8587C8.3318 49.9109 8.36547 49.9559 8.41429 49.9938C8.46396 50.0308 8.52162 50.0595 8.58727 50.0797C8.65377 50.0999 8.72153 50.11 8.79055 50.11C8.87136 50.11 8.94669 50.0965 9.01656 50.0696C9.08642 50.0426 9.14282 50.0052 9.18575 49.9572C9.22868 49.9084 9.25014 49.8511 9.25014 49.7855C9.25014 49.719 9.22784 49.6643 9.18322 49.6213C9.13861 49.5784 9.08095 49.5447 9.01025 49.5203C8.94038 49.4951 8.86715 49.4757 8.79055 49.4623C8.67018 49.4412 8.56202 49.4126 8.46606 49.3764C8.37094 49.3402 8.29561 49.2893 8.24005 49.2236C8.1845 49.1571 8.15672 49.0696 8.15672 48.961C8.15672 48.8667 8.1824 48.7838 8.23374 48.7123C8.28593 48.6407 8.35495 48.5835 8.44081 48.5405C8.52751 48.4976 8.6222 48.4724 8.7249 48.4648V48.2034H8.86V48.4648C8.94333 48.4707 9.02371 48.4888 9.10115 48.5191C9.17859 48.5494 9.24677 48.5906 9.3057 48.6428C9.36546 48.6942 9.40881 48.756 9.43575 48.8284L9.26782 48.889C9.2493 48.836 9.21521 48.791 9.16555 48.7539C9.11673 48.716 9.05949 48.6874 8.99383 48.6681C8.92818 48.6479 8.86042 48.6378 8.79055 48.6378ZM9.63737 50.2539V50.0973C9.70639 50.0334 9.78215 49.9635 9.86464 49.8877C9.94713 49.8112 10.0288 49.7324 10.1096 49.6516C10.1912 49.57 10.2657 49.4896 10.3331 49.4105C10.4004 49.3305 10.4543 49.2552 10.4947 49.1845C10.5359 49.1129 10.5565 49.0498 10.5565 48.9951C10.5565 48.9286 10.5401 48.868 10.5073 48.8133C10.4753 48.7577 10.432 48.7135 10.3773 48.6807C10.3234 48.647 10.2632 48.6302 10.1967 48.6302C10.1302 48.6302 10.0692 48.647 10.0136 48.6807C9.95891 48.7135 9.91514 48.7577 9.88231 48.8133C9.84949 48.868 9.83307 48.9286 9.83307 48.9951H9.65631C9.65631 48.8941 9.68072 48.8027 9.72954 48.7211C9.7792 48.6394 9.84486 48.5746 9.92651 48.5267C10.0082 48.4778 10.0982 48.4534 10.1967 48.4534C10.2952 48.4534 10.3848 48.4778 10.4656 48.5267C10.5473 48.5755 10.6121 48.6407 10.6601 48.7224C10.7089 48.804 10.7333 48.8949 10.7333 48.9951C10.7333 49.0548 10.7173 49.1205 10.6853 49.1921C10.6542 49.2628 10.6117 49.3364 10.5578 49.413C10.5039 49.4888 10.4433 49.5654 10.376 49.6428C10.3087 49.7202 10.2384 49.796 10.1651 49.8701C10.0919 49.9433 10.0208 50.0123 9.95176 50.0771H10.7598V50.2539H9.63737ZM11.6021 50.2867C11.496 50.2867 11.4013 50.2632 11.318 50.216C11.2346 50.168 11.1635 50.102 11.1046 50.0178C11.0457 49.9336 11.0006 49.8364 10.9695 49.7261C10.9392 49.615 10.924 49.4963 10.924 49.3701C10.924 49.2438 10.9392 49.1251 10.9695 49.014C11.0006 48.9029 11.0457 48.8057 11.1046 48.7224C11.1635 48.6382 11.2346 48.5725 11.318 48.5254C11.4013 48.4774 11.496 48.4534 11.6021 48.4534C11.7073 48.4534 11.8016 48.4774 11.8849 48.5254C11.9682 48.5725 12.0389 48.6382 12.097 48.7224C12.1551 48.8057 12.1993 48.9029 12.2296 49.014C12.2607 49.1251 12.2763 49.2438 12.2763 49.3701C12.2763 49.4963 12.2607 49.615 12.2296 49.7261C12.1993 49.8364 12.1551 49.9336 12.097 50.0178C12.0389 50.102 11.9682 50.168 11.8849 50.216C11.8016 50.2632 11.7073 50.2867 11.6021 50.2867ZM11.6021 50.11C11.7132 50.11 11.8062 50.0759 11.8811 50.0077C11.9569 49.9395 12.0137 49.8495 12.0516 49.7375C12.0894 49.6247 12.1084 49.5022 12.1084 49.3701C12.1084 49.2304 12.0886 49.1049 12.049 48.9938C12.0103 48.8819 11.9531 48.7935 11.8773 48.7287C11.8024 48.663 11.7107 48.6302 11.6021 48.6302C11.5162 48.6302 11.4413 48.65 11.3773 48.6895C11.3134 48.7291 11.2603 48.7834 11.2182 48.8524C11.1761 48.9214 11.1446 49.0006 11.1235 49.0898C11.1025 49.1782 11.092 49.2716 11.092 49.3701C11.092 49.5031 11.1113 49.626 11.1501 49.7388C11.1888 49.8507 11.246 49.9408 11.3218 50.009C11.3975 50.0763 11.491 50.11 11.6021 50.11ZM13.4902 50.2539H13.2869L12.9334 49.6441L12.6808 49.9458V50.2539H12.5041V48.36H12.6808V49.6706L13.2503 48.9913H13.4813L13.0533 49.5001L13.4902 50.2539Z" fill="#656565"/>
<path d="M9.3972 55.005C9.31723 55.0041 9.24232 55.0176 9.17245 55.0454C9.10343 55.0723 9.04745 55.1102 9.00452 55.159C8.9616 55.207 8.94013 55.2634 8.94013 55.3282C8.94013 55.4039 8.95991 55.4624 8.99947 55.5037C9.03988 55.5441 9.09459 55.5744 9.16361 55.5946C9.23264 55.6148 9.3105 55.6329 9.3972 55.6489C9.50999 55.6682 9.61479 55.6985 9.71159 55.7398C9.80839 55.7802 9.88625 55.8345 9.94517 55.9027C10.0041 55.97 10.0336 56.0533 10.0336 56.1527C10.0336 56.2469 10.0075 56.3299 9.95527 56.4014C9.90392 56.4729 9.83532 56.5302 9.74946 56.5731C9.66361 56.616 9.56933 56.6417 9.46664 56.6501V56.9039H9.33154V56.6501C9.24484 56.6442 9.16193 56.6261 9.08281 56.5958C9.00452 56.5647 8.93634 56.523 8.87826 56.4708C8.82103 56.4187 8.77978 56.3576 8.75453 56.2878L8.91993 56.2259C8.93845 56.2781 8.97212 56.3231 9.02094 56.361C9.0706 56.398 9.12826 56.4267 9.19392 56.4469C9.26041 56.4671 9.32817 56.4772 9.3972 56.4772C9.478 56.4772 9.55334 56.4637 9.6232 56.4368C9.69307 56.4098 9.74946 56.3724 9.79239 56.3244C9.83532 56.2756 9.85679 56.2183 9.85679 56.1527C9.85679 56.0862 9.83448 56.0315 9.78987 55.9885C9.74526 55.9456 9.6876 55.9119 9.61689 55.8875C9.54703 55.8623 9.47379 55.8429 9.3972 55.8294C9.27683 55.8084 9.16866 55.7798 9.07271 55.7436C8.97759 55.7074 8.90225 55.6565 8.8467 55.5908C8.79114 55.5243 8.76337 55.4368 8.76337 55.3282C8.76337 55.2339 8.78904 55.151 8.84039 55.0794C8.89257 55.0079 8.9616 54.9507 9.04745 54.9077C9.13415 54.8648 9.22885 54.8396 9.33154 54.832V54.5706H9.46664V54.832C9.54997 54.8379 9.63036 54.856 9.7078 54.8863C9.78524 54.9166 9.85342 54.9578 9.91234 55.01C9.9721 55.0614 10.0155 55.1232 10.0424 55.1956L9.87446 55.2562C9.85594 55.2032 9.82185 55.1582 9.77219 55.1211C9.72337 55.0832 9.66613 55.0546 9.60048 55.0353C9.53482 55.0151 9.46706 55.005 9.3972 55.005ZM10.4334 56.6211V55.0302H10.244L10.2945 54.8534H10.6102V56.6211H10.4334ZM11.5651 56.6539C11.459 56.6539 11.3643 56.6304 11.281 56.5832C11.1977 56.5352 11.1265 56.4692 11.0676 56.385C11.0087 56.3008 10.9637 56.2036 10.9325 56.0933C10.9022 55.9822 10.8871 55.8635 10.8871 55.7373C10.8871 55.611 10.9022 55.4923 10.9325 55.3812C10.9637 55.2701 11.0087 55.1729 11.0676 55.0895C11.1265 55.0054 11.1977 54.9397 11.281 54.8926C11.3643 54.8446 11.459 54.8206 11.5651 54.8206C11.6703 54.8206 11.7646 54.8446 11.8479 54.8926C11.9312 54.9397 12.0019 55.0054 12.06 55.0895C12.1181 55.1729 12.1623 55.2701 12.1926 55.3812C12.2237 55.4923 12.2393 55.611 12.2393 55.7373C12.2393 55.8635 12.2237 55.9822 12.1926 56.0933C12.1623 56.2036 12.1181 56.3008 12.06 56.385C12.0019 56.4692 11.9312 56.5352 11.8479 56.5832C11.7646 56.6304 11.6703 56.6539 11.5651 56.6539ZM11.5651 56.4772C11.6762 56.4772 11.7692 56.4431 11.8441 56.3749C11.9199 56.3067 11.9767 56.2166 12.0146 56.1047C12.0524 55.9919 12.0714 55.8694 12.0714 55.7373C12.0714 55.5975 12.0516 55.4721 12.012 55.361C11.9733 55.2491 11.9161 55.1607 11.8403 55.0959C11.7654 55.0302 11.6737 54.9974 11.5651 54.9974C11.4792 54.9974 11.4043 55.0172 11.3403 55.0567C11.2764 55.0963 11.2233 55.1506 11.1812 55.2196C11.1392 55.2886 11.1076 55.3677 11.0865 55.457C11.0655 55.5454 11.055 55.6388 11.055 55.7373C11.055 55.8703 11.0743 55.9932 11.1131 56.1059C11.1518 56.2179 11.209 56.308 11.2848 56.3761C11.3605 56.4435 11.454 56.4772 11.5651 56.4772ZM13.4532 56.6211H13.2499L12.8964 56.0113L12.6439 56.313V56.6211H12.4671V54.7272H12.6439V56.0378L13.2133 55.3585H13.4444L13.0163 55.8673L13.4532 56.6211Z" fill="#656565"/>
<path d="M16.6201 62.9078C16.5628 62.9078 16.5068 62.8981 16.4521 62.8788C16.3983 62.8603 16.349 62.8317 16.3044 62.7929L16.4168 62.6566C16.4437 62.6793 16.4744 62.6974 16.509 62.7109C16.5435 62.7243 16.5805 62.7311 16.6201 62.7311C16.679 62.7311 16.7324 62.7155 16.7804 62.6843C16.8284 62.6524 16.8667 62.6111 16.8953 62.5606C16.9248 62.5093 16.9395 62.4546 16.9395 62.3965V61.1073H17.1163V62.3965C17.1163 62.4874 17.094 62.5716 17.0494 62.649C17.0047 62.7264 16.945 62.7891 16.8701 62.8371C16.7951 62.8843 16.7118 62.9078 16.6201 62.9078ZM18.4568 61.6124H18.6336V62.875H18.4568L18.4505 62.6402C18.4093 62.7201 18.3516 62.7849 18.2775 62.8346C18.2035 62.8834 18.1151 62.9078 18.0124 62.9078C17.9198 62.9078 17.8331 62.8906 17.7523 62.8561C17.6715 62.8207 17.6004 62.7723 17.5389 62.7109C17.4775 62.6494 17.4295 62.5783 17.395 62.4975C17.3605 62.4167 17.3432 62.33 17.3432 62.2374C17.3432 62.1465 17.36 62.061 17.3937 61.9811C17.4282 61.9011 17.4754 61.8308 17.5351 61.7702C17.5957 61.7096 17.6656 61.6625 17.7447 61.6288C17.8247 61.5943 17.9101 61.577 18.001 61.577C18.1062 61.577 18.198 61.6023 18.2763 61.6528C18.3546 61.7025 18.4168 61.7677 18.4631 61.8485L18.4568 61.6124ZM18.0086 62.7361C18.0987 62.7361 18.1761 62.7142 18.2409 62.6705C18.3057 62.6258 18.3554 62.5661 18.3899 62.4912C18.4253 62.4163 18.4429 62.3338 18.4429 62.2437C18.4429 62.1511 18.4253 62.0678 18.3899 61.9937C18.3546 61.9188 18.3045 61.8594 18.2397 61.8157C18.1748 61.7719 18.0978 61.75 18.0086 61.75C17.9194 61.75 17.8377 61.7723 17.7637 61.8169C17.6904 61.8607 17.6319 61.92 17.5881 61.995C17.5452 62.0699 17.5238 62.1528 17.5238 62.2437C17.5238 62.3354 17.5461 62.4188 17.5907 62.4937C17.6353 62.5678 17.6942 62.6267 17.7674 62.6705C17.8415 62.7142 17.9219 62.7361 18.0086 62.7361ZM19.9872 62.0934V62.875H19.8105V62.1288C19.8105 62.0598 19.7936 61.9971 19.76 61.9407C19.7263 61.8843 19.6813 61.8392 19.6249 61.8056C19.5685 61.7719 19.5058 61.7551 19.4367 61.7551C19.3686 61.7551 19.3059 61.7719 19.2486 61.8056C19.1922 61.8392 19.1472 61.8843 19.1135 61.9407C19.0798 61.9971 19.063 62.0598 19.063 62.1288V62.875H18.8862V61.6124H19.063V61.7866C19.1076 61.7227 19.1657 61.6717 19.2373 61.6339C19.3088 61.596 19.3867 61.577 19.4708 61.577C19.566 61.577 19.6527 61.6002 19.7309 61.6465C19.8092 61.6928 19.8715 61.7551 19.9178 61.8333C19.9641 61.9116 19.9872 61.9983 19.9872 62.0934Z" fill="#656565"/>
<path d="M25.4562 62.875V61.1073H26.4903V61.2841H25.633V61.8397H26.3691V62.0164H25.633V62.875H25.4562ZM27.0968 62.9078C26.9806 62.9078 26.8746 62.8779 26.7786 62.8182C26.6835 62.7584 26.6073 62.6785 26.5501 62.5783C26.4937 62.4773 26.4655 62.3657 26.4655 62.2437C26.4655 62.1511 26.4819 62.0648 26.5147 61.9849C26.5476 61.9041 26.5926 61.8333 26.6498 61.7727C26.7079 61.7113 26.7753 61.6633 26.8519 61.6288C26.9285 61.5943 27.0101 61.577 27.0968 61.577C27.1902 61.577 27.2761 61.5956 27.3544 61.6326C27.4335 61.6696 27.5013 61.7214 27.5577 61.7879C27.6149 61.8544 27.6578 61.9323 27.6864 62.0215C27.7159 62.1107 27.7281 62.2071 27.7231 62.3106H26.6524C26.6625 62.3906 26.6877 62.4621 26.7281 62.5253C26.7694 62.5884 26.8216 62.6385 26.8847 62.6755C26.9487 62.7117 27.0194 62.7302 27.0968 62.7311C27.181 62.7311 27.2567 62.7092 27.3241 62.6654C27.3923 62.6216 27.447 62.5615 27.4882 62.4849L27.6675 62.5265C27.617 62.6385 27.5408 62.7302 27.439 62.8018C27.3371 62.8725 27.2231 62.9078 27.0968 62.9078ZM26.6473 62.1679H27.545C27.5391 62.0897 27.5151 62.0181 27.4731 61.9533C27.4318 61.8876 27.3784 61.8355 27.3127 61.7967C27.2471 61.7572 27.1751 61.7374 27.0968 61.7374C27.0185 61.7374 26.947 61.7567 26.8822 61.7955C26.8173 61.8333 26.7643 61.8851 26.7231 61.9508C26.6818 62.0156 26.6566 62.088 26.6473 62.1679ZM28.5559 61.577C28.6788 61.577 28.7903 61.6069 28.8905 61.6667C28.9915 61.7264 29.0719 61.8068 29.1316 61.9078C29.1914 62.008 29.2213 62.1195 29.2213 62.2424C29.2213 62.3342 29.204 62.4205 29.1695 62.5013C29.135 62.5812 29.087 62.6519 29.0256 62.7134C28.965 62.774 28.8943 62.8215 28.8135 62.8561C28.7335 62.8906 28.6476 62.9078 28.5559 62.9078C28.4515 62.9078 28.3614 62.883 28.2857 62.8333C28.2099 62.7837 28.1502 62.7189 28.1064 62.6389V62.875H27.9296V60.9811H28.1064V61.846C28.1502 61.766 28.2099 61.7012 28.2857 61.6515C28.3614 61.6019 28.4515 61.577 28.5559 61.577ZM28.5546 62.7349C28.6447 62.7349 28.7263 62.713 28.7996 62.6692C28.8728 62.6246 28.9313 62.5648 28.9751 62.4899C29.0188 62.415 29.0407 62.3325 29.0407 62.2424C29.0407 62.1498 29.0184 62.0665 28.9738 61.9924C28.9292 61.9175 28.8699 61.8582 28.7958 61.8144C28.7226 61.7706 28.6422 61.7488 28.5546 61.7488C28.4654 61.7488 28.388 61.7711 28.3223 61.8157C28.2575 61.8603 28.2074 61.92 28.1721 61.995C28.1375 62.0699 28.1203 62.1524 28.1203 62.2424C28.1203 62.3342 28.138 62.4175 28.1733 62.4924C28.2087 62.5665 28.2588 62.6254 28.3236 62.6692C28.3892 62.713 28.4662 62.7349 28.5546 62.7349Z" fill="#656565"/>
<path d="M34.507 62.875L34.8491 61.1073H34.9779L35.4729 62.4078L35.9653 61.1073H36.0941L36.4375 62.875H36.257L35.9956 61.5227L35.5284 62.7588H35.4148L34.9476 61.5227L34.6863 62.875H34.507ZM37.678 61.6124H37.8547V62.875H37.678L37.6717 62.6402C37.6304 62.7201 37.5727 62.7849 37.4987 62.8346C37.4246 62.8834 37.3362 62.9078 37.2335 62.9078C37.1409 62.9078 37.0542 62.8906 36.9734 62.8561C36.8926 62.8207 36.8215 62.7723 36.76 62.7109C36.6986 62.6494 36.6506 62.5783 36.6161 62.4975C36.5816 62.4167 36.5643 62.33 36.5643 62.2374C36.5643 62.1465 36.5812 62.061 36.6148 61.9811C36.6494 61.9011 36.6965 61.8308 36.7563 61.7702C36.8169 61.7096 36.8867 61.6625 36.9659 61.6288C37.0458 61.5943 37.1313 61.577 37.2222 61.577C37.3274 61.577 37.4191 61.6023 37.4974 61.6528C37.5757 61.7025 37.638 61.7677 37.6843 61.8485L37.678 61.6124ZM37.2297 62.7361C37.3198 62.7361 37.3972 62.7142 37.4621 62.6705C37.5269 62.6258 37.5765 62.5661 37.611 62.4912C37.6464 62.4163 37.6641 62.3338 37.6641 62.2437C37.6641 62.1511 37.6464 62.0678 37.611 61.9937C37.5757 61.9188 37.5256 61.8594 37.4608 61.8157C37.396 61.7719 37.319 61.75 37.2297 61.75C37.1405 61.75 37.0589 61.7723 36.9848 61.8169C36.9116 61.8607 36.8531 61.92 36.8093 61.995C36.7664 62.0699 36.7449 62.1528 36.7449 62.2437C36.7449 62.3354 36.7672 62.4188 36.8118 62.4937C36.8564 62.5678 36.9154 62.6267 36.9886 62.6705C37.0627 62.7142 37.143 62.7361 37.2297 62.7361ZM38.1074 62.875V61.6124H38.2842V61.7866C38.3288 61.7227 38.3868 61.6717 38.4584 61.6339C38.5299 61.596 38.6078 61.577 38.692 61.577C38.7408 61.577 38.7879 61.5834 38.8334 61.596L38.7614 61.7715C38.7261 61.7605 38.6916 61.7551 38.6579 61.7551C38.5897 61.7551 38.527 61.7719 38.4698 61.8056C38.4134 61.8392 38.3683 61.8843 38.3347 61.9407C38.301 61.9971 38.2842 62.0598 38.2842 62.1288V62.875H38.1074Z" fill="#656565"/>
<path d="M45.1499 61.1073H45.3696L46.0136 62.875H45.8254L45.6878 62.4962H44.833L44.6954 62.875H44.5073L45.1499 61.1073ZM44.8974 62.3195H45.6221L45.2598 61.3245L44.8974 62.3195ZM46.4065 63.5063H46.2297V61.6124H46.4065V61.8485C46.4503 61.7685 46.51 61.7037 46.5858 61.6541C46.6615 61.6044 46.7516 61.5796 46.856 61.5796C46.9477 61.5796 47.0336 61.5968 47.1136 61.6313C47.1944 61.6658 47.2651 61.7138 47.3257 61.7753C47.3863 61.8359 47.4338 61.9062 47.4684 61.9861C47.5029 62.0661 47.5201 62.1519 47.5201 62.2437C47.5201 62.3354 47.5029 62.4217 47.4684 62.5025C47.4338 62.5833 47.3863 62.6545 47.3257 62.7159C47.2651 62.7765 47.1944 62.8241 47.1136 62.8586C47.0336 62.8931 46.9477 62.9104 46.856 62.9104C46.7516 62.9104 46.6615 62.8855 46.5858 62.8359C46.51 62.7862 46.4503 62.7214 46.4065 62.6414V63.5063ZM46.8547 61.7513C46.7663 61.7513 46.6893 61.7736 46.6237 61.8182C46.5589 61.862 46.5088 61.9209 46.4734 61.995C46.4381 62.069 46.4204 62.1519 46.4204 62.2437C46.4204 62.3338 46.4376 62.4163 46.4722 62.4912C46.5075 62.5661 46.5576 62.6258 46.6224 62.6705C46.6881 62.7151 46.7655 62.7374 46.8547 62.7374C46.9423 62.7374 47.0227 62.7155 47.0959 62.6717C47.17 62.6279 47.2293 62.569 47.2739 62.495C47.3185 62.42 47.3408 62.3363 47.3408 62.2437C47.3408 62.1536 47.3189 62.0716 47.2752 61.9975C47.2314 61.9226 47.1729 61.8628 47.0997 61.8182C47.0264 61.7736 46.9448 61.7513 46.8547 61.7513ZM47.734 62.875V61.6124H47.9108V61.7866C47.9554 61.7227 48.0135 61.6717 48.085 61.6339C48.1566 61.596 48.2344 61.577 48.3186 61.577C48.3674 61.577 48.4146 61.5834 48.46 61.596L48.388 61.7715C48.3527 61.7605 48.3182 61.7551 48.2845 61.7551C48.2163 61.7551 48.1536 61.7719 48.0964 61.8056C48.04 61.8392 47.995 61.8843 47.9613 61.9407C47.9276 61.9971 47.9108 62.0598 47.9108 62.1288V62.875H47.734Z" fill="#656565"/>
<path d="M54.6085 62.875L54.9507 61.1073H55.0795L55.5744 62.4078L56.0669 61.1073H56.1956L56.5391 62.875H56.3585L56.0972 61.5227L55.63 62.7588H55.5164L55.0492 61.5227L54.7878 62.875H54.6085ZM57.7795 61.6124H57.9563V62.875H57.7795L57.7732 62.6402C57.732 62.7201 57.6743 62.7849 57.6002 62.8346C57.5262 62.8834 57.4378 62.9078 57.3351 62.9078C57.2425 62.9078 57.1558 62.8906 57.075 62.8561C56.9942 62.8207 56.9231 62.7723 56.8616 62.7109C56.8002 62.6494 56.7522 62.5783 56.7177 62.4975C56.6832 62.4167 56.6659 62.33 56.6659 62.2374C56.6659 62.1465 56.6827 62.061 56.7164 61.9811C56.7509 61.9011 56.7981 61.8308 56.8578 61.7702C56.9184 61.7096 56.9883 61.6625 57.0674 61.6288C57.1474 61.5943 57.2328 61.577 57.3237 61.577C57.4289 61.577 57.5207 61.6023 57.599 61.6528C57.6773 61.7025 57.7395 61.7677 57.7858 61.8485L57.7795 61.6124ZM57.3313 62.7361C57.4214 62.7361 57.4988 62.7142 57.5636 62.6705C57.6284 62.6258 57.6781 62.5661 57.7126 62.4912C57.748 62.4163 57.7656 62.3338 57.7656 62.2437C57.7656 62.1511 57.748 62.0678 57.7126 61.9937C57.6773 61.9188 57.6272 61.8594 57.5624 61.8157C57.4975 61.7719 57.4205 61.75 57.3313 61.75C57.2421 61.75 57.1604 61.7723 57.0864 61.8169C57.0131 61.8607 56.9546 61.92 56.9109 61.995C56.8679 62.0699 56.8465 62.1528 56.8465 62.2437C56.8465 62.3354 56.8688 62.4188 56.9134 62.4937C56.958 62.5678 57.0169 62.6267 57.0901 62.6705C57.1642 62.7142 57.2446 62.7361 57.3313 62.7361ZM59.0442 61.6124H59.2311L58.5405 63.5063H58.3523L58.5821 62.875L58.1289 61.6124H58.322L58.6705 62.6313L59.0442 61.6124Z" fill="#656565"/>
<path d="M64.874 62.9078C64.8167 62.9078 64.7608 62.8981 64.706 62.8788C64.6522 62.8603 64.6029 62.8317 64.5583 62.7929L64.6707 62.6566C64.6976 62.6793 64.7283 62.6974 64.7629 62.7109C64.7974 62.7243 64.8344 62.7311 64.874 62.7311C64.9329 62.7311 64.9863 62.7155 65.0343 62.6843C65.0823 62.6524 65.1206 62.6111 65.1492 62.5606C65.1787 62.5093 65.1934 62.4546 65.1934 62.3965V61.1073H65.3702V62.3965C65.3702 62.4874 65.3479 62.5716 65.3033 62.649C65.2586 62.7264 65.1989 62.7891 65.124 62.8371C65.0491 62.8843 64.9657 62.9078 64.874 62.9078ZM65.6224 62.3914V61.6124H65.7991V62.3561C65.7991 62.4251 65.816 62.4878 65.8496 62.5442C65.8833 62.6006 65.9283 62.6456 65.9847 62.6793C66.042 62.713 66.1047 62.7298 66.1729 62.7298C66.2419 62.7298 66.3042 62.713 66.3597 62.6793C66.4161 62.6456 66.4612 62.6006 66.4948 62.5442C66.5285 62.4878 66.5453 62.4251 66.5453 62.3561V61.6124H66.7221L66.7234 62.875H66.5466L66.5453 62.6982C66.5007 62.7622 66.4426 62.8131 66.3711 62.851C66.3004 62.8889 66.2229 62.9078 66.1388 62.9078C66.0437 62.9078 65.957 62.8847 65.8787 62.8384C65.8004 62.7921 65.7381 62.7298 65.6918 62.6515C65.6455 62.5732 65.6224 62.4865 65.6224 62.3914ZM68.0759 62.0934V62.875H67.8992V62.1288C67.8992 62.0598 67.8823 61.9971 67.8487 61.9407C67.815 61.8843 67.77 61.8392 67.7136 61.8056C67.6572 61.7719 67.5945 61.7551 67.5254 61.7551C67.4572 61.7551 67.3945 61.7719 67.3373 61.8056C67.2809 61.8392 67.2359 61.8843 67.2022 61.9407C67.1685 61.9971 67.1517 62.0598 67.1517 62.1288V62.875H66.9749V61.6124H67.1517V61.7866C67.1963 61.7227 67.2544 61.6717 67.3259 61.6339C67.3975 61.596 67.4753 61.577 67.5595 61.577C67.6546 61.577 67.7413 61.6002 67.8196 61.6465C67.8979 61.6928 67.9602 61.7551 68.0065 61.8333C68.0528 61.9116 68.0759 61.9983 68.0759 62.0934Z" fill="#656565"/>
<path d="M73.9208 62.9078C73.8636 62.9078 73.8076 62.8981 73.7529 62.8788C73.699 62.8603 73.6498 62.8317 73.6052 62.7929L73.7176 62.6566C73.7445 62.6793 73.7752 62.6974 73.8097 62.7109C73.8442 62.7243 73.8813 62.7311 73.9208 62.7311C73.9798 62.7311 74.0332 62.7155 74.0812 62.6843C74.1292 62.6524 74.1675 62.6111 74.1961 62.5606C74.2256 62.5093 74.2403 62.4546 74.2403 62.3965V61.1073H74.417V62.3965C74.417 62.4874 74.3947 62.5716 74.3501 62.649C74.3055 62.7264 74.2458 62.7891 74.1708 62.8371C74.0959 62.8843 74.0126 62.9078 73.9208 62.9078ZM74.6692 62.3914V61.6124H74.846V62.3561C74.846 62.4251 74.8628 62.4878 74.8965 62.5442C74.9302 62.6006 74.9752 62.6456 75.0316 62.6793C75.0888 62.713 75.1516 62.7298 75.2197 62.7298C75.2888 62.7298 75.351 62.713 75.4066 62.6793C75.463 62.6456 75.508 62.6006 75.5417 62.5442C75.5754 62.4878 75.5922 62.4251 75.5922 62.3561V61.6124H75.769L75.7702 62.875H75.5935L75.5922 62.6982C75.5476 62.7622 75.4895 62.8131 75.418 62.851C75.3473 62.8889 75.2698 62.9078 75.1856 62.9078C75.0905 62.9078 75.0038 62.8847 74.9255 62.8384C74.8473 62.7921 74.785 62.7298 74.7387 62.6515C74.6924 62.5732 74.6692 62.4865 74.6692 62.3914ZM76.0391 62.875V60.9811H76.2158V62.875H76.0391Z" fill="#656565"/>
<path d="M82.3491 61.1073H82.5688L83.2128 62.875H83.0246L82.887 62.4962H82.0322L81.8946 62.875H81.7065L82.3491 61.1073ZM82.0966 62.3195H82.8214L82.459 61.3245L82.0966 62.3195ZM83.3316 62.3914V61.6124H83.5084V62.3561C83.5084 62.4251 83.5252 62.4878 83.5589 62.5442C83.5925 62.6006 83.6376 62.6456 83.694 62.6793C83.7512 62.713 83.8139 62.7298 83.8821 62.7298C83.9511 62.7298 84.0134 62.713 84.069 62.6793C84.1254 62.6456 84.1704 62.6006 84.2041 62.5442C84.2377 62.4878 84.2546 62.4251 84.2546 62.3561V61.6124H84.4313L84.4326 62.875H84.2558L84.2546 62.6982C84.2099 62.7622 84.1519 62.8131 84.0803 62.851C84.0096 62.8889 83.9322 62.9078 83.848 62.9078C83.7529 62.9078 83.6662 62.8847 83.5879 62.8384C83.5096 62.7921 83.4473 62.7298 83.401 62.6515C83.3547 62.5732 83.3316 62.4865 83.3316 62.3914ZM85.6781 61.6124H85.8548V62.9217C85.8548 63.0025 85.8372 63.0783 85.8018 63.149C85.7673 63.2197 85.7202 63.2816 85.6604 63.3346C85.6015 63.3885 85.5341 63.4305 85.4584 63.4609C85.3826 63.4912 85.3039 63.5063 85.2223 63.5063C85.1347 63.5063 85.0501 63.4861 84.9685 63.4457C84.8868 63.4061 84.8157 63.3531 84.7551 63.2866C84.6953 63.2201 84.6528 63.1465 84.6276 63.0657L84.7905 62.9912C84.8065 63.0543 84.8363 63.1111 84.8801 63.1616C84.9247 63.213 84.9769 63.2534 85.0367 63.2828C85.0973 63.3131 85.1591 63.3283 85.2223 63.3283C85.2804 63.3283 85.3363 63.3173 85.3902 63.2954C85.4449 63.2744 85.4937 63.2454 85.5367 63.2083C85.5804 63.1713 85.6149 63.1279 85.6402 63.0783C85.6654 63.0295 85.6781 62.9773 85.6781 62.9217V62.6427C85.6343 62.7218 85.575 62.7858 85.5 62.8346C85.426 62.8834 85.3397 62.9078 85.2412 62.9078C85.1528 62.9078 85.0695 62.8906 84.9912 62.8561C84.9138 62.8215 84.8456 62.774 84.7867 62.7134C84.7278 62.6519 84.6815 62.5812 84.6478 62.5013C84.615 62.4213 84.5985 62.3354 84.5985 62.2437C84.5985 62.1519 84.615 62.0661 84.6478 61.9861C84.6815 61.9053 84.7278 61.8346 84.7867 61.774C84.8456 61.7126 84.9138 61.6646 84.9912 61.6301C85.0695 61.5956 85.1528 61.5783 85.2412 61.5783C85.3397 61.5783 85.426 61.6027 85.5 61.6515C85.575 61.6995 85.6343 61.7635 85.6781 61.8434V61.6124ZM85.2425 62.7361C85.33 62.7361 85.4054 62.7134 85.4685 62.6679C85.5325 62.6225 85.5817 62.5623 85.6162 62.4874C85.6507 62.4125 85.668 62.3312 85.668 62.2437C85.668 62.1536 85.6503 62.0716 85.6149 61.9975C85.5804 61.9226 85.5312 61.8628 85.4672 61.8182C85.4032 61.7727 85.3283 61.75 85.2425 61.75C85.1566 61.75 85.0783 61.7723 85.0076 61.8169C84.9378 61.8607 84.8822 61.92 84.841 61.995C84.7997 62.0699 84.7791 62.1528 84.7791 62.2437C84.7791 62.3346 84.8001 62.4175 84.8422 62.4924C84.8843 62.5665 84.9403 62.6258 85.0102 62.6705C85.0809 62.7142 85.1583 62.7361 85.2425 62.7361Z" fill="#656565"/>
<path d="M92.4252 62.9078C92.3309 62.9078 92.2396 62.8931 92.1512 62.8636C92.0637 62.8342 91.9871 62.7921 91.9214 62.7374C91.8557 62.6827 91.8094 62.6174 91.7825 62.5417L91.9479 62.4798C91.9664 62.532 92.0001 62.577 92.0489 62.6149C92.0986 62.6519 92.1562 62.6806 92.2219 62.7008C92.2884 62.721 92.3562 62.7311 92.4252 62.7311C92.506 62.7311 92.5813 62.7176 92.6512 62.6907C92.7211 62.6637 92.7774 62.6263 92.8204 62.5783C92.8633 62.5295 92.8848 62.4722 92.8848 62.4066C92.8848 62.3401 92.8625 62.2854 92.8179 62.2424C92.7732 62.1995 92.7156 62.1658 92.6449 62.1414C92.575 62.1162 92.5018 62.0968 92.4252 62.0833C92.3048 62.0623 92.1966 62.0337 92.1007 61.9975C92.0056 61.9613 91.9302 61.9104 91.8747 61.8447C91.8191 61.7782 91.7913 61.6907 91.7913 61.5821C91.7913 61.4802 91.8208 61.3919 91.8797 61.3169C91.9387 61.242 92.0161 61.1839 92.1121 61.1427C92.2089 61.1015 92.3132 61.0808 92.4252 61.0808C92.5169 61.0808 92.6066 61.0951 92.6941 61.1238C92.7817 61.1524 92.8587 61.194 92.9252 61.2488C92.9925 61.3035 93.0409 61.3704 93.0704 61.4495L92.9024 61.5101C92.8839 61.4571 92.8498 61.4121 92.8002 61.375C92.7514 61.3371 92.6941 61.3085 92.6285 61.2892C92.5628 61.269 92.495 61.2589 92.4252 61.2589C92.3452 61.258 92.2703 61.2715 92.2004 61.2993C92.1314 61.3262 92.0754 61.3641 92.0325 61.4129C91.9896 61.4609 91.9681 61.5173 91.9681 61.5821C91.9681 61.6578 91.9879 61.7163 92.0275 61.7576C92.0679 61.798 92.1226 61.8283 92.1916 61.8485C92.2606 61.8687 92.3385 61.8868 92.4252 61.9028C92.538 61.9222 92.6428 61.9525 92.7396 61.9937C92.8364 62.0341 92.9142 62.0884 92.9732 62.1566C93.0321 62.2239 93.0615 62.3072 93.0615 62.4066C93.0615 62.5076 93.0321 62.596 92.9732 62.6717C92.9142 62.7466 92.8364 62.8047 92.7396 62.846C92.6436 62.8872 92.5388 62.9078 92.4252 62.9078ZM93.8873 62.9078C93.7712 62.9078 93.6651 62.8779 93.5691 62.8182C93.474 62.7584 93.3978 62.6785 93.3406 62.5783C93.2842 62.4773 93.256 62.3657 93.256 62.2437C93.256 62.1511 93.2724 62.0648 93.3053 61.9849C93.3381 61.9041 93.3831 61.8333 93.4404 61.7727C93.4984 61.7113 93.5658 61.6633 93.6424 61.6288C93.719 61.5943 93.8006 61.577 93.8873 61.577C93.9808 61.577 94.0666 61.5956 94.1449 61.6326C94.224 61.6696 94.2918 61.7214 94.3482 61.7879C94.4054 61.8544 94.4483 61.9323 94.477 62.0215C94.5064 62.1107 94.5186 62.2071 94.5136 62.3106H93.4429C93.453 62.3906 93.4782 62.4621 93.5186 62.5253C93.5599 62.5884 93.6121 62.6385 93.6752 62.6755C93.7392 62.7117 93.8099 62.7302 93.8873 62.7311C93.9715 62.7311 94.0473 62.7092 94.1146 62.6654C94.1828 62.6216 94.2375 62.5615 94.2787 62.4849L94.458 62.5265C94.4075 62.6385 94.3313 62.7302 94.2295 62.8018C94.1276 62.8725 94.0136 62.9078 93.8873 62.9078ZM93.4378 62.1679H94.3355C94.3297 62.0897 94.3057 62.0181 94.2636 61.9533C94.2223 61.8876 94.1689 61.8355 94.1032 61.7967C94.0376 61.7572 93.9656 61.7374 93.8873 61.7374C93.809 61.7374 93.7375 61.7567 93.6727 61.7955C93.6079 61.8333 93.5548 61.8851 93.5136 61.9508C93.4723 62.0156 93.4471 62.088 93.4378 62.1679ZM94.9068 63.5063H94.73V61.6124H94.9068V61.8485C94.9505 61.7685 95.0103 61.7037 95.0861 61.6541C95.1618 61.6044 95.2519 61.5796 95.3563 61.5796C95.448 61.5796 95.5339 61.5968 95.6138 61.6313C95.6946 61.6658 95.7654 61.7138 95.826 61.7753C95.8866 61.8359 95.9341 61.9062 95.9686 61.9861C96.0031 62.0661 96.0204 62.1519 96.0204 62.2437C96.0204 62.3354 96.0031 62.4217 95.9686 62.5025C95.9341 62.5833 95.8866 62.6545 95.826 62.7159C95.7654 62.7765 95.6946 62.8241 95.6138 62.8586C95.5339 62.8931 95.448 62.9104 95.3563 62.9104C95.2519 62.9104 95.1618 62.8855 95.0861 62.8359C95.0103 62.7862 94.9505 62.7214 94.9068 62.6414V63.5063ZM95.355 61.7513C95.2666 61.7513 95.1896 61.7736 95.1239 61.8182C95.0591 61.862 95.0091 61.9209 94.9737 61.995C94.9383 62.069 94.9207 62.1519 94.9207 62.2437C94.9207 62.3338 94.9379 62.4163 94.9724 62.4912C95.0078 62.5661 95.0579 62.6258 95.1227 62.6705C95.1883 62.7151 95.2658 62.7374 95.355 62.7374C95.4425 62.7374 95.5229 62.7155 95.5962 62.6717C95.6702 62.6279 95.7296 62.569 95.7742 62.495C95.8188 62.42 95.8411 62.3363 95.8411 62.2437C95.8411 62.1536 95.8192 62.0716 95.7755 61.9975C95.7317 61.9226 95.6732 61.8628 95.6 61.8182C95.5267 61.7736 95.4451 61.7513 95.355 61.7513Z" fill="#656565"/>
<path d="M102.679 62.9078C102.56 62.9078 102.447 62.8843 102.342 62.8371C102.237 62.7891 102.144 62.7231 102.064 62.6389C101.984 62.5547 101.922 62.4575 101.876 62.3472C101.831 62.2361 101.808 62.1174 101.808 61.9912C101.808 61.8649 101.831 61.7466 101.876 61.6364C101.922 61.5253 101.984 61.4276 102.064 61.3435C102.144 61.2593 102.237 61.1936 102.342 61.1465C102.447 61.0985 102.56 61.0745 102.679 61.0745C102.8 61.0745 102.912 61.0985 103.018 61.1465C103.123 61.1936 103.215 61.2593 103.295 61.3435C103.375 61.4276 103.438 61.5253 103.482 61.6364C103.528 61.7466 103.55 61.8649 103.55 61.9912C103.55 62.1174 103.528 62.2361 103.482 62.3472C103.438 62.4575 103.375 62.5547 103.295 62.6389C103.215 62.7231 103.123 62.7891 103.018 62.8371C102.912 62.8843 102.8 62.9078 102.679 62.9078ZM102.679 62.7311C102.776 62.7311 102.866 62.7117 102.949 62.673C103.034 62.6334 103.107 62.5795 103.17 62.5114C103.234 62.4432 103.284 62.3645 103.319 62.2753C103.356 62.186 103.374 62.0913 103.374 61.9912C103.374 61.8902 103.356 61.795 103.319 61.7058C103.283 61.6158 103.233 61.5371 103.169 61.4697C103.106 61.4015 103.032 61.3481 102.948 61.3094C102.865 61.2706 102.775 61.2513 102.679 61.2513C102.582 61.2513 102.492 61.2711 102.408 61.3106C102.324 61.3493 102.251 61.4028 102.187 61.471C102.124 61.5392 102.074 61.6179 102.038 61.7071C102.002 61.7963 101.985 61.891 101.985 61.9912C101.985 62.093 102.003 62.1886 102.039 62.2778C102.075 62.367 102.125 62.4457 102.188 62.5139C102.252 62.5821 102.326 62.6355 102.409 62.6742C102.493 62.7121 102.583 62.7311 102.679 62.7311ZM104.686 62.5581L104.844 62.6439C104.787 62.7239 104.714 62.7879 104.625 62.8359C104.538 62.8838 104.443 62.9078 104.34 62.9078C104.224 62.9078 104.118 62.8779 104.022 62.8182C103.927 62.7584 103.851 62.6785 103.793 62.5783C103.737 62.4773 103.709 62.3657 103.709 62.2437C103.709 62.1511 103.725 62.0648 103.758 61.9849C103.791 61.9041 103.836 61.8333 103.893 61.7727C103.951 61.7113 104.019 61.6633 104.095 61.6288C104.172 61.5943 104.253 61.577 104.34 61.577C104.443 61.577 104.538 61.601 104.625 61.649C104.714 61.697 104.787 61.7614 104.844 61.8422L104.686 61.9268C104.642 61.8712 104.59 61.8287 104.528 61.7993C104.467 61.769 104.404 61.7538 104.34 61.7538C104.255 61.7538 104.178 61.7765 104.109 61.822C104.04 61.8666 103.985 61.9259 103.945 62C103.905 62.0741 103.886 62.1553 103.886 62.2437C103.886 62.3321 103.906 62.4133 103.946 62.4874C103.987 62.5615 104.043 62.6208 104.112 62.6654C104.181 62.7092 104.257 62.7311 104.34 62.7311C104.409 62.7311 104.474 62.7151 104.535 62.6831C104.595 62.6511 104.646 62.6094 104.686 62.5581ZM105.717 61.7892H105.415L105.414 62.875H105.237L105.238 61.7892H105.01V61.6124H105.238L105.237 61.2159H105.414L105.415 61.6124H105.717V61.7892Z" fill="#656565"/>
<path d="M111.909 62.875V61.1073H112.101L113.034 62.5556V61.1073H113.211V62.875H113.02L112.086 61.4268V62.875H111.909ZM114.06 62.9078C113.944 62.9078 113.838 62.8779 113.742 62.8182C113.647 62.7584 113.571 62.6785 113.514 62.5783C113.457 62.4773 113.429 62.3657 113.429 62.2437C113.429 62.1511 113.446 62.0648 113.478 61.9849C113.511 61.9041 113.556 61.8333 113.613 61.7727C113.672 61.7113 113.739 61.6633 113.815 61.6288C113.892 61.5943 113.974 61.577 114.06 61.577C114.177 61.577 114.282 61.6069 114.377 61.6667C114.473 61.7264 114.549 61.8068 114.606 61.9078C114.663 62.0088 114.692 62.1208 114.692 62.2437C114.692 62.3354 114.675 62.4213 114.642 62.5013C114.61 62.5812 114.564 62.6519 114.506 62.7134C114.449 62.774 114.382 62.8215 114.305 62.8561C114.23 62.8906 114.148 62.9078 114.06 62.9078ZM114.06 62.7311C114.146 62.7311 114.223 62.7088 114.291 62.6641C114.36 62.6187 114.415 62.5589 114.454 62.4849C114.495 62.4108 114.515 62.3304 114.515 62.2437C114.515 62.1553 114.495 62.0741 114.454 62C114.414 61.9251 114.359 61.8653 114.29 61.8207C114.222 61.7761 114.145 61.7538 114.06 61.7538C113.975 61.7538 113.897 61.7765 113.828 61.822C113.76 61.8666 113.706 61.9259 113.665 62C113.626 62.0741 113.606 62.1553 113.606 62.2437C113.606 62.3346 113.626 62.4171 113.668 62.4912C113.709 62.5644 113.764 62.6229 113.833 62.6667C113.902 62.7096 113.978 62.7311 114.06 62.7311ZM115.461 62.875H115.236L114.776 61.6086H114.964L115.349 62.6679L115.734 61.6086H115.922L115.461 62.875Z" fill="#656565"/>
<path d="M121.96 62.875V61.1073H122.545C122.667 61.1073 122.781 61.1305 122.888 61.1768C122.995 61.2222 123.089 61.2858 123.17 61.3674C123.25 61.4483 123.314 61.5421 123.359 61.649C123.405 61.7551 123.429 61.8691 123.429 61.9912C123.429 62.1132 123.405 62.2277 123.359 62.3346C123.314 62.4407 123.25 62.5345 123.17 62.6162C123.089 62.697 122.995 62.7605 122.888 62.8068C122.781 62.8523 122.667 62.875 122.545 62.875H121.96ZM122.137 62.6982H122.545C122.642 62.6982 122.734 62.6801 122.819 62.6439C122.905 62.6069 122.98 62.556 123.045 62.4912C123.11 62.4264 123.16 62.3514 123.196 62.2664C123.233 62.1806 123.252 62.0888 123.252 61.9912C123.252 61.8935 123.233 61.8022 123.196 61.7172C123.16 61.6313 123.109 61.556 123.043 61.4912C122.979 61.4264 122.904 61.3759 122.819 61.3397C122.734 61.3026 122.642 61.2841 122.545 61.2841H122.137V62.6982ZM124.195 62.9078C124.079 62.9078 123.973 62.8779 123.877 62.8182C123.782 62.7584 123.706 62.6785 123.648 62.5783C123.592 62.4773 123.564 62.3657 123.564 62.2437C123.564 62.1511 123.58 62.0648 123.613 61.9849C123.646 61.9041 123.691 61.8333 123.748 61.7727C123.806 61.7113 123.873 61.6633 123.95 61.6288C124.027 61.5943 124.108 61.577 124.195 61.577C124.288 61.577 124.374 61.5956 124.453 61.6326C124.532 61.6696 124.599 61.7214 124.656 61.7879C124.713 61.8544 124.756 61.9323 124.785 62.0215C124.814 62.1107 124.826 62.2071 124.821 62.3106H123.751C123.761 62.3906 123.786 62.4621 123.826 62.5253C123.868 62.5884 123.92 62.6385 123.983 62.6755C124.047 62.7117 124.118 62.7302 124.195 62.7311C124.279 62.7311 124.355 62.7092 124.422 62.6654C124.49 62.6216 124.545 62.5615 124.586 62.4849L124.766 62.5265C124.715 62.6385 124.639 62.7302 124.537 62.8018C124.435 62.8725 124.321 62.9078 124.195 62.9078ZM123.746 62.1679H124.643C124.637 62.0897 124.613 62.0181 124.571 61.9533C124.53 61.8876 124.477 61.8355 124.411 61.7967C124.345 61.7572 124.273 61.7374 124.195 61.7374C124.117 61.7374 124.045 61.7567 123.98 61.7955C123.916 61.8333 123.863 61.8851 123.821 61.9508C123.78 62.0156 123.755 62.088 123.746 62.1679ZM125.927 62.5581L126.085 62.6439C126.027 62.7239 125.955 62.7879 125.866 62.8359C125.779 62.8838 125.684 62.9078 125.581 62.9078C125.465 62.9078 125.359 62.8779 125.263 62.8182C125.168 62.7584 125.091 62.6785 125.034 62.5783C124.978 62.4773 124.95 62.3657 124.95 62.2437C124.95 62.1511 124.966 62.0648 124.999 61.9849C125.032 61.9041 125.077 61.8333 125.134 61.7727C125.192 61.7113 125.259 61.6633 125.336 61.6288C125.413 61.5943 125.494 61.577 125.581 61.577C125.684 61.577 125.779 61.601 125.866 61.649C125.955 61.697 126.027 61.7614 126.085 61.8422L125.927 61.9268C125.883 61.8712 125.831 61.8287 125.769 61.7993C125.708 61.769 125.645 61.7538 125.581 61.7538C125.496 61.7538 125.419 61.7765 125.35 61.822C125.281 61.8666 125.226 61.9259 125.186 62C125.146 62.0741 125.126 62.1553 125.126 62.2437C125.126 62.3321 125.147 62.4133 125.187 62.4874C125.228 62.5615 125.283 62.6208 125.352 62.6654C125.421 62.7092 125.498 62.7311 125.581 62.7311C125.65 62.7311 125.715 62.7151 125.775 62.6831C125.836 62.6511 125.886 62.6094 125.927 62.5581Z" fill="#656565"/>
<path d="M16.2539 47.1953H20.8835V56.0336H16.2539V47.1953Z" fill="#003E79"/>
<path d="M16.2539 44.0352H20.8835V47.1917H16.2539V44.0352Z" fill="#26EEC8"/>
<path d="M16.2539 43.1953H20.8835V44.0371H16.2539V43.1953Z" fill="#B2E4FF"/>
<path d="M63.6016 44.0352H68.2311V47.1917H63.6016V44.0352Z" fill="#26EEC8"/>
<path d="M63.6016 43.1953H68.2311V44.0371H63.6016V43.1953Z" fill="#B2E4FF"/>
<path d="M72.4414 45.5117H77.071V47.1952H72.4414V45.5117Z" fill="#26EEC8"/>
<path d="M72.4414 43.1953H77.071V45.5101H72.4414V43.1953Z" fill="#B2E4FF"/>
<path d="M34.7734 43.1953H39.403V46.3518H34.7734V43.1953Z" fill="#26EEC8"/>
<path d="M34.7734 41.7227H39.403V43.1957H34.7734V41.7227Z" fill="#B2E4FF"/>
<path d="M44.2422 48.8789H48.8718V51.1937H44.2422V48.8789Z" fill="#26EEC8"/>
<path d="M44.2422 47.1953H48.8718V48.8788H44.2422V47.1953Z" fill="#B2E4FF"/>
<path d="M53.9219 40.0391H58.5514V43.8269H53.9219V40.0391Z" fill="#26EEC8"/>
<path d="M53.9219 38.3555H58.5514V40.0389H53.9219V38.3555Z" fill="#B2E4FF"/>
<path d="M81.4883 33.3047H86.1178V37.0925H81.4883V33.3047Z" fill="#26EEC8"/>
<path d="M81.4883 31.6211H86.1178V33.3046H81.4883V31.6211Z" fill="#B2E4FF"/>
<path d="M91.168 26.9922H95.7975V30.78H91.168V26.9922Z" fill="#26EEC8"/>
<path d="M91.168 25.3086H95.7975V26.9921H91.168V25.3086Z" fill="#B2E4FF"/>
<path d="M25.0938 51.6133H29.7233V53.5072H25.0938V51.6133Z" fill="#26EEC8"/>
<path d="M25.0938 50.3516H29.7233V51.6142H25.0938V50.3516Z" fill="#B2E4FF"/>
<path d="M25.0938 53.5078H29.7233V56.033H25.0938V53.5078Z" fill="#003E79"/>
<path d="M34.7734 46.3516H39.403V56.0316H34.7734V46.3516Z" fill="#003E79"/>
<path d="M44.2422 51.1953H48.8718V56.0353H44.2422V51.1953Z" fill="#003E79"/>
<path d="M53.9219 43.8281H58.5514V56.0333H53.9219V43.8281Z" fill="#003E79"/>
<path d="M72.4414 47.1953H77.071V56.0336H72.4414V47.1953Z" fill="#003E79"/>
<path d="M63.6016 47.1953H68.2311V56.0336H63.6016V47.1953Z" fill="#003E79"/>
<path d="M81.4883 37.0938H86.1178V56.0329H81.4883V37.0938Z" fill="#003E79"/>
<path d="M91.168 30.7812H95.7975V56.0334H91.168V30.7812Z" fill="#003E79"/>
<path d="M71.691 10.8945L71.239 9.12688H71.4208L71.7946 10.5902L72.167 9.12688H72.3236L72.6973 10.5902L73.0698 9.12688H73.2516L72.8021 10.8945H72.5925L72.2453 9.53723L71.8981 10.8945H71.691ZM73.3731 9.63192H73.5498V10.8945H73.3731V9.63192ZM73.4627 9.41097C73.4341 9.41097 73.4097 9.40171 73.3895 9.38319C73.3701 9.36383 73.3605 9.33984 73.3605 9.31122C73.3605 9.2826 73.3701 9.25903 73.3895 9.24051C73.4097 9.22115 73.4341 9.21147 73.4627 9.21147C73.4905 9.21147 73.5141 9.22115 73.5334 9.24051C73.5536 9.25903 73.5637 9.2826 73.5637 9.31122C73.5637 9.33984 73.5541 9.36383 73.5347 9.38319C73.5153 9.40171 73.4913 9.41097 73.4627 9.41097ZM74.95 10.113V10.8945H74.7733V10.1483C74.7733 10.0793 74.7564 10.0166 74.7227 9.9602C74.6891 9.9038 74.644 9.85877 74.5876 9.8251C74.5313 9.79143 74.4685 9.7746 74.3995 9.7746C74.3313 9.7746 74.2686 9.79143 74.2114 9.8251C74.155 9.85877 74.11 9.9038 74.0763 9.9602C74.0426 10.0166 74.0258 10.0793 74.0258 10.1483V10.8945H73.849V9.63192H74.0258V9.80616C74.0704 9.74219 74.1285 9.69126 74.2 9.65339C74.2716 9.61551 74.3494 9.59657 74.4336 9.59657C74.5287 9.59657 74.6154 9.61972 74.6937 9.66601C74.772 9.71231 74.8343 9.7746 74.8806 9.85288C74.9269 9.93116 74.95 10.0179 74.95 10.113ZM76.3039 10.113V10.8945H76.1271V10.1483C76.1271 10.0793 76.1103 10.0166 76.0766 9.9602C76.0429 9.9038 75.9979 9.85877 75.9415 9.8251C75.8851 9.79143 75.8224 9.7746 75.7534 9.7746C75.6852 9.7746 75.6225 9.79143 75.5652 9.8251C75.5088 9.85877 75.4638 9.9038 75.4301 9.9602C75.3965 10.0166 75.3796 10.0793 75.3796 10.1483V10.8945H75.2029V9.63192H75.3796V9.80616C75.4243 9.74219 75.4823 9.69126 75.5539 9.65339C75.6254 9.61551 75.7033 9.59657 75.7875 9.59657C75.8826 9.59657 75.9693 9.61972 76.0476 9.66601C76.1258 9.71231 76.1881 9.7746 76.2344 9.85288C76.2807 9.93116 76.3039 10.0179 76.3039 10.113ZM76.5567 9.63192H76.7335V10.8945H76.5567V9.63192ZM76.6464 9.41097C76.6178 9.41097 76.5933 9.40171 76.5731 9.38319C76.5538 9.36383 76.5441 9.33984 76.5441 9.31122C76.5441 9.2826 76.5538 9.25903 76.5731 9.24051C76.5933 9.22115 76.6178 9.21147 76.6464 9.21147C76.6741 9.21147 76.6977 9.22115 76.7171 9.24051C76.7373 9.25903 76.7474 9.2826 76.7474 9.31122C76.7474 9.33984 76.7377 9.36383 76.7183 9.38319C76.699 9.40171 76.675 9.41097 76.6464 9.41097ZM78.1337 10.113V10.8945H77.9569V10.1483C77.9569 10.0793 77.9401 10.0166 77.9064 9.9602C77.8727 9.9038 77.8277 9.85877 77.7713 9.8251C77.7149 9.79143 77.6522 9.7746 77.5832 9.7746C77.515 9.7746 77.4523 9.79143 77.395 9.8251C77.3386 9.85877 77.2936 9.9038 77.2599 9.9602C77.2263 10.0166 77.2094 10.0793 77.2094 10.1483V10.8945H77.0327V9.63192H77.2094V9.80616C77.254 9.74219 77.3121 9.69126 77.3837 9.65339C77.4552 9.61551 77.5331 9.59657 77.6173 9.59657C77.7124 9.59657 77.7991 9.61972 77.8774 9.66601C77.9556 9.71231 78.0179 9.7746 78.0642 9.85288C78.1105 9.93116 78.1337 10.0179 78.1337 10.113ZM79.3656 9.63192H79.5424V10.9412C79.5424 11.0221 79.5247 11.0978 79.4894 11.1685C79.4549 11.2392 79.4077 11.3011 79.348 11.3541C79.289 11.408 79.2217 11.4501 79.1459 11.4804C79.0702 11.5107 78.9915 11.5258 78.9098 11.5258C78.8223 11.5258 78.7377 11.5056 78.6561 11.4652C78.5744 11.4257 78.5033 11.3726 78.4427 11.3061C78.3829 11.2396 78.3404 11.166 78.3151 11.0852L78.478 11.0107C78.494 11.0738 78.5239 11.1306 78.5677 11.1811C78.6123 11.2325 78.6645 11.2729 78.7242 11.3024C78.7848 11.3327 78.8467 11.3478 78.9098 11.3478C78.9679 11.3478 79.0239 11.3369 79.0778 11.315C79.1325 11.2939 79.1813 11.2649 79.2242 11.2279C79.268 11.1908 79.3025 11.1475 79.3278 11.0978C79.353 11.049 79.3656 10.9968 79.3656 10.9412V10.6622C79.3219 10.7413 79.2625 10.8053 79.1876 10.8541C79.1135 10.9029 79.0273 10.9274 78.9288 10.9274C78.8404 10.9274 78.7571 10.9101 78.6788 10.8756C78.6013 10.8411 78.5332 10.7935 78.4742 10.7329C78.4153 10.6715 78.369 10.6008 78.3353 10.5208C78.3025 10.4408 78.2861 10.355 78.2861 10.2632C78.2861 10.1715 78.3025 10.0856 78.3353 10.0057C78.369 9.92485 78.4153 9.85414 78.4742 9.79354C78.5332 9.73209 78.6013 9.68411 78.6788 9.6496C78.7571 9.61509 78.8404 9.59783 78.9288 9.59783C79.0273 9.59783 79.1135 9.62224 79.1876 9.67106C79.2625 9.71904 79.3219 9.78301 79.3656 9.86298V9.63192ZM78.93 10.7556C79.0176 10.7556 79.0929 10.7329 79.156 10.6875C79.22 10.642 79.2693 10.5818 79.3038 10.5069C79.3383 10.432 79.3555 10.3508 79.3555 10.2632C79.3555 10.1732 79.3379 10.0911 79.3025 10.017C79.268 9.9421 79.2188 9.88234 79.1548 9.83773C79.0908 9.79227 79.0159 9.76955 78.93 9.76955C78.8442 9.76955 78.7659 9.79185 78.6952 9.83646C78.6253 9.88023 78.5698 9.93958 78.5285 10.0145C78.4873 10.0894 78.4667 10.1723 78.4667 10.2632C78.4667 10.3541 78.4877 10.437 78.5298 10.512C78.5719 10.586 78.6279 10.6454 78.6977 10.69C78.7684 10.7338 78.8459 10.7556 78.93 10.7556ZM80.4531 10.8945V9.12688H81.0503C81.1361 9.12688 81.214 9.14455 81.2839 9.17991C81.3546 9.21442 81.4105 9.26534 81.4518 9.33268C81.4939 9.39918 81.5149 9.47999 81.5149 9.5751C81.5149 9.62898 81.5052 9.68032 81.4859 9.72914C81.4665 9.77796 81.4413 9.81963 81.4101 9.85414C81.379 9.88781 81.3453 9.9097 81.3091 9.9198C81.3613 9.93326 81.4063 9.95683 81.4442 9.9905C81.4821 10.0233 81.5132 10.0625 81.5376 10.1079C81.5621 10.1525 81.5797 10.1997 81.5907 10.2493C81.6025 10.299 81.6083 10.3478 81.6083 10.3958C81.6083 10.4951 81.5865 10.5822 81.5427 10.6572C81.4998 10.7321 81.4421 10.7906 81.3697 10.8327C81.2973 10.8739 81.2169 10.8945 81.1286 10.8945H80.4531ZM80.6298 10.7367H81.1147C81.1761 10.7367 81.2317 10.7207 81.2813 10.6887C81.3318 10.6567 81.3718 10.613 81.4013 10.5574C81.4316 10.5019 81.4467 10.4392 81.4467 10.3693C81.4467 10.307 81.4316 10.2485 81.4013 10.1938C81.3718 10.1382 81.3318 10.0936 81.2813 10.0599C81.2317 10.0254 81.1761 10.0082 81.1147 10.0082H80.6298V10.7367ZM80.6298 9.85288H81.0351C81.1185 9.85288 81.1896 9.82889 81.2485 9.78091C81.3083 9.73209 81.3382 9.66307 81.3382 9.57384C81.3382 9.4762 81.3083 9.40381 81.2485 9.35667C81.1896 9.30869 81.1185 9.2847 81.0351 9.2847H80.6298V9.85288ZM82.3674 10.9274C82.2512 10.9274 82.1452 10.8975 82.0492 10.8377C81.9541 10.778 81.8779 10.698 81.8207 10.5978C81.7643 10.4968 81.7361 10.3853 81.7361 10.2632C81.7361 10.1706 81.7525 10.0844 81.7853 10.0044C81.8182 9.92358 81.8632 9.85288 81.9204 9.79227C81.9785 9.73083 82.0458 9.68285 82.1224 9.64834C82.199 9.61382 82.2807 9.59657 82.3674 9.59657C82.4608 9.59657 82.5467 9.61509 82.625 9.65212C82.7041 9.68916 82.7718 9.74093 82.8282 9.80742C82.8855 9.87392 82.9284 9.95178 82.957 10.041C82.9865 10.1302 82.9987 10.2266 82.9936 10.3301H81.923C81.9331 10.4101 81.9583 10.4817 81.9987 10.5448C82.04 10.6079 82.0921 10.658 82.1553 10.695C82.2192 10.7312 82.29 10.7498 82.3674 10.7506C82.4516 10.7506 82.5273 10.7287 82.5947 10.6849C82.6628 10.6412 82.7176 10.581 82.7588 10.5044L82.9381 10.5461C82.8876 10.658 82.8114 10.7498 82.7096 10.8213C82.6077 10.892 82.4937 10.9274 82.3674 10.9274ZM81.9179 10.1875H82.8156C82.8097 10.1092 82.7857 10.0376 82.7437 9.97283C82.7024 9.90717 82.649 9.85498 82.5833 9.81626C82.5176 9.7767 82.4457 9.75692 82.3674 9.75692C82.2891 9.75692 82.2176 9.77628 82.1528 9.815C82.0879 9.85288 82.0349 9.90465 81.9937 9.9703C81.9524 10.0351 81.9272 10.1075 81.9179 10.1875ZM83.8331 9.80869H83.5313L83.5301 10.8945H83.3533L83.3546 9.80869H83.126V9.63192H83.3546L83.3533 9.23546H83.5301L83.5313 9.63192H83.8331V9.80869ZM84.4387 10.9185C84.3697 10.9168 84.3023 10.9042 84.2367 10.8806C84.171 10.8571 84.1138 10.8251 84.065 10.7847C84.0161 10.7443 83.9812 10.6984 83.9602 10.6471L84.1129 10.5814C84.1264 10.6142 84.1512 10.6445 84.1874 10.6723C84.2245 10.6992 84.2665 10.7211 84.3137 10.738C84.3608 10.754 84.4075 10.762 84.4538 10.762C84.5052 10.762 84.5532 10.7535 84.5978 10.7367C84.6424 10.7199 84.6786 10.6959 84.7064 10.6647C84.735 10.6328 84.7493 10.5953 84.7493 10.5524C84.7493 10.5061 84.7341 10.4699 84.7038 10.4438C84.6735 10.4168 84.6352 10.3958 84.5889 10.3806C84.5426 10.3647 84.4951 10.3495 84.4463 10.3352C84.357 10.3108 84.2783 10.2838 84.2102 10.2544C84.142 10.2249 84.0885 10.1875 84.0498 10.142C84.0119 10.0957 83.993 10.0364 83.993 9.96399C83.993 9.88739 84.0144 9.82131 84.0574 9.76576C84.1011 9.70936 84.158 9.66601 84.2278 9.63571C84.2985 9.60457 84.3739 9.58899 84.4538 9.58899C84.5565 9.58899 84.65 9.6113 84.7341 9.65591C84.8192 9.70052 84.8806 9.75987 84.9185 9.83394L84.7758 9.91853C84.7607 9.88402 84.7367 9.85414 84.7038 9.82889C84.671 9.80364 84.6335 9.78386 84.5915 9.76955C84.5502 9.75524 84.5081 9.74766 84.4652 9.74682C84.4113 9.74598 84.3612 9.75397 84.3149 9.77081C84.2687 9.7868 84.2312 9.81079 84.2026 9.84278C84.1748 9.87476 84.1609 9.9139 84.1609 9.9602C84.1609 10.0065 84.1748 10.0418 84.2026 10.0663C84.2304 10.0898 84.2678 10.1092 84.3149 10.1243C84.3629 10.1386 84.4168 10.1555 84.4766 10.1748C84.5532 10.1993 84.6251 10.227 84.6925 10.2582C84.7598 10.2893 84.8141 10.328 84.8553 10.3743C84.8966 10.4206 84.9168 10.4791 84.916 10.5498C84.916 10.6256 84.8932 10.6917 84.8478 10.7481C84.8023 10.8045 84.7434 10.8478 84.671 10.8781C84.5986 10.9076 84.5212 10.921 84.4387 10.9185Z" fill="#656565"/>
<path d="M68.6523 9.94922H69.915V11.2118H68.6523V9.94922Z" fill="#003E79"/>
<path d="M93.8353 10.9274C93.7411 10.9274 93.6497 10.9126 93.5613 10.8832C93.4738 10.8537 93.3972 10.8116 93.3316 10.7569C93.2659 10.7022 93.2196 10.637 93.1927 10.5612L93.3581 10.4993C93.3766 10.5515 93.4103 10.5966 93.4591 10.6344C93.5087 10.6715 93.5664 10.7001 93.6321 10.7203C93.6986 10.7405 93.7663 10.7506 93.8353 10.7506C93.9161 10.7506 93.9915 10.7371 94.0613 10.7102C94.1312 10.6833 94.1876 10.6458 94.2305 10.5978C94.2735 10.549 94.2949 10.4918 94.2949 10.4261C94.2949 10.3596 94.2726 10.3049 94.228 10.262C94.1834 10.219 94.1257 10.1854 94.055 10.161C93.9852 10.1357 93.9119 10.1163 93.8353 10.1029C93.715 10.0818 93.6068 10.0532 93.5108 10.017C93.4157 9.98082 93.3404 9.9299 93.2848 9.86424C93.2293 9.79774 93.2015 9.7102 93.2015 9.60162C93.2015 9.49977 93.231 9.41139 93.2899 9.33647C93.3488 9.26156 93.4262 9.20348 93.5222 9.16223C93.619 9.12099 93.7234 9.10036 93.8353 9.10036C93.9271 9.10036 94.0167 9.11467 94.1043 9.14329C94.1918 9.17191 94.2688 9.21358 94.3353 9.26829C94.4027 9.323 94.4511 9.38992 94.4805 9.46905L94.3126 9.52965C94.2941 9.47662 94.26 9.43159 94.2103 9.39455C94.1615 9.35667 94.1043 9.32805 94.0386 9.30869C93.973 9.28849 93.9052 9.27839 93.8353 9.27839C93.7554 9.27755 93.6805 9.29102 93.6106 9.31879C93.5416 9.34573 93.4856 9.38361 93.4427 9.43243C93.3997 9.48041 93.3783 9.53681 93.3783 9.60162C93.3783 9.67738 93.3981 9.73588 93.4376 9.77712C93.478 9.81753 93.5327 9.84783 93.6018 9.86803C93.6708 9.88823 93.7486 9.90633 93.8353 9.92232C93.9481 9.94168 94.0529 9.97198 94.1497 10.0132C94.2465 10.0536 94.3244 10.1079 94.3833 10.1761C94.4422 10.2434 94.4717 10.3268 94.4717 10.4261C94.4717 10.5271 94.4422 10.6155 94.3833 10.6913C94.3244 10.7662 94.2465 10.8242 94.1497 10.8655C94.0538 10.9067 93.949 10.9274 93.8353 10.9274ZM95.7798 9.63192H95.9566V10.8945H95.7798L95.7735 10.6597C95.7322 10.7397 95.6746 10.8045 95.6005 10.8541C95.5264 10.9029 95.438 10.9274 95.3354 10.9274C95.2428 10.9274 95.1561 10.9101 95.0753 10.8756C94.9945 10.8402 94.9233 10.7918 94.8619 10.7304C94.8004 10.6689 94.7525 10.5978 94.7179 10.517C94.6834 10.4362 94.6662 10.3495 94.6662 10.2569C94.6662 10.166 94.683 10.0806 94.7167 10.0006C94.7512 9.92064 94.7983 9.85035 94.8581 9.78975C94.9187 9.72914 94.9886 9.68201 95.0677 9.64834C95.1476 9.61382 95.2331 9.59657 95.324 9.59657C95.4292 9.59657 95.521 9.62182 95.5992 9.67233C95.6775 9.72199 95.7398 9.78722 95.7861 9.86803L95.7798 9.63192ZM95.3316 10.7556C95.4216 10.7556 95.4991 10.7338 95.5639 10.69C95.6287 10.6454 95.6784 10.5856 95.7129 10.5107C95.7482 10.4358 95.7659 10.3533 95.7659 10.2632C95.7659 10.1706 95.7482 10.0873 95.7129 10.0132C95.6775 9.93831 95.6274 9.87897 95.5626 9.8352C95.4978 9.79143 95.4208 9.76955 95.3316 9.76955C95.2423 9.76955 95.1607 9.79185 95.0866 9.83646C95.0134 9.88023 94.9549 9.93958 94.9111 10.0145C94.8682 10.0894 94.8467 10.1723 94.8467 10.2632C94.8467 10.355 94.869 10.4383 94.9136 10.5132C94.9583 10.5873 95.0172 10.6462 95.0904 10.69C95.1645 10.7338 95.2449 10.7556 95.3316 10.7556ZM96.2265 10.8945V9.00062H96.4032V10.8945H96.2265ZM97.7354 9.63192H97.9121V10.8945H97.7354L97.729 10.6597C97.6878 10.7397 97.6301 10.8045 97.5561 10.8541C97.482 10.9029 97.3936 10.9274 97.2909 10.9274C97.1983 10.9274 97.1116 10.9101 97.0308 10.8756C96.95 10.8402 96.8789 10.7918 96.8174 10.7304C96.756 10.6689 96.708 10.5978 96.6735 10.517C96.639 10.4362 96.6217 10.3495 96.6217 10.2569C96.6217 10.166 96.6386 10.0806 96.6722 10.0006C96.7068 9.92064 96.7539 9.85035 96.8137 9.78975C96.8743 9.72914 96.9441 9.68201 97.0232 9.64834C97.1032 9.61382 97.1886 9.59657 97.2796 9.59657C97.3848 9.59657 97.4765 9.62182 97.5548 9.67233C97.6331 9.72199 97.6954 9.78722 97.7417 9.86803L97.7354 9.63192ZM97.2871 10.7556C97.3772 10.7556 97.4546 10.7338 97.5195 10.69C97.5843 10.6454 97.6339 10.5856 97.6684 10.5107C97.7038 10.4358 97.7215 10.3533 97.7215 10.2632C97.7215 10.1706 97.7038 10.0873 97.6684 10.0132C97.6331 9.93831 97.583 9.87897 97.5182 9.8352C97.4534 9.79143 97.3764 9.76955 97.2871 9.76955C97.1979 9.76955 97.1163 9.79185 97.0422 9.83646C96.969 9.88023 96.9105 9.93958 96.8667 10.0145C96.8238 10.0894 96.8023 10.1723 96.8023 10.2632C96.8023 10.355 96.8246 10.4383 96.8692 10.5132C96.9138 10.5873 96.9727 10.6462 97.046 10.69C97.12 10.7338 97.2004 10.7556 97.2871 10.7556ZM98.1648 10.8945V9.63192H98.3415V9.80616C98.3862 9.74219 98.4442 9.69126 98.5158 9.65339C98.5873 9.61551 98.6652 9.59657 98.7494 9.59657C98.7982 9.59657 98.8453 9.60288 98.8908 9.61551L98.8188 9.79101C98.7835 9.78007 98.749 9.7746 98.7153 9.7746C98.6471 9.7746 98.5844 9.79143 98.5272 9.8251C98.4708 9.85877 98.4257 9.9038 98.3921 9.9602C98.3584 10.0166 98.3415 10.0793 98.3415 10.1483V10.8945H98.1648ZM99.915 9.63192H100.102L99.4112 11.5258H99.2231L99.4529 10.8945L98.9996 9.63192H99.1928L99.5412 10.6508L99.915 9.63192Z" fill="#656565"/>
<path d="M90.5391 9.94922H91.8017V11.2118H90.5391V9.94922Z" fill="#26EEC8"/>
<path d="M108.119 9.12688H108.338L108.982 10.8945H108.794L108.657 10.5157H107.802L107.664 10.8945H107.476L108.119 9.12688ZM107.866 10.339H108.591L108.229 9.34405L107.866 10.339ZM110.149 9.00062H110.326V10.8945H110.149V10.6584C110.105 10.7392 110.045 10.8045 109.968 10.8541C109.893 10.9029 109.802 10.9274 109.698 10.9274C109.606 10.9274 109.52 10.9101 109.441 10.8756C109.361 10.8411 109.29 10.7935 109.228 10.7329C109.168 10.6715 109.12 10.6008 109.086 10.5208C109.051 10.4408 109.034 10.355 109.034 10.2632C109.034 10.1715 109.051 10.0856 109.086 10.0057C109.12 9.92485 109.168 9.85414 109.228 9.79354C109.29 9.73209 109.361 9.68411 109.441 9.6496C109.52 9.61509 109.606 9.59783 109.698 9.59783C109.802 9.59783 109.893 9.62266 109.968 9.67233C110.045 9.72115 110.105 9.78554 110.149 9.8655V9.00062ZM109.699 10.7556C109.789 10.7556 109.867 10.7338 109.932 10.69C109.996 10.6454 110.046 10.5856 110.081 10.5107C110.116 10.4358 110.134 10.3533 110.134 10.2632C110.134 10.1706 110.116 10.0873 110.081 10.0132C110.045 9.93831 109.995 9.87897 109.93 9.8352C109.866 9.79143 109.789 9.76955 109.699 9.76955C109.61 9.76955 109.529 9.79185 109.456 9.83646C109.382 9.88023 109.324 9.93958 109.28 10.0145C109.236 10.0894 109.215 10.1723 109.215 10.2632C109.215 10.355 109.237 10.4383 109.281 10.5132C109.326 10.5873 109.385 10.6462 109.458 10.69C109.532 10.7338 109.613 10.7556 109.699 10.7556ZM111.658 9.00062H111.835V10.8945H111.658V10.6584C111.614 10.7392 111.554 10.8045 111.477 10.8541C111.402 10.9029 111.312 10.9274 111.207 10.9274C111.116 10.9274 111.03 10.9101 110.95 10.8756C110.87 10.8411 110.799 10.7935 110.738 10.7329C110.677 10.6715 110.629 10.6008 110.595 10.5208C110.56 10.4408 110.543 10.355 110.543 10.2632C110.543 10.1715 110.56 10.0856 110.595 10.0057C110.629 9.92485 110.677 9.85414 110.738 9.79354C110.799 9.73209 110.87 9.68411 110.95 9.6496C111.03 9.61509 111.116 9.59783 111.207 9.59783C111.312 9.59783 111.402 9.62266 111.477 9.67233C111.554 9.72115 111.614 9.78554 111.658 9.8655V9.00062ZM111.209 10.7556C111.299 10.7556 111.376 10.7338 111.441 10.69C111.506 10.6454 111.555 10.5856 111.59 10.5107C111.625 10.4358 111.643 10.3533 111.643 10.2632C111.643 10.1706 111.625 10.0873 111.59 10.0132C111.555 9.93831 111.504 9.87897 111.44 9.8352C111.375 9.79143 111.298 9.76955 111.209 9.76955C111.119 9.76955 111.038 9.79185 110.965 9.83646C110.892 9.88023 110.833 9.93958 110.789 10.0145C110.746 10.0894 110.724 10.1723 110.724 10.2632C110.724 10.355 110.746 10.4383 110.791 10.5132C110.835 10.5873 110.894 10.6462 110.967 10.69C111.041 10.7338 111.122 10.7556 111.209 10.7556ZM112.684 10.9274C112.568 10.9274 112.461 10.8975 112.366 10.8377C112.27 10.778 112.194 10.698 112.137 10.5978C112.081 10.4968 112.052 10.3853 112.052 10.2632C112.052 10.1706 112.069 10.0844 112.102 10.0044C112.134 9.92358 112.179 9.85288 112.237 9.79227C112.295 9.73083 112.362 9.68285 112.439 9.64834C112.515 9.61382 112.597 9.59657 112.684 9.59657C112.777 9.59657 112.863 9.61509 112.941 9.65212C113.02 9.68916 113.088 9.74093 113.145 9.80742C113.202 9.87392 113.245 9.95178 113.273 10.041C113.303 10.1302 113.315 10.2266 113.31 10.3301H112.239C112.249 10.4101 112.275 10.4817 112.315 10.5448C112.356 10.6079 112.408 10.658 112.472 10.695C112.536 10.7312 112.606 10.7498 112.684 10.7506C112.768 10.7506 112.844 10.7287 112.911 10.6849C112.979 10.6412 113.034 10.581 113.075 10.5044L113.254 10.5461C113.204 10.658 113.128 10.7498 113.026 10.8213C112.924 10.892 112.81 10.9274 112.684 10.9274ZM112.234 10.1875H113.132C113.126 10.1092 113.102 10.0376 113.06 9.97283C113.019 9.90717 112.965 9.85498 112.9 9.81626C112.834 9.7767 112.762 9.75692 112.684 9.75692C112.605 9.75692 112.534 9.77628 112.469 9.815C112.404 9.85288 112.351 9.90465 112.31 9.9703C112.269 10.0351 112.243 10.1075 112.234 10.1875ZM114.553 9.00062H114.73V10.8945H114.553V10.6584C114.509 10.7392 114.449 10.8045 114.373 10.8541C114.297 10.9029 114.207 10.9274 114.102 10.9274C114.011 10.9274 113.925 10.9101 113.845 10.8756C113.765 10.8411 113.694 10.7935 113.633 10.7329C113.572 10.6715 113.525 10.6008 113.49 10.5208C113.456 10.4408 113.438 10.355 113.438 10.2632C113.438 10.1715 113.456 10.0856 113.49 10.0057C113.525 9.92485 113.572 9.85414 113.633 9.79354C113.694 9.73209 113.765 9.68411 113.845 9.6496C113.925 9.61509 114.011 9.59783 114.102 9.59783C114.207 9.59783 114.297 9.62266 114.373 9.67233C114.449 9.72115 114.509 9.78554 114.553 9.8655V9.00062ZM114.104 10.7556C114.194 10.7556 114.271 10.7338 114.336 10.69C114.401 10.6454 114.45 10.5856 114.485 10.5107C114.52 10.4358 114.538 10.3533 114.538 10.2632C114.538 10.1706 114.52 10.0873 114.485 10.0132C114.45 9.93831 114.4 9.87897 114.335 9.8352C114.27 9.79143 114.193 9.76955 114.104 9.76955C114.014 9.76955 113.933 9.79185 113.86 9.83646C113.787 9.88023 113.728 9.93958 113.684 10.0145C113.641 10.0894 113.619 10.1723 113.619 10.2632C113.619 10.355 113.641 10.4383 113.686 10.5132C113.73 10.5873 113.789 10.6462 113.863 10.69C113.937 10.7338 114.017 10.7556 114.104 10.7556ZM116.46 10.9274C116.341 10.9274 116.229 10.9038 116.123 10.8567C116.018 10.8087 115.926 10.7426 115.846 10.6584C115.766 10.5742 115.703 10.477 115.657 10.3668C115.612 10.2557 115.589 10.137 115.589 10.0107C115.589 9.88444 115.612 9.76618 115.657 9.65591C115.703 9.5448 115.766 9.44716 115.846 9.36299C115.926 9.27881 116.018 9.21316 116.123 9.16602C116.229 9.11804 116.341 9.09405 116.46 9.09405C116.581 9.09405 116.694 9.11804 116.799 9.16602C116.904 9.21316 116.997 9.27881 117.077 9.36299C117.157 9.44716 117.219 9.5448 117.263 9.65591C117.309 9.76618 117.332 9.88444 117.332 10.0107C117.332 10.137 117.309 10.2557 117.263 10.3668C117.219 10.477 117.157 10.5742 117.077 10.6584C116.997 10.7426 116.904 10.8087 116.799 10.8567C116.694 10.9038 116.581 10.9274 116.46 10.9274ZM116.46 10.7506C116.557 10.7506 116.647 10.7312 116.731 10.6925C116.815 10.653 116.888 10.5991 116.952 10.5309C117.016 10.4627 117.065 10.384 117.101 10.2948C117.137 10.2056 117.155 10.1109 117.155 10.0107C117.155 9.9097 117.137 9.81458 117.101 9.72535C117.064 9.63529 117.014 9.55659 116.95 9.48925C116.887 9.42107 116.814 9.36762 116.729 9.3289C116.646 9.29018 116.556 9.27082 116.46 9.27082C116.364 9.27082 116.273 9.2906 116.189 9.33016C116.106 9.36888 116.032 9.42233 115.968 9.49051C115.905 9.55869 115.855 9.63739 115.819 9.72662C115.784 9.81584 115.766 9.91054 115.766 10.0107C115.766 10.1126 115.784 10.2081 115.82 10.2973C115.857 10.3865 115.906 10.4652 115.969 10.5334C116.033 10.6016 116.107 10.6551 116.19 10.6938C116.274 10.7317 116.365 10.7506 116.46 10.7506ZM118.605 9.00062H118.782V10.8945H118.605V10.6584C118.561 10.7392 118.501 10.8045 118.424 10.8541C118.349 10.9029 118.258 10.9274 118.154 10.9274C118.062 10.9274 117.977 10.9101 117.897 10.8756C117.817 10.8411 117.746 10.7935 117.684 10.7329C117.624 10.6715 117.576 10.6008 117.542 10.5208C117.507 10.4408 117.49 10.355 117.49 10.2632C117.49 10.1715 117.507 10.0856 117.542 10.0057C117.576 9.92485 117.624 9.85414 117.684 9.79354C117.746 9.73209 117.817 9.68411 117.897 9.6496C117.977 9.61509 118.062 9.59783 118.154 9.59783C118.258 9.59783 118.349 9.62266 118.424 9.67233C118.501 9.72115 118.561 9.78554 118.605 9.8655V9.00062ZM118.155 10.7556C118.245 10.7556 118.323 10.7338 118.388 10.69C118.453 10.6454 118.502 10.5856 118.537 10.5107C118.572 10.4358 118.59 10.3533 118.59 10.2632C118.59 10.1706 118.572 10.0873 118.537 10.0132C118.501 9.93831 118.451 9.87897 118.386 9.8352C118.322 9.79143 118.245 9.76955 118.155 9.76955C118.066 9.76955 117.985 9.79185 117.912 9.83646C117.838 9.88023 117.78 9.93958 117.736 10.0145C117.692 10.0894 117.671 10.1723 117.671 10.2632C117.671 10.355 117.693 10.4383 117.737 10.5132C117.782 10.5873 117.841 10.6462 117.914 10.69C117.988 10.7338 118.069 10.7556 118.155 10.7556ZM120.114 9.00062H120.291V10.8945H120.114V10.6584C120.07 10.7392 120.01 10.8045 119.934 10.8541C119.858 10.9029 119.768 10.9274 119.663 10.9274C119.572 10.9274 119.486 10.9101 119.406 10.8756C119.326 10.8411 119.255 10.7935 119.194 10.7329C119.133 10.6715 119.085 10.6008 119.051 10.5208C119.016 10.4408 118.999 10.355 118.999 10.2632C118.999 10.1715 119.016 10.0856 119.051 10.0057C119.085 9.92485 119.133 9.85414 119.194 9.79354C119.255 9.73209 119.326 9.68411 119.406 9.6496C119.486 9.61509 119.572 9.59783 119.663 9.59783C119.768 9.59783 119.858 9.62266 119.934 9.67233C120.01 9.72115 120.07 9.78554 120.114 9.8655V9.00062ZM119.665 10.7556C119.755 10.7556 119.832 10.7338 119.897 10.69C119.962 10.6454 120.011 10.5856 120.046 10.5107C120.081 10.4358 120.099 10.3533 120.099 10.2632C120.099 10.1706 120.081 10.0873 120.046 10.0132C120.011 9.93831 119.96 9.87897 119.896 9.8352C119.831 9.79143 119.754 9.76955 119.665 9.76955C119.575 9.76955 119.494 9.79185 119.421 9.83646C119.348 9.88023 119.289 9.93958 119.245 10.0145C119.202 10.0894 119.18 10.1723 119.18 10.2632C119.18 10.355 119.202 10.4383 119.247 10.5132C119.291 10.5873 119.35 10.6462 119.423 10.69C119.498 10.7338 119.578 10.7556 119.665 10.7556ZM120.984 10.9185C120.915 10.9168 120.848 10.9042 120.782 10.8806C120.717 10.8571 120.659 10.8251 120.61 10.7847C120.562 10.7443 120.527 10.6984 120.506 10.6471L120.658 10.5814C120.672 10.6142 120.697 10.6445 120.733 10.6723C120.77 10.6992 120.812 10.7211 120.859 10.738C120.906 10.754 120.953 10.762 120.999 10.762C121.051 10.762 121.099 10.7535 121.143 10.7367C121.188 10.7199 121.224 10.6959 121.252 10.6647C121.28 10.6328 121.295 10.5953 121.295 10.5524C121.295 10.5061 121.28 10.4699 121.249 10.4438C121.219 10.4168 121.181 10.3958 121.134 10.3806C121.088 10.3647 121.041 10.3495 120.992 10.3352C120.903 10.3108 120.824 10.2838 120.756 10.2544C120.687 10.2249 120.634 10.1875 120.595 10.142C120.557 10.0957 120.538 10.0364 120.538 9.96399C120.538 9.88739 120.56 9.82131 120.603 9.76576C120.647 9.70936 120.703 9.66601 120.773 9.63571C120.844 9.60457 120.919 9.58899 120.999 9.58899C121.102 9.58899 121.195 9.6113 121.28 9.65591C121.365 9.70052 121.426 9.75987 121.464 9.83394L121.321 9.91853C121.306 9.88402 121.282 9.85414 121.249 9.82889C121.216 9.80364 121.179 9.78386 121.137 9.76955C121.096 9.75524 121.054 9.74766 121.011 9.74682C120.957 9.74598 120.907 9.75397 120.86 9.77081C120.814 9.7868 120.777 9.81079 120.748 9.84278C120.72 9.87476 120.706 9.9139 120.706 9.9602C120.706 10.0065 120.72 10.0418 120.748 10.0663C120.776 10.0898 120.813 10.1092 120.86 10.1243C120.908 10.1386 120.962 10.1555 121.022 10.1748C121.099 10.1993 121.171 10.227 121.238 10.2582C121.305 10.2893 121.36 10.328 121.401 10.3743C121.442 10.4206 121.462 10.4791 121.461 10.5498C121.461 10.6256 121.439 10.6917 121.393 10.7481C121.348 10.8045 121.289 10.8478 121.216 10.8781C121.144 10.9076 121.067 10.921 120.984 10.9185Z" fill="#656565"/>
<path d="M104.848 9.94922H106.11V11.2118H104.848V9.94922Z" fill="#B2E4FF"/>
<defs>
<filter id="filter0_d_3488_47290" x="0.0539112" y="0.895651" width="135.099" height="71.7594" filterUnits="userSpaceOnUse" color-interpolation-filters="sRGB">
<feFlood flood-opacity="0" result="BackgroundImageFix"/>
<feColorMatrix in="SourceAlpha" type="matrix" values="0 0 0 0 0 0 0 0 0 0 0 0 0 0 0 0 0 0 127 0" result="hardAlpha"/>
<feOffset dy="0.84174"/>
<feGaussianBlur stdDeviation="1.47304"/>
<feComposite in2="hardAlpha" operator="out"/>
<feColorMatrix type="matrix" values="0 0 0 0 0.859167 0 0 0 0 0.859167 0 0 0 0 0.859167 0 0 0 0.25 0"/>
<feBlend mode="normal" in2="BackgroundImageFix" result="effect1_dropShadow_3488_47290"/>
<feBlend mode="normal" in="SourceGraphic" in2="effect1_dropShadow_3488_47290" result="shape"/>
</filter>
<filter id="filter1_f_3488_47290" x="11.8363" y="19.2035" width="89.0149" height="41.6673" filterUnits="userSpaceOnUse" color-interpolation-filters="sRGB">
<feFlood flood-opacity="0" result="BackgroundImageFix"/>
<feBlend mode="normal" in="SourceGraphic" in2="BackgroundImageFix" result="shape"/>
<feGaussianBlur stdDeviation="2.52522" result="effect1_foregroundBlur_3488_47290"/>
</filter>
<linearGradient id="paint0_linear_3488_47290" x1="56.3433" y1="24.2539" x2="56.3433" y2="55.8191" gradientUnits="userSpaceOnUse">
<stop stop-color="#0B9FE1" stop-opacity="0"/>
<stop offset="1" stop-color="#0B9FE1"/>
</linearGradient>
</defs>
</svg>
