<svg width="72" height="73" viewBox="0 0 72 73" fill="none" xmlns="http://www.w3.org/2000/svg">
<rect y="0.5" width="72" height="72" rx="8" fill="url(#paint0_linear_3317_37202)"/>
<path opacity="0.4" d="M55.6654 29.4173V37.9173C55.6654 40.0339 54.9654 41.8173 53.7154 43.0506C52.482 44.3006 50.6987 45.0006 48.582 45.0006V48.0173C48.582 49.1506 47.3154 49.834 46.382 49.2006L44.7654 48.134C44.9154 47.6173 44.982 47.0506 44.982 46.4506V39.6674C44.982 36.2674 42.7154 34.0007 39.3154 34.0007H27.9987C27.7654 34.0007 27.5487 34.0174 27.332 34.034V29.4173C27.332 25.1673 30.1654 22.334 34.4154 22.334H48.582C52.832 22.334 55.6654 25.1673 55.6654 29.4173Z" fill="#0E093C"/>
<path d="M44.982 39.6667V46.45C44.982 47.05 44.9154 47.6166 44.7654 48.1333C44.1487 50.5833 42.1154 52.1167 39.3154 52.1167H34.782L29.7487 55.4667C28.9987 55.9833 27.9987 55.4333 27.9987 54.5333V52.1167C26.2987 52.1167 24.882 51.55 23.8987 50.5667C22.8987 49.5667 22.332 48.15 22.332 46.45V39.6667C22.332 36.5 24.2987 34.3167 27.332 34.0334C27.5487 34.0167 27.7654 34 27.9987 34H39.3154C42.7154 34 44.982 36.2667 44.982 39.6667Z" fill="#0E093C"/>
<defs>
<linearGradient id="paint0_linear_3317_37202" x1="36" y1="0.499997" x2="90.9966" y2="17.2931" gradientUnits="userSpaceOnUse">
<stop stop-color="#F6F6F6"/>
<stop offset="1" stop-color="#F2EFEF"/>
</linearGradient>
</defs>
</svg>
