<svg width="72" height="73" viewBox="0 0 72 73" fill="none" xmlns="http://www.w3.org/2000/svg">
<rect y="0.5" width="72" height="72" rx="8" fill="url(#paint0_linear_3317_37181)"/>
<path opacity="0.4" d="M35.9987 52.6673C45.2034 52.6673 52.6654 45.2054 52.6654 36.0007C52.6654 26.7959 45.2034 19.334 35.9987 19.334C26.794 19.334 19.332 26.7959 19.332 36.0007C19.332 45.2054 26.794 52.6673 35.9987 52.6673Z" fill="#0E093C"/>
<path d="M42.1818 42.5509C41.9651 42.5509 41.7484 42.5009 41.5484 42.3676L36.3818 39.2842C35.0984 38.5176 34.1484 36.8342 34.1484 35.3509V28.5176C34.1484 27.8342 34.7151 27.2676 35.3984 27.2676C36.0818 27.2676 36.6484 27.8342 36.6484 28.5176V35.3509C36.6484 35.9509 37.1484 36.8342 37.6651 37.1342L42.8318 40.2176C43.4318 40.5676 43.6151 41.3342 43.2651 41.9342C43.0151 42.3342 42.5984 42.5509 42.1818 42.5509Z" fill="#0E093C"/>
<defs>
<linearGradient id="paint0_linear_3317_37181" x1="36" y1="0.499997" x2="90.9966" y2="17.2931" gradientUnits="userSpaceOnUse">
<stop stop-color="#F6F6F6"/>
<stop offset="1" stop-color="#F2EFEF"/>
</linearGradient>
</defs>
</svg>
