<svg width="69" height="39" viewBox="0 0 69 39" fill="none" xmlns="http://www.w3.org/2000/svg">
<rect x="0.5" y="0.5" width="68" height="38" rx="8.5" fill="#F8F8F8" stroke="#0E093C"/>
<path d="M15.888 22.0617H11.6875" stroke="#0E093C" stroke-width="1.5" stroke-linecap="round" stroke-linejoin="round"/>
<path d="M17.7617 15.5998H21.9622" stroke="#0E093C" stroke-width="1.5" stroke-linecap="round" stroke-linejoin="round"/>
<path fill-rule="evenodd" clip-rule="evenodd" d="M14.8188 15.5642C14.8188 14.7004 14.1134 14 13.2434 14C12.3734 14 11.668 14.7004 11.668 15.5642C11.668 16.4279 12.3734 17.1283 13.2434 17.1283C14.1134 17.1283 14.8188 16.4279 14.8188 15.5642Z" stroke="#0E093C" stroke-width="1.5" stroke-linecap="round" stroke-linejoin="round"/>
<path fill-rule="evenodd" clip-rule="evenodd" d="M22.3345 22.0358C22.3345 21.1721 21.6296 20.4717 20.7596 20.4717C19.889 20.4717 19.1836 21.1721 19.1836 22.0358C19.1836 22.8996 19.889 23.6 20.7596 23.6C21.6296 23.6 22.3345 22.8996 22.3345 22.0358Z" stroke="#0E093C" stroke-width="1.5" stroke-linecap="round" stroke-linejoin="round"/>
<path d="M32.8513 23V14.6H37.7653V15.44H33.6913V18.08H37.1893V18.92H33.6913V23H32.8513ZM38.0253 17H38.8653V23H38.0253V17ZM38.4513 15.95C38.3153 15.95 38.1993 15.906 38.1033 15.818C38.0113 15.726 37.9653 15.612 37.9653 15.476C37.9653 15.34 38.0113 15.228 38.1033 15.14C38.1993 15.048 38.3153 15.002 38.4513 15.002C38.5833 15.002 38.6953 15.048 38.7873 15.14C38.8833 15.228 38.9313 15.34 38.9313 15.476C38.9313 15.612 38.8853 15.726 38.7933 15.818C38.7013 15.906 38.5873 15.95 38.4513 15.95ZM40.1173 23V14H40.9573V23H40.1173ZM45.2285 17.84H43.7945L43.7885 23H42.9485L42.9545 17.84H41.8685V17H42.9545L42.9485 15.116H43.7885L43.7945 17H45.2285V17.84ZM48.5352 23.156C47.9832 23.156 47.4792 23.014 47.0232 22.73C46.5712 22.446 46.2092 22.066 45.9372 21.59C45.6692 21.11 45.5352 20.58 45.5352 20C45.5352 19.56 45.6132 19.15 45.7692 18.77C45.9252 18.386 46.1392 18.05 46.4112 17.762C46.6872 17.47 47.0072 17.242 47.3712 17.078C47.7352 16.914 48.1232 16.832 48.5352 16.832C48.9792 16.832 49.3872 16.92 49.7592 17.096C50.1352 17.272 50.4572 17.518 50.7252 17.834C50.9972 18.15 51.2012 18.52 51.3372 18.944C51.4772 19.368 51.5352 19.826 51.5112 20.318H46.4232C46.4712 20.698 46.5912 21.038 46.7832 21.338C46.9792 21.638 47.2272 21.876 47.5272 22.052C47.8312 22.224 48.1672 22.312 48.5352 22.316C48.9352 22.316 49.2952 22.212 49.6152 22.004C49.9392 21.796 50.1992 21.51 50.3952 21.146L51.2472 21.344C51.0072 21.876 50.6452 22.312 50.1612 22.652C49.6772 22.988 49.1352 23.156 48.5352 23.156ZM46.3992 19.64H50.6652C50.6372 19.268 50.5232 18.928 50.3232 18.62C50.1272 18.308 49.8732 18.06 49.5612 17.876C49.2492 17.688 48.9072 17.594 48.5352 17.594C48.1632 17.594 47.8232 17.686 47.5152 17.87C47.2072 18.05 46.9552 18.296 46.7592 18.608C46.5632 18.916 46.4432 19.26 46.3992 19.64ZM52.2997 23V17H53.1397V17.828C53.3517 17.524 53.6277 17.282 53.9677 17.102C54.3077 16.922 54.6777 16.832 55.0777 16.832C55.3097 16.832 55.5337 16.862 55.7497 16.922L55.4077 17.756C55.2397 17.704 55.0757 17.678 54.9157 17.678C54.5917 17.678 54.2937 17.758 54.0217 17.918C53.7537 18.078 53.5397 18.292 53.3797 18.56C53.2197 18.828 53.1397 19.126 53.1397 19.454V23H52.2997Z" fill="#969696"/>
</svg>
