<svg width="13" height="13" viewBox="0 0 13 13" fill="none" xmlns="http://www.w3.org/2000/svg">
<path d="M7.7037 4.37622C7.4287 4.37622 7.2037 4.15122 7.2037 3.87622C7.2037 3.60122 7.4287 3.37622 7.7037 3.37622C7.9787 3.37622 8.2037 3.60122 8.2037 3.87622C8.2037 4.15122 7.9787 4.37622 7.7037 4.37622ZM6.7037 6.37622V9.87622H3.2037V6.37622H6.7037ZM7.0937 5.37622H2.8137C2.4787 5.37622 2.2037 5.65122 2.2037 5.98622V10.2662C2.2037 10.6012 2.4787 10.8762 2.8137 10.8762H7.0937C7.4287 10.8762 7.7037 10.6012 7.7037 10.2662V5.98622C7.7037 5.65122 7.4287 5.37622 7.0937 5.37622ZM10.5937 1.87622H6.3137C5.9787 1.87622 5.7037 2.15122 5.7037 2.48622V4.37622H6.7037V2.87622H10.2037V6.37622H8.7037V7.37622H10.5937C10.9287 7.37622 11.2037 7.10122 11.2037 6.76622V2.48622C11.2037 2.15122 10.9287 1.87622 10.5937 1.87622ZM9.2037 4.37622C8.9287 4.37622 8.7037 4.15122 8.7037 3.87622C8.7037 3.60122 8.9287 3.37622 9.2037 3.37622C9.4787 3.37622 9.7037 3.60122 9.7037 3.87622C9.7037 4.15122 9.4787 4.37622 9.2037 4.37622ZM9.2037 5.87622C8.9287 5.87622 8.7037 5.65122 8.7037 5.37622C8.7037 5.10122 8.9287 4.87622 9.2037 4.87622C9.4787 4.87622 9.7037 5.10122 9.7037 5.37622C9.7037 5.65122 9.4787 5.87622 9.2037 5.87622ZM4.2037 7.87622C3.9287 7.87622 3.7037 7.65122 3.7037 7.37622C3.7037 7.10122 3.9287 6.87622 4.2037 6.87622C4.4787 6.87622 4.7037 7.10122 4.7037 7.37622C4.7037 7.65122 4.4787 7.87622 4.2037 7.87622ZM5.7037 9.37622C5.4287 9.37622 5.2037 9.15122 5.2037 8.87622C5.2037 8.60122 5.4287 8.37622 5.7037 8.37622C5.9787 8.37622 6.2037 8.60122 6.2037 8.87622C6.2037 9.15122 5.9787 9.37622 5.7037 9.37622Z" fill="black"/>
</svg>
