<svg width="25" height="31" viewBox="0 0 25 31" fill="none" xmlns="http://www.w3.org/2000/svg">
<g clip-path="url(#clip0_2014_97)">
<mask id="mask0_2014_97" style="mask-type:luminance" maskUnits="userSpaceOnUse" x="1" y="7" width="24" height="24">
<path d="M25 7H1V31H25V7Z" fill="white"/>
</mask>
<g mask="url(#mask0_2014_97)">
<path d="M15.94 15.0405C16.16 15.4805 16.29 15.9805 16.29 16.5105C16.28 18.2805 14.89 19.7305 13.13 19.7805C13.06 19.7705 12.97 19.7705 12.89 19.7805C11.13 19.7205 9.73 18.2805 9.73 16.5105C9.73 14.7005 11.19 13.2305 13.01 13.2305" stroke="black" stroke-width="1.5" stroke-linecap="round" stroke-linejoin="round"/>
<path d="M19.74 26.3796C17.96 28.0096 15.6 28.9996 13 28.9996C10.4 28.9996 8.03999 28.0096 6.25999 26.3796C6.35999 25.4396 6.95999 24.5196 8.02999 23.7996C10.77 21.9796 15.25 21.9796 17.97 23.7996C19.04 24.5196 19.64 25.4396 19.74 26.3796Z" stroke="black" stroke-width="1.5" stroke-linecap="round" stroke-linejoin="round"/>
<path d="M4.5 13.5C3.25 15.17 3 16.75 3 19C3 24.52 7.48 29 13 29C18.52 29 23 24.52 23 19C23 13.48 18.52 8.99999 13 8.99999C11.57 8.99999 10.73 8.95 9.5 9.5" stroke="black" stroke-width="1.5" stroke-linecap="round" stroke-linejoin="round"/>
</g>
</g>
<g clip-path="url(#clip1_2014_97)">
<mask id="mask1_2014_97" style="mask-type:luminance" maskUnits="userSpaceOnUse" x="0" y="0" width="15" height="18">
<path d="M2.44276 6.20108e-06L0 15.3971L12.5572 17.3893L15 1.99222L2.44276 6.20108e-06Z" fill="white"/>
</mask>
<g mask="url(#mask1_2014_97)">
<path d="M3.4873 8.16532L5.67553 12.0207C5.79593 12.2137 6.88557 12.8531 7.08124 12.9178L8.02088 13.8111C8.53188 13.9652 9.08556 13.8042 9.09701 13.1551L8.79325 11.732C8.79661 11.48 8.58166 10.4653 8.4568 10.2716L5.48803 5.75109C4.94174 4.8676 4.49667 4.07551 3.37178 5.13715C2.25668 6.19474 2.941 7.28183 3.4873 8.16532Z" stroke="black" stroke-width="0.7" stroke-miterlimit="10" stroke-linecap="round" stroke-linejoin="round"/>
<path opacity="0.4" d="M3.86053 8.62125C5.12995 8.58135 5.48139 8.17824 5.84781 6.67641" stroke="black" stroke-miterlimit="10" stroke-linecap="round" stroke-linejoin="round"/>
</g>
</g>
<defs>
<clipPath id="clip0_2014_97">
<rect width="24" height="24" fill="white" transform="translate(1 7)"/>
</clipPath>
<clipPath id="clip1_2014_97">
<rect width="15.5897" height="12.7143" fill="white" transform="translate(0 15.3971) rotate(-80.9851)"/>
</clipPath>
</defs>
</svg>
