<svg width="72" height="73" viewBox="0 0 72 73" fill="none" xmlns="http://www.w3.org/2000/svg">
<rect y="0.5" width="72" height="72" rx="8" fill="url(#paint0_linear_1999_21780)"/>
<path d="M22.8875 24.5263C22.7858 24.6141 22.7041 24.7227 22.648 24.8448C22.5919 24.967 22.5628 25.0997 22.5625 25.2341V51.4997C22.5625 51.7484 22.6613 51.9868 22.8371 52.1626C23.0129 52.3385 23.2514 52.4372 23.5 52.4372C23.7486 52.4372 23.9871 52.3385 24.1629 52.1626C24.3387 51.9868 24.4375 51.7484 24.4375 51.4997V44.4341C28.825 40.8732 32.5437 42.7154 36.8344 44.8357C39.3531 46.0857 42.0672 47.4263 44.9594 47.4263C47.0797 47.4263 49.2969 46.7075 51.6094 44.7044C51.7113 44.6173 51.7933 44.5092 51.8499 44.3877C51.9065 44.2661 51.9364 44.1338 51.9375 43.9997V25.2341C51.9377 25.0543 51.8862 24.8782 51.789 24.7269C51.6919 24.5755 51.5534 24.4553 51.3898 24.3805C51.2263 24.3057 51.0447 24.2796 50.8667 24.3052C50.6887 24.3307 50.5218 24.4069 50.3859 24.5247C45.8547 28.4497 42.0609 26.57 37.6656 24.3935C33.3078 22.2357 28.3438 19.806 22.8875 24.5263ZM50.0625 43.5575C45.675 47.12 41.9563 45.2763 37.6656 43.1544C33.7188 41.1997 29.2953 39.0107 24.4375 42.1247V25.6747C28.825 22.1122 32.5437 23.956 36.8344 26.0747C40.7812 28.0294 45.2047 30.2185 50.0625 27.1107V43.5575Z" fill="#0E093C"/>
<defs>
<linearGradient id="paint0_linear_1999_21780" x1="36" y1="0.499997" x2="90.9966" y2="17.2931" gradientUnits="userSpaceOnUse">
<stop stop-color="#F6F6F6"/>
<stop offset="1" stop-color="#F2EFEF"/>
</linearGradient>
</defs>
</svg>
