<svg width="72" height="73" viewBox="0 0 72 73" fill="none" xmlns="http://www.w3.org/2000/svg">
<rect y="0.5" width="72" height="72" rx="8" fill="url(#paint0_linear_1999_21792)"/>
<mask id="mask0_1999_21792" style="mask-type:alpha" maskUnits="userSpaceOnUse" x="16" y="16" width="41" height="41">
<rect x="16.0977" y="16.0137" width="40" height="40" fill="#D9D9D9"/>
</mask>
<g mask="url(#mask0_1999_21792)">
<path d="M25.0961 31.8479C26.1794 31.8479 27.2072 32.0424 28.1794 32.4313C29.1516 32.8202 30.0405 33.3896 30.8461 34.1396L46.7627 49.3479H47.7627C48.235 49.3479 48.6308 49.1882 48.9502 48.8688C49.2697 48.5493 49.4294 48.1535 49.4294 47.6813C49.4294 47.4591 49.4086 47.2229 49.3669 46.9729C49.3252 46.7229 49.1794 46.4729 48.9294 46.2229L41.3044 38.5979L38.3461 29.6813L35.2627 30.4313C34.2072 30.7091 33.2488 30.5146 32.3877 29.8479C31.5266 29.1813 31.0961 28.3063 31.0961 27.2229V23.7229L29.9294 23.1396L23.5127 31.7229C23.485 31.7507 23.4711 31.7716 23.4711 31.7854C23.4711 31.7993 23.4572 31.8202 23.4294 31.8479H25.0961ZM25.0961 35.1813H23.1794C23.2627 35.3757 23.3669 35.5563 23.4919 35.7229C23.6169 35.8896 23.7627 36.0424 23.9294 36.1813L37.4294 48.4729C37.735 48.7785 38.0822 49.0007 38.4711 49.1396C38.86 49.2785 39.2627 49.3479 39.6794 49.3479H41.9294L28.5544 36.5563C28.0822 36.0841 27.5475 35.7368 26.9502 35.5146C26.353 35.2924 25.735 35.1813 25.0961 35.1813ZM39.6794 52.6813C38.8461 52.6813 38.0544 52.5285 37.3044 52.2229C36.5544 51.9174 35.86 51.4868 35.2211 50.9313L21.6794 38.6396C20.4016 37.4729 19.6863 36.0424 19.5336 34.3479C19.3808 32.6535 19.8183 31.1118 20.8461 29.7229L27.2627 21.1396C27.735 20.5007 28.3669 20.0771 29.1586 19.8688C29.9502 19.6604 30.7072 19.7507 31.4294 20.1396L32.5961 20.7229C33.1794 21.0285 33.6308 21.4452 33.9502 21.9729C34.2697 22.5007 34.4294 23.0841 34.4294 23.7229V27.2229L37.5127 26.4313C38.3461 26.2091 39.1516 26.3132 39.9294 26.7438C40.7072 27.1743 41.235 27.7924 41.5127 28.5979L44.2211 36.7646L51.3044 43.8479C51.86 44.4035 52.2419 45.0007 52.4502 45.6396C52.6586 46.2785 52.7627 46.9591 52.7627 47.6813C52.7627 49.0702 52.2766 50.2507 51.3044 51.2229C50.3322 52.1952 49.1516 52.6813 47.7627 52.6813H39.6794Z" fill="#1C1B1F"/>
</g>
<defs>
<linearGradient id="paint0_linear_1999_21792" x1="36" y1="0.499997" x2="90.9966" y2="17.2931" gradientUnits="userSpaceOnUse">
<stop stop-color="#F6F6F6"/>
<stop offset="1" stop-color="#F2EFEF"/>
</linearGradient>
</defs>
</svg>
