<svg width="73" height="73" viewBox="0 0 73 73" fill="none" xmlns="http://www.w3.org/2000/svg">
<rect x="0.5" y="0.5" width="72" height="72" rx="8" fill="url(#paint0_linear_2136_33538)"/>
<path d="M36.418 40.2344C30.668 40.2344 25.8164 41.174 25.8164 44.8002C25.8164 48.4279 30.6993 49.3345 36.418 49.3345C42.168 49.3345 47.0195 48.3949 47.0195 44.7687C47.0195 41.1409 42.1366 40.2344 36.418 40.2344Z" fill="#0E093C"/>
<path opacity="0.4" d="M36.4178 36.7787C40.3113 36.7787 43.4333 33.6388 43.4333 29.7228C43.4333 25.8054 40.3113 22.667 36.4178 22.667C32.5243 22.667 29.4023 25.8054 29.4023 29.7228C29.4023 33.6388 32.5243 36.7787 36.4178 36.7787Z" fill="#0E093C"/>
<path opacity="0.4" d="M51.6476 31.3668C52.6549 27.4044 49.7016 23.8457 45.9409 23.8457C45.532 23.8457 45.141 23.8907 44.759 23.9673C44.7082 23.9793 44.6515 24.0048 44.6217 24.0498C44.5873 24.1069 44.6127 24.1834 44.65 24.2329C45.7797 25.8269 46.4289 27.7676 46.4289 29.8509C46.4289 31.8471 45.8334 33.7083 44.7888 35.2527C44.6814 35.4118 44.7769 35.6265 44.9664 35.6595C45.229 35.706 45.4977 35.73 45.7723 35.7375C48.5107 35.8096 50.9686 34.037 51.6476 31.3668Z" fill="#0E093C"/>
<path d="M54.5157 40.6948C54.0143 39.6201 52.804 38.8831 50.9639 38.5214C50.0954 38.3083 47.7449 38.0081 45.5587 38.0486C45.5258 38.0531 45.5079 38.0756 45.5049 38.0907C45.5005 38.1117 45.5094 38.1477 45.5527 38.1702C46.563 38.673 50.4685 40.8599 49.9775 45.4722C49.9566 45.6718 50.1163 45.8444 50.3147 45.8144C51.2758 45.6763 53.7486 45.142 54.5157 43.4775C54.9395 42.5979 54.9395 41.5758 54.5157 40.6948Z" fill="#0E093C"/>
<path opacity="0.4" d="M28.2431 23.9663C27.8625 23.8883 27.4701 23.8447 27.0612 23.8447C23.3005 23.8447 20.3471 27.4034 21.356 31.3659C22.0335 34.036 24.4914 35.8086 27.2298 35.7366C27.5044 35.7291 27.7745 35.7035 28.0357 35.6585C28.2252 35.6255 28.3207 35.4109 28.2132 35.2518C27.1686 33.7058 26.5732 31.8462 26.5732 29.8499C26.5732 27.7651 27.2238 25.8244 28.3535 24.232C28.3893 24.1824 28.4162 24.1059 28.3804 24.0489C28.3505 24.0023 28.2953 23.9783 28.2431 23.9663Z" fill="#0E093C"/>
<path d="M22.0372 38.5221C20.1972 38.8839 18.9884 39.6208 18.487 40.6955C18.0616 41.5765 18.0616 42.5987 18.487 43.4797C19.254 45.1427 21.7268 45.6786 22.6879 45.8151C22.8864 45.8452 23.0446 45.6741 23.0237 45.4729C22.5327 40.8621 26.4381 38.6752 27.4499 38.1724C27.4917 38.1484 27.5007 38.1139 27.4962 38.0914C27.4932 38.0764 27.4768 38.0539 27.444 38.0509C25.2562 38.0088 22.9073 38.309 22.0372 38.5221Z" fill="#0E093C"/>
<defs>
<linearGradient id="paint0_linear_2136_33538" x1="36.5" y1="0.499997" x2="91.4966" y2="17.2931" gradientUnits="userSpaceOnUse">
<stop stop-color="#F6F6F6"/>
<stop offset="1" stop-color="#F2EFEF"/>
</linearGradient>
</defs>
</svg>
