<svg width="49" height="49" viewBox="0 0 49 49" fill="none" xmlns="http://www.w3.org/2000/svg">
<circle cx="24.75" cy="24.2968" r="24" fill="url(#paint0_linear_2273_10004)"/>
<path d="M24.7494 36.4099C31.4283 36.4099 36.8621 30.9762 36.8621 24.2972C36.8621 17.6183 31.4283 12.1846 24.7494 12.1846C18.0705 12.1846 12.6367 17.6183 12.6367 24.2972C12.6367 30.9762 18.0705 36.4099 24.7494 36.4099ZM28.9804 20.6634C29.2219 20.6573 29.4622 20.6995 29.6871 20.7877C29.912 20.8759 30.117 21.0082 30.2899 21.1769C30.4629 21.3455 30.6003 21.5471 30.6942 21.7697C30.788 21.9924 30.8363 22.2315 30.8362 22.4731C30.8361 22.7147 30.7877 22.9538 30.6937 23.1764C30.5997 23.3989 30.4621 23.6004 30.2891 23.769C30.116 23.9375 29.9109 24.0697 29.6859 24.1577C29.461 24.2457 29.2206 24.2878 28.9791 24.2815C28.5075 24.2691 28.0593 24.073 27.7301 23.735C27.4009 23.397 27.2168 22.9437 27.2169 22.4719C27.2171 22 27.4015 21.5469 27.7309 21.2091C28.0603 20.8713 28.5087 20.6755 28.9804 20.6634ZM23.7707 29.0442C24.4167 29.1738 25.0821 29.1738 25.7281 29.0442C26.0345 28.9812 26.3398 28.8855 26.6365 28.762C26.92 28.6409 27.1986 28.4907 27.459 28.3162C27.7109 28.1442 27.952 27.9456 28.1749 27.7239C28.3965 27.5035 28.5952 27.2624 28.7672 27.0069L30.7754 28.3598C30.2533 29.1337 29.5876 29.8002 28.8144 30.3233C28.0266 30.8549 27.1423 31.2269 26.2114 31.4183C25.2463 31.6121 24.2523 31.6117 23.2874 31.4171C22.3562 31.2285 21.4718 30.8567 20.6856 30.3233C19.9124 29.7989 19.246 29.1322 18.7221 28.3586L20.7304 27.0056C20.9036 27.2612 21.1023 27.5023 21.3215 27.7203C21.9903 28.3924 22.8421 28.8528 23.7707 29.0442ZM20.51 20.6634C20.7486 20.6635 20.985 20.7106 21.2054 20.802C21.4259 20.8934 21.6262 21.0274 21.795 21.1962C21.9637 21.365 22.0975 21.5654 22.1887 21.786C22.28 22.0065 22.3269 22.2429 22.3269 22.4816C22.3268 22.7202 22.2797 22.9566 22.1883 23.177C22.0969 23.3975 21.9629 23.5978 21.7941 23.7666C21.6253 23.9353 21.4249 24.0691 21.2043 24.1603C20.9838 24.2516 20.7474 24.2985 20.5087 24.2985C20.0267 24.2983 19.5645 24.1067 19.2238 23.7657C18.883 23.4247 18.6917 22.9624 18.6918 22.4803C18.692 21.9983 18.8836 21.5361 19.2246 21.1953C19.5656 20.8546 20.0279 20.6633 20.51 20.6634Z" fill="#0E093C"/>
<defs>
<linearGradient id="paint0_linear_2273_10004" x1="24.75" y1="0.296873" x2="61.4143" y2="11.4922" gradientUnits="userSpaceOnUse">
<stop stop-color="#F6F6F6"/>
<stop offset="1" stop-color="#F2EFEF"/>
</linearGradient>
</defs>
</svg>
