<svg width="17" height="12" viewBox="0 0 17 12" fill="none" xmlns="http://www.w3.org/2000/svg">
<path d="M4.25391 1C4.25391 0.801088 4.33292 0.610322 4.47358 0.46967C4.61423 0.329018 4.80499 0.25 5.00391 0.25H16.0039C16.2028 0.25 16.3936 0.329018 16.5342 0.46967C16.6749 0.610322 16.7539 0.801088 16.7539 1C16.7539 1.19891 16.6749 1.38968 16.5342 1.53033C16.3936 1.67098 16.2028 1.75 16.0039 1.75H5.00391C4.80499 1.75 4.61423 1.67098 4.47358 1.53033C4.33292 1.38968 4.25391 1.19891 4.25391 1ZM2.00391 0.25H1.00391C0.804994 0.25 0.614228 0.329018 0.473576 0.46967C0.332924 0.610322 0.253906 0.801088 0.253906 1C0.253906 1.19891 0.332924 1.38968 0.473576 1.53033C0.614228 1.67098 0.804994 1.75 1.00391 1.75H2.00391C2.20282 1.75 2.39358 1.67098 2.53424 1.53033C2.67489 1.38968 2.75391 1.19891 2.75391 1C2.75391 0.801088 2.67489 0.610322 2.53424 0.46967C2.39358 0.329018 2.20282 0.25 2.00391 0.25ZM2.00391 5.25H1.00391C0.804994 5.25 0.614228 5.32902 0.473576 5.46967C0.332924 5.61032 0.253906 5.80109 0.253906 6C0.253906 6.19891 0.332924 6.38968 0.473576 6.53033C0.614228 6.67098 0.804994 6.75 1.00391 6.75H2.00391C2.20282 6.75 2.39358 6.67098 2.53424 6.53033C2.67489 6.38968 2.75391 6.19891 2.75391 6C2.75391 5.80109 2.67489 5.61032 2.53424 5.46967C2.39358 5.32902 2.20282 5.25 2.00391 5.25ZM2.00391 10.25H1.00391C0.804994 10.25 0.614228 10.329 0.473576 10.4697C0.332924 10.6103 0.253906 10.8011 0.253906 11C0.253906 11.1989 0.332924 11.3897 0.473576 11.5303C0.614228 11.671 0.804994 11.75 1.00391 11.75H2.00391C2.20282 11.75 2.39358 11.671 2.53424 11.5303C2.67489 11.3897 2.75391 11.1989 2.75391 11C2.75391 10.8011 2.67489 10.6103 2.53424 10.4697C2.39358 10.329 2.20282 10.25 2.00391 10.25ZM16.0039 5.25H5.00391C4.80499 5.25 4.61423 5.32902 4.47358 5.46967C4.33292 5.61032 4.25391 5.80109 4.25391 6C4.25391 6.19891 4.33292 6.38968 4.47358 6.53033C4.61423 6.67098 4.80499 6.75 5.00391 6.75H16.0039C16.2028 6.75 16.3936 6.67098 16.5342 6.53033C16.6749 6.38968 16.7539 6.19891 16.7539 6C16.7539 5.80109 16.6749 5.61032 16.5342 5.46967C16.3936 5.32902 16.2028 5.25 16.0039 5.25ZM16.0039 10.25H5.00391C4.80499 10.25 4.61423 10.329 4.47358 10.4697C4.33292 10.6103 4.25391 10.8011 4.25391 11C4.25391 11.1989 4.33292 11.3897 4.47358 11.5303C4.61423 11.671 4.80499 11.75 5.00391 11.75H16.0039C16.2028 11.75 16.3936 11.671 16.5342 11.5303C16.6749 11.3897 16.7539 11.1989 16.7539 11C16.7539 10.8011 16.6749 10.6103 16.5342 10.4697C16.3936 10.329 16.2028 10.25 16.0039 10.25Z" fill="black"/>
</svg>
