<svg width="19" height="19" viewBox="0 0 19 19" fill="none" xmlns="http://www.w3.org/2000/svg">
<rect x="0.395833" y="0.395833" width="18.2083" height="18.2083" stroke="#0095FF" stroke-opacity="0.31" stroke-width="0.791667"/>
<path fill-rule="evenodd" clip-rule="evenodd" d="M6.75485 2.32559C8.48453 1.32058 10.6106 1.33814 12.324 2.37161C14.0206 3.42612 15.0518 5.30812 15.0422 7.33263C15.0027 9.34385 13.897 11.2344 12.5149 12.6959C11.7172 13.5432 10.8248 14.2925 9.85599 14.9283C9.75621 14.986 9.64691 15.0247 9.53349 15.0423C9.42433 15.0377 9.31803 15.0054 9.22416 14.9485C7.74507 13.993 6.44746 12.7734 5.39375 11.3484C4.51203 10.1588 4.0111 8.72166 3.95899 7.23207C3.95784 5.20368 5.02517 3.33061 6.75485 2.32559ZM7.75447 8.0714C8.04542 8.7887 8.73219 9.25658 9.49411 9.25658C9.99325 9.26017 10.4731 9.06023 10.8266 8.70133C11.1802 8.34243 11.3782 7.85437 11.3764 7.34592C11.3791 6.56981 10.9222 5.86862 10.219 5.56973C9.51585 5.27085 8.70516 5.43323 8.16546 5.98106C7.62577 6.52889 7.46351 7.35411 7.75447 8.0714Z" fill="#003E79"/>
<ellipse opacity="0.4" cx="9.5013" cy="16.6257" rx="3.95833" ry="0.791667" fill="#003E79"/>
</svg>
