<svg width="15" height="15" viewBox="0 0 15 15" fill="none" xmlns="http://www.w3.org/2000/svg">
<path d="M7.91406 8.08594C8.88056 8.08594 9.66406 7.30244 9.66406 6.33594C9.66406 5.36944 8.88056 4.58594 7.91406 4.58594C6.94756 4.58594 6.16406 5.36944 6.16406 6.33594C6.16406 7.30244 6.94756 8.08594 7.91406 8.08594Z" stroke="black" stroke-opacity="0.75" stroke-width="1.16667" stroke-linecap="round" stroke-linejoin="round"/>
<path d="M7.91667 1.67188C6.67899 1.67188 5.492 2.16354 4.61684 3.03871C3.74167 3.91388 3.25 5.10086 3.25 6.33854C3.25 7.44221 3.4845 8.16437 4.125 8.96354L7.91667 13.3385L11.7083 8.96354C12.3488 8.16437 12.5833 7.44221 12.5833 6.33854C12.5833 5.10086 12.0917 3.91388 11.2165 3.03871C10.3413 2.16354 9.15434 1.67188 7.91667 1.67188Z" stroke="black" stroke-opacity="0.75" stroke-width="1.16667" stroke-linecap="round" stroke-linejoin="round"/>
</svg>
