<svg width="26" height="26" viewBox="0 0 26 26" fill="none" xmlns="http://www.w3.org/2000/svg">
<circle cx="13" cy="13" r="13" fill="url(#paint0_linear_1999_22571)"/>
<mask id="mask0_1999_22571" style="mask-type:luminance" maskUnits="userSpaceOnUse" x="4" y="5" width="18" height="16">
<path d="M20.5 15.625C20.5 17.6961 18.8211 19.375 16.75 19.375C16.0788 19.375 15.448 19.1988 14.9027 18.8894C14.3253 18.5621 13.845 18.0875 13.5107 17.514C13.1764 16.9406 13.0002 16.2888 13 15.625C13 14.662 13.363 13.7838 13.9593 13.12C14.3106 12.7277 14.7408 12.4141 15.2217 12.1995C15.7026 11.985 16.2234 11.8744 16.75 11.875C18.8211 11.875 20.5 13.5539 20.5 15.625Z" fill="white" stroke="white" stroke-width="1.5" stroke-linecap="round" stroke-linejoin="round"/>
<path d="M16.75 8.5V11.875C16.2234 11.8744 15.7026 11.985 15.2217 12.1995C14.7408 12.4141 14.3106 12.7277 13.9593 13.12C13.3404 13.8075 12.9986 14.7 13 15.625C13.0002 16.2888 13.1764 16.9406 13.5107 17.514C13.845 18.0875 14.3253 18.5621 14.9027 18.8894C13.9045 19.1913 12.5793 19.375 11.125 19.375C8.0185 19.375 5.5 18.5354 5.5 17.5V8.5" stroke="white" stroke-width="1.5" stroke-linecap="round" stroke-linejoin="round"/>
<path d="M16.75 8.5C16.75 9.53537 14.2315 10.375 11.125 10.375C8.0185 10.375 5.5 9.53537 5.5 8.5C5.5 7.46463 8.0185 6.625 11.125 6.625C14.2315 6.625 16.75 7.46463 16.75 8.5Z" fill="white" stroke="white" stroke-width="1.5" stroke-linecap="round" stroke-linejoin="round"/>
<path d="M5.5 14.5C5.5 15.5354 8.0185 16.375 11.125 16.375C11.8026 16.375 12.4525 16.3353 13.054 16.2618M5.5 11.5C5.5 12.5354 8.0185 13.375 11.125 13.375C12.1585 13.375 13.1271 13.282 13.9593 13.12" stroke="white" stroke-width="1.5" stroke-linecap="round" stroke-linejoin="round"/>
<path d="M17.875 16.75L16.75 15.625M16.75 15.625L17.875 14.5M16.75 15.625L15.625 14.5M16.75 15.625L15.625 16.75" stroke="black" stroke-width="1.5" stroke-linecap="round" stroke-linejoin="round"/>
</mask>
<g mask="url(#mask0_1999_22571)">
<path d="M4 4H22V22H4V4Z" fill="#0E093C"/>
</g>
<defs>
<linearGradient id="paint0_linear_1999_22571" x1="13" y1="-1.01505e-06" x2="32.8599" y2="6.06417" gradientUnits="userSpaceOnUse">
<stop stop-color="#F6F6F6"/>
<stop offset="1" stop-color="#F2EFEF"/>
</linearGradient>
</defs>
</svg>
