<svg width="23" height="23" viewBox="0 0 23 23" fill="none" xmlns="http://www.w3.org/2000/svg">
<circle cx="11.7" cy="11.2" r="11.2" fill="url(#paint0_linear_2824_9195)"/>
<path opacity="0.4" d="M17.3346 13.2996C17.3346 14.9271 16.028 16.2455 14.4005 16.2513H14.3946H8.6138C6.99214 16.2513 5.66797 14.9388 5.66797 13.3113V13.3055C5.66797 13.3055 5.67147 10.7236 5.67614 9.42514C5.67672 9.1813 5.95672 9.0448 6.14747 9.19647C7.53347 10.2961 10.0121 12.301 10.043 12.3272C10.4571 12.6591 10.9821 12.8464 11.5188 12.8464C12.0555 12.8464 12.5805 12.6591 12.9946 12.3208C13.0256 12.3004 15.4487 10.3556 16.8557 9.23789C17.0471 9.08564 17.3282 9.22214 17.3288 9.46539C17.3346 10.754 17.3346 13.2996 17.3346 13.2996Z" fill="#0E093C"/>
<path d="M17.0285 7.30983C16.5233 6.35783 15.5293 5.75 14.435 5.75H8.61333C7.51899 5.75 6.52499 6.35783 6.01983 7.30983C5.90666 7.52275 5.96033 7.78817 6.14874 7.93867L10.48 11.4031C10.7833 11.6481 11.1508 11.77 11.5183 11.77C11.5207 11.77 11.5224 11.77 11.5242 11.77C11.5259 11.77 11.5282 11.77 11.53 11.77C11.8975 11.77 12.265 11.6481 12.5683 11.4031L16.8996 7.93867C17.088 7.78817 17.1417 7.52275 17.0285 7.30983Z" fill="#0E093C"/>
<defs>
<linearGradient id="paint0_linear_2824_9195" x1="11.7" y1="-8.74508e-07" x2="28.8101" y2="5.22451" gradientUnits="userSpaceOnUse">
<stop stop-color="#F6F6F6"/>
<stop offset="1" stop-color="#F2EFEF"/>
</linearGradient>
</defs>
</svg>
