<svg width="32" height="32" viewBox="0 0 32 32" fill="none" xmlns="http://www.w3.org/2000/svg">
<circle cx="16" cy="16" r="16" fill="url(#paint0_linear_2913_11245)"/>
<path d="M15.997 19.2301C18.037 19.2301 19.6893 17.5778 19.6893 15.5378V10.4609C19.6893 8.42086 18.037 6.76855 15.997 6.76855C13.957 6.76855 12.3047 8.42086 12.3047 10.4609V15.5378C12.3047 17.5778 13.957 19.2301 15.997 19.2301Z" stroke="#0E093C" stroke-width="1.84615" stroke-linecap="round" stroke-linejoin="round"/>
<path d="M8.9375 13.8301V15.3993C8.9375 19.2947 12.1037 22.4608 15.999 22.4608C19.8944 22.4608 23.0606 19.2947 23.0606 15.3993V13.8301" stroke="#0E093C" stroke-width="1.84615" stroke-linecap="round" stroke-linejoin="round"/>
<path d="M14.7148 10.8583C15.5456 10.5537 16.4502 10.5537 17.281 10.8583" stroke="#0E093C" stroke-width="1.84615" stroke-linecap="round" stroke-linejoin="round"/>
<path d="M15.2578 12.8157C15.747 12.6864 16.2547 12.6864 16.744 12.8157" stroke="#0E093C" stroke-width="1.84615" stroke-linecap="round" stroke-linejoin="round"/>
<path d="M16 22.4609V25.2302" stroke="#0E093C" stroke-width="1.84615" stroke-linecap="round" stroke-linejoin="round"/>
<defs>
<linearGradient id="paint0_linear_2913_11245" x1="16" y1="-1.2493e-06" x2="40.4429" y2="7.46359" gradientUnits="userSpaceOnUse">
<stop stop-color="#F6F6F6"/>
<stop offset="1" stop-color="#F2EFEF"/>
</linearGradient>
</defs>
</svg>
