<svg width="72" height="73" viewBox="0 0 72 73" fill="none" xmlns="http://www.w3.org/2000/svg">
<rect y="0.5" width="72" height="72" rx="8" fill="url(#paint0_linear_1999_21768)"/>
<mask id="mask0_1999_21768" style="mask-type:alpha" maskUnits="userSpaceOnUse" x="16" y="16" width="41" height="41">
<rect x="16.4922" y="16.5898" width="40" height="40" fill="#D9D9D9"/>
</mask>
<g mask="url(#mask0_1999_21768)">
<path d="M26.2409 45.0905C27.6576 44.0072 29.2409 43.153 30.9909 42.528C32.7409 41.903 34.5742 41.5905 36.4909 41.5905C38.4076 41.5905 40.2409 41.903 41.9909 42.528C43.7409 43.153 45.3242 44.0072 46.7409 45.0905C47.7131 43.9516 48.4701 42.6599 49.0117 41.2155C49.5534 39.7711 49.8242 38.2294 49.8242 36.5905C49.8242 32.8961 48.5256 29.7502 45.9284 27.153C43.3312 24.5558 40.1853 23.2572 36.4909 23.2572C32.7964 23.2572 29.6506 24.5558 27.0534 27.153C24.4562 29.7502 23.1576 32.8961 23.1576 36.5905C23.1576 38.2294 23.4284 39.7711 23.9701 41.2155C24.5117 42.6599 25.2687 43.9516 26.2409 45.0905ZM36.4909 38.2572C34.852 38.2572 33.4701 37.6947 32.3451 36.5697C31.2201 35.4447 30.6576 34.0627 30.6576 32.4238C30.6576 30.7849 31.2201 29.403 32.3451 28.278C33.4701 27.153 34.852 26.5905 36.4909 26.5905C38.1298 26.5905 39.5117 27.153 40.6367 28.278C41.7617 29.403 42.3242 30.7849 42.3242 32.4238C42.3242 34.0627 41.7617 35.4447 40.6367 36.5697C39.5117 37.6947 38.1298 38.2572 36.4909 38.2572ZM36.4909 53.2572C34.1853 53.2572 32.0187 52.8197 29.9909 51.9447C27.9631 51.0697 26.1992 49.8822 24.6992 48.3822C23.1992 46.8822 22.0117 45.1183 21.1367 43.0905C20.2617 41.0627 19.8242 38.896 19.8242 36.5905C19.8242 34.2849 20.2617 32.1183 21.1367 30.0905C22.0117 28.0627 23.1992 26.2988 24.6992 24.7988C26.1992 23.2988 27.9631 22.1113 29.9909 21.2363C32.0187 20.3613 34.1853 19.9238 36.4909 19.9238C38.7964 19.9238 40.9631 20.3613 42.9909 21.2363C45.0187 22.1113 46.7826 23.2988 48.2826 24.7988C49.7826 26.2988 50.9701 28.0627 51.8451 30.0905C52.7201 32.1183 53.1576 34.2849 53.1576 36.5905C53.1576 38.896 52.7201 41.0627 51.8451 43.0905C50.9701 45.1183 49.7826 46.8822 48.2826 48.3822C46.7826 49.8822 45.0187 51.0697 42.9909 51.9447C40.9631 52.8197 38.7964 53.2572 36.4909 53.2572ZM36.4909 49.9238C37.9631 49.9238 39.352 49.7086 40.6576 49.278C41.9631 48.8474 43.1576 48.2294 44.2409 47.4238C43.1576 46.6183 41.9631 46.0002 40.6576 45.5697C39.352 45.1391 37.9631 44.9238 36.4909 44.9238C35.0187 44.9238 33.6298 45.1391 32.3242 45.5697C31.0187 46.0002 29.8242 46.6183 28.7409 47.4238C29.8242 48.2294 31.0187 48.8474 32.3242 49.278C33.6298 49.7086 35.0187 49.9238 36.4909 49.9238ZM36.4909 34.9238C37.2131 34.9238 37.8103 34.6877 38.2826 34.2155C38.7548 33.7433 38.9909 33.1461 38.9909 32.4238C38.9909 31.7016 38.7548 31.1044 38.2826 30.6322C37.8103 30.1599 37.2131 29.9238 36.4909 29.9238C35.7687 29.9238 35.1714 30.1599 34.6992 30.6322C34.227 31.1044 33.9909 31.7016 33.9909 32.4238C33.9909 33.1461 34.227 33.7433 34.6992 34.2155C35.1714 34.6877 35.7687 34.9238 36.4909 34.9238Z" fill="#0E093C"/>
</g>
<defs>
<linearGradient id="paint0_linear_1999_21768" x1="36" y1="0.499997" x2="90.9966" y2="17.2931" gradientUnits="userSpaceOnUse">
<stop stop-color="#F6F6F6"/>
<stop offset="1" stop-color="#F2EFEF"/>
</linearGradient>
</defs>
</svg>
