<svg width="22" height="22" viewBox="0 0 22 22" fill="none" xmlns="http://www.w3.org/2000/svg">
<path d="M13.7501 2.75H8.25008C7.23756 2.75 6.41675 3.57081 6.41675 4.58333V16.5C6.41675 17.5125 7.23756 18.3333 8.25008 18.3333H13.7501C14.7626 18.3333 15.5834 17.5125 15.5834 16.5V4.58333C15.5834 3.57081 14.7626 2.75 13.7501 2.75Z" fill="#0B9FE1"/>
<path d="M10.9999 17.4168C11.5062 17.4168 11.9166 17.0064 11.9166 16.5002C11.9166 15.9939 11.5062 15.5835 10.9999 15.5835C10.4937 15.5835 10.0833 15.9939 10.0833 16.5002C10.0833 17.0064 10.4937 17.4168 10.9999 17.4168Z" fill="#9DD9F3"/>
<path d="M8.25 3.78606C8.25 3.72004 8.30353 3.6665 8.36956 3.6665H13.6305C13.6965 3.6665 13.75 3.72004 13.75 3.78606C13.75 4.22629 13.3931 4.58317 12.9529 4.58317H9.04711C8.60688 4.58317 8.25 4.22629 8.25 3.78606Z" fill="#9DD9F3"/>
</svg>
