<svg width="84" height="84" viewBox="0 0 84 84" fill="none" xmlns="http://www.w3.org/2000/svg">
<g clip-path="url(#clip0_3488_47241)">
<mask id="mask0_3488_47241" style="mask-type:alpha" maskUnits="userSpaceOnUse" x="1" y="1" width="82" height="82">
<circle cx="41.9984" cy="41.9984" r="30.4723" stroke="black" stroke-width="20.2553"/>
</mask>
<g mask="url(#mask0_3488_47241)">
<g filter="url(#filter0_d_3488_47241)">
<path d="M12.5492 14.0469C8.07829 18.7559 4.7251 24.536 2.91406 30.9621L41.996 41.998L12.5492 14.0469Z" fill="#DFDFDF"/>
</g>
<g filter="url(#filter1_d_3488_47241)">
<path d="M2.91651 30.9609C1.92765 34.4699 1.39844 38.1715 1.39844 41.9969C1.39844 48.4656 2.91144 54.5811 5.60264 60.0087L41.9984 41.9969L2.91651 30.9609Z" fill="#B3E4FF"/>
</g>
<g filter="url(#filter2_d_3488_47241)">
<path d="M5.60156 60.0115C12.2389 73.3975 26.0435 82.5997 41.9974 82.5997C43.7217 82.6002 45.4443 82.4919 47.1549 82.2753L41.9974 42L5.60156 60.0115Z" fill="#26EEC8"/>
</g>
<g filter="url(#filter3_d_3488_47241)">
<path d="M47.1576 82.2757C64.994 80.0145 79.2207 66.1809 82.0763 48.5368L42 42L47.1576 82.2757Z" fill="#3762D0"/>
</g>
<g filter="url(#filter4_d_3488_47241)">
<path d="M82.0759 48.5362C82.4253 46.3749 82.6006 44.189 82.6 41.9997C82.6 22.2803 68.5416 5.84455 49.9007 2.16797L42 41.9997L82.0759 48.5362Z" fill="#003E79"/>
</g>
<path d="M12.5508 14.0488L41.9976 41.9986L49.8984 2.1669C47.296 1.65457 44.6499 1.3972 41.9976 1.39844C30.406 1.39971 19.9486 6.25797 12.5508 14.0488Z" fill="#150F5A"/>
</g>
<mask id="mask1_3488_47241" style="mask-type:alpha" maskUnits="userSpaceOnUse" x="1" y="1" width="82" height="82">
<circle cx="41.9984" cy="41.9984" r="30.4723" stroke="black" stroke-width="20.2553"/>
</mask>
<g mask="url(#mask1_3488_47241)">
<path d="M12.5508 14.0469L41.9976 41.998" stroke="white" stroke-width="1.19149"/>
<path d="M2.91406 30.9609L41.996 41.9969" stroke="white" stroke-width="1.19149"/>
<path d="M5.60156 60.0115L41.9974 42" stroke="white" stroke-width="1.19149"/>
<path d="M47.1576 82.2757L42 42" stroke="white" stroke-width="1.19149"/>
<path d="M82.0759 48.5365L42 42" stroke="white" stroke-width="1.19149"/>
<path d="M42 41.9958L49.9007 2.16406" stroke="white" stroke-width="1.19149"/>
</g>
<path d="M60.937 26.8156C60.6344 26.8156 60.3651 26.7477 60.1292 26.6118C59.8956 26.4736 59.7121 26.2901 59.5787 26.0614C59.4453 25.8302 59.3785 25.5741 59.3785 25.2929H59.979C59.979 25.4621 60.0184 25.617 60.097 25.7575C60.1756 25.8958 60.2864 26.0066 60.4294 26.09C60.5724 26.1734 60.7416 26.2151 60.937 26.2151C61.1062 26.2151 61.2635 26.1734 61.4088 26.09C61.5566 26.0066 61.6757 25.8958 61.7663 25.7575C61.8568 25.617 61.9021 25.4621 61.9021 25.2929C61.9021 25.0808 61.8473 24.9044 61.7377 24.7638C61.6304 24.6209 61.4803 24.5148 61.2873 24.4457C61.0967 24.3742 60.8786 24.3385 60.6332 24.3385V23.8559C60.9716 23.8559 61.242 23.7856 61.4446 23.645C61.6495 23.5044 61.752 23.2971 61.752 23.0231C61.752 22.8777 61.7127 22.7443 61.634 22.6227C61.5554 22.5012 61.4517 22.4047 61.323 22.3332C61.1967 22.2593 61.0609 22.2224 60.9156 22.2224C60.7678 22.2224 60.626 22.2593 60.4902 22.3332C60.3544 22.4047 60.2436 22.5012 60.1578 22.6227C60.072 22.7443 60.0291 22.8777 60.0291 23.0231H59.4286C59.4286 22.8301 59.4679 22.649 59.5465 22.4798C59.6276 22.3106 59.7372 22.1616 59.8754 22.033C60.016 21.9043 60.1744 21.8042 60.3508 21.7327C60.5271 21.6588 60.713 21.6219 60.9084 21.6219C61.1634 21.6219 61.4005 21.685 61.6197 21.8113C61.839 21.9376 62.0153 22.1068 62.1487 22.3189C62.2846 22.531 62.3525 22.7657 62.3525 23.0231C62.3525 23.2542 62.2941 23.4675 62.1773 23.6629C62.0606 23.8583 61.9021 23.9953 61.7019 24.074C61.8759 24.1335 62.0224 24.2265 62.1416 24.3528C62.2607 24.4767 62.3501 24.6197 62.4097 24.7817C62.4716 24.9438 62.5026 25.1141 62.5026 25.2929C62.5026 25.5717 62.4299 25.8267 62.2846 26.0578C62.1416 26.289 61.951 26.4736 61.7127 26.6118C61.4767 26.7477 61.2182 26.8156 60.937 26.8156ZM64.8587 26.8156C64.5608 26.8156 64.2939 26.7489 64.058 26.6154C63.8221 26.4796 63.6195 26.2925 63.4504 26.0542C63.2812 25.8159 63.1525 25.5407 63.0643 25.2285C62.9761 24.914 62.9321 24.578 62.9321 24.2205C62.9321 23.8631 62.9761 23.5271 63.0643 23.2125C63.1525 22.898 63.2812 22.6227 63.4504 22.3868C63.6195 22.1485 63.8221 21.9627 64.058 21.8292C64.2939 21.6934 64.5608 21.6255 64.8587 21.6255C65.1542 21.6255 65.4199 21.6934 65.6558 21.8292C65.8941 21.9627 66.0955 22.1485 66.2599 22.3868C66.4267 22.6227 66.5542 22.898 66.6424 23.2125C66.7329 23.5271 66.7782 23.8631 66.7782 24.2205C66.7782 24.578 66.7329 24.914 66.6424 25.2285C66.5542 25.5407 66.4267 25.8159 66.2599 26.0542C66.0955 26.2925 65.8941 26.4796 65.6558 26.6154C65.4199 26.7489 65.1542 26.8156 64.8587 26.8156ZM64.8587 26.2151C65.1566 26.2151 65.4056 26.1233 65.6058 25.9398C65.8083 25.754 65.9596 25.5097 66.0597 25.2071C66.1598 24.9044 66.2098 24.5756 66.2098 24.2205C66.2098 23.8464 66.1574 23.5092 66.0526 23.209C65.9501 22.9063 65.7976 22.6668 65.595 22.4905C65.3949 22.3141 65.1494 22.226 64.8587 22.226C64.6299 22.226 64.4298 22.2796 64.2582 22.3868C64.089 22.4941 63.9484 22.6406 63.8364 22.8265C63.7244 23.0124 63.6398 23.2256 63.5826 23.4663C63.5278 23.7046 63.5004 23.956 63.5004 24.2205C63.5004 24.5756 63.5516 24.9056 63.6541 25.2107C63.7566 25.5133 63.9079 25.7564 64.1081 25.9398C64.3106 26.1233 64.5608 26.2151 64.8587 26.2151ZM67.5979 26.7227L70.486 21.7184H71.1795L68.2913 26.7227H67.5979ZM68.1912 23.7308C68.022 23.7308 67.8683 23.6903 67.7301 23.6093C67.5943 23.5283 67.4847 23.4187 67.4013 23.2804C67.3179 23.1422 67.2761 22.9885 67.2761 22.8193C67.2761 22.6454 67.3179 22.4905 67.4013 22.3547C67.4847 22.2164 67.5955 22.1068 67.7337 22.0258C67.8719 21.9448 68.0244 21.9043 68.1912 21.9043C68.358 21.9043 68.5105 21.946 68.6487 22.0294C68.787 22.1104 68.8966 22.22 68.9776 22.3582C69.061 22.4941 69.1027 22.6478 69.1027 22.8193C69.1027 22.9909 69.061 23.1458 68.9776 23.284C68.8942 23.4198 68.7834 23.5283 68.6452 23.6093C68.507 23.6903 68.3556 23.7308 68.1912 23.7308ZM68.1912 23.2912C68.3223 23.2912 68.4331 23.2459 68.5236 23.1553C68.6166 23.0624 68.663 22.9504 68.663 22.8193C68.663 22.6859 68.6166 22.5739 68.5236 22.4833C68.4331 22.3904 68.3223 22.3439 68.1912 22.3439C68.0601 22.3439 67.9481 22.3904 67.8552 22.4833C67.7623 22.5739 67.7158 22.6859 67.7158 22.8193C67.7158 22.9504 67.7623 23.0624 67.8552 23.1553C67.9481 23.2459 68.0601 23.2912 68.1912 23.2912ZM70.5897 26.5404C70.4229 26.5404 70.2692 26.4987 70.1286 26.4153C69.9904 26.3295 69.8796 26.2175 69.7961 26.0793C69.7151 25.9387 69.6746 25.7873 69.6746 25.6253C69.6746 25.4537 69.7163 25.2988 69.7997 25.1606C69.8855 25.0224 69.9975 24.9128 70.1357 24.8318C70.2739 24.7507 70.4253 24.7102 70.5897 24.7102C70.7613 24.7102 70.9161 24.7531 71.0544 24.8389C71.1926 24.9223 71.3022 25.0331 71.3832 25.1713C71.4642 25.3095 71.5047 25.4609 71.5047 25.6253C71.5047 25.7945 71.463 25.9482 71.3796 26.0864C71.2986 26.2246 71.189 26.3354 71.0508 26.4188C70.9126 26.4998 70.7589 26.5404 70.5897 26.5404ZM70.5897 26.1007C70.7207 26.1007 70.8327 26.0542 70.9257 25.9613C71.0186 25.8684 71.0651 25.7564 71.0651 25.6253C71.0651 25.4942 71.0186 25.3822 70.9257 25.2893C70.8327 25.1964 70.7207 25.1499 70.5897 25.1499C70.4586 25.1499 70.3466 25.1964 70.2537 25.2893C70.1607 25.3822 70.1143 25.4942 70.1143 25.6253C70.1143 25.7564 70.1607 25.8684 70.2537 25.9613C70.3466 26.0542 70.4586 26.1007 70.5897 26.1007Z" fill="white"/>
<path d="M56.5281 66.1641V65.6315C56.7116 65.467 56.9178 65.2836 57.1465 65.081C57.3753 64.8761 57.6029 64.6628 57.8293 64.4412C58.058 64.2172 58.2677 63.9956 58.4584 63.7763C58.649 63.5571 58.8027 63.3498 58.9195 63.1544C59.0362 62.9566 59.0946 62.7838 59.0946 62.6361C59.0946 62.4597 59.0517 62.2989 58.9659 62.1535C58.8801 62.0058 58.7646 61.8878 58.6192 61.7996C58.4762 61.7115 58.3166 61.6674 58.1402 61.6674C57.9639 61.6674 57.8018 61.7115 57.6541 61.7996C57.5087 61.8878 57.392 62.0058 57.3038 62.1535C57.218 62.2989 57.1751 62.4597 57.1751 62.6361H56.5746C56.5746 62.343 56.6461 62.0784 56.7891 61.8425C56.9321 61.6042 57.1215 61.416 57.3574 61.2778C57.5933 61.1372 57.8543 61.0669 58.1402 61.0669C58.4262 61.0669 58.6859 61.1372 58.9195 61.2778C59.1554 61.4184 59.3436 61.6078 59.4842 61.8461C59.6248 62.082 59.6951 62.3453 59.6951 62.6361C59.6951 62.8029 59.6546 62.9828 59.5736 63.1758C59.4926 63.3664 59.3818 63.563 59.2412 63.7656C59.1006 63.9681 58.9409 64.1731 58.7622 64.3804C58.5835 64.5853 58.3952 64.7879 58.1974 64.9881C57.9996 65.1882 57.803 65.3801 57.6076 65.5636H59.7595V66.1641H56.5281ZM62.099 66.257C61.7892 66.257 61.508 66.1819 61.2554 66.0318C61.0028 65.8817 60.8027 65.6815 60.6549 65.4313C60.5096 65.1787 60.4369 64.9011 60.4369 64.5984H61.0374C61.0374 64.7915 61.0851 64.969 61.1804 65.131C61.2757 65.2907 61.4032 65.4182 61.5628 65.5135C61.7249 65.6088 61.9036 65.6565 62.099 65.6565C62.292 65.6565 62.4684 65.6088 62.628 65.5135C62.7877 65.4182 62.9152 65.2907 63.0105 65.131C63.1058 64.969 63.1535 64.7915 63.1535 64.5984C63.1535 64.4054 63.1082 64.2279 63.0176 64.0658C62.9295 63.9038 62.7996 63.7751 62.628 63.6798C62.4565 63.5821 62.2479 63.5333 62.0025 63.5333H60.7693L61.2554 61.1598H63.6289V61.7603H61.7416L61.5092 62.9327L62.0275 62.9363C62.3683 62.9435 62.6673 63.0197 62.9247 63.1651C63.1845 63.3081 63.387 63.5035 63.5324 63.7513C63.6801 63.9967 63.754 64.2791 63.754 64.5984C63.754 64.8248 63.7111 65.0393 63.6253 65.2418C63.5395 65.442 63.4204 65.6184 63.2679 65.7709C63.1153 65.9234 62.939 66.0425 62.7388 66.1283C62.5411 66.2141 62.3278 66.257 62.099 66.257ZM64.7877 66.1641L67.6758 61.1598H68.3693L65.4811 66.1641H64.7877ZM65.381 63.1722C65.2118 63.1722 65.0581 63.1317 64.9199 63.0507C64.7841 62.9697 64.6745 62.8601 64.5911 62.7218C64.5077 62.5836 64.466 62.4299 64.466 62.2607C64.466 62.0868 64.5077 61.9319 64.5911 61.7961C64.6745 61.6578 64.7853 61.5482 64.9235 61.4672C65.0617 61.3862 65.2142 61.3457 65.381 61.3457C65.5478 61.3457 65.7004 61.3874 65.8386 61.4708C65.9768 61.5518 66.0864 61.6614 66.1674 61.7996C66.2508 61.9355 66.2925 62.0892 66.2925 62.2607C66.2925 62.4323 66.2508 62.5872 66.1674 62.7254C66.084 62.8613 65.9732 62.9697 65.835 63.0507C65.6968 63.1317 65.5455 63.1722 65.381 63.1722ZM65.381 62.7326C65.5121 62.7326 65.6229 62.6873 65.7135 62.5967C65.8064 62.5038 65.8529 62.3918 65.8529 62.2607C65.8529 62.1273 65.8064 62.0153 65.7135 61.9247C65.6229 61.8318 65.5121 61.7853 65.381 61.7853C65.25 61.7853 65.138 61.8318 65.045 61.9247C64.9521 62.0153 64.9056 62.1273 64.9056 62.2607C64.9056 62.3918 64.9521 62.5038 65.045 62.5967C65.138 62.6873 65.25 62.7326 65.381 62.7326ZM67.7795 65.9818C67.6127 65.9818 67.459 65.9401 67.3184 65.8567C67.1802 65.7709 67.0694 65.6589 66.986 65.5207C66.905 65.3801 66.8644 65.2287 66.8644 65.0667C66.8644 64.8951 66.9061 64.7402 66.9896 64.602C67.0753 64.4638 67.1873 64.3542 67.3256 64.2732C67.4638 64.1921 67.6151 64.1516 67.7795 64.1516C67.9511 64.1516 68.106 64.1945 68.2442 64.2803C68.3824 64.3637 68.492 64.4745 68.573 64.6127C68.6541 64.751 68.6946 64.9023 68.6946 65.0667C68.6946 65.2359 68.6529 65.3896 68.5695 65.5278C68.4884 65.666 68.3788 65.7768 68.2406 65.8602C68.1024 65.9413 67.9487 65.9818 67.7795 65.9818ZM67.7795 65.5421C67.9106 65.5421 68.0226 65.4956 68.1155 65.4027C68.2084 65.3098 68.2549 65.1978 68.2549 65.0667C68.2549 64.9356 68.2084 64.8236 68.1155 64.7307C68.0226 64.6378 67.9106 64.5913 67.7795 64.5913C67.6484 64.5913 67.5364 64.6378 67.4435 64.7307C67.3506 64.8236 67.3041 64.9356 67.3041 65.0667C67.3041 65.1978 67.3506 65.3098 67.4435 65.4027C67.5364 65.4956 67.6484 65.5421 67.7795 65.5421Z" fill="white"/>
<path d="M21.4696 70.5469V70.0143C21.653 69.8499 21.8592 69.6664 22.0879 69.4638C22.3167 69.2589 22.5443 69.0456 22.7707 68.824C22.9994 68.6 23.2091 68.3784 23.3998 68.1591C23.5904 67.9399 23.7441 67.7326 23.8609 67.5372C23.9776 67.3394 24.036 67.1666 24.036 67.0189C24.036 66.8425 23.9931 66.6817 23.9073 66.5363C23.8216 66.3886 23.706 66.2706 23.5606 66.1824C23.4176 66.0943 23.258 66.0502 23.0816 66.0502C22.9053 66.0502 22.7433 66.0943 22.5955 66.1824C22.4501 66.2706 22.3334 66.3886 22.2452 66.5363C22.1594 66.6817 22.1165 66.8425 22.1165 67.0189H21.516C21.516 66.7258 21.5875 66.4613 21.7305 66.2253C21.8735 65.987 22.0629 65.7988 22.2988 65.6606C22.5347 65.52 22.7957 65.4497 23.0816 65.4497C23.3676 65.4497 23.6273 65.52 23.8609 65.6606C24.0968 65.8012 24.285 65.9906 24.4256 66.2289C24.5662 66.4648 24.6365 66.7282 24.6365 67.0189C24.6365 67.1857 24.596 67.3656 24.515 67.5586C24.434 67.7493 24.3232 67.9459 24.1826 68.1484C24.042 68.351 23.8823 68.5559 23.7036 68.7632C23.5249 68.9682 23.3366 69.1707 23.1388 69.3709C22.941 69.571 22.7444 69.7629 22.549 69.9464H24.7009V70.5469H21.4696ZM27.0877 70.6398C26.7898 70.6398 26.5229 70.5731 26.287 70.4396C26.0511 70.3038 25.8485 70.1167 25.6793 69.8784C25.5101 69.6402 25.3815 69.3649 25.2933 69.0527C25.2051 68.7382 25.161 68.4022 25.161 68.0447C25.161 67.6873 25.2051 67.3513 25.2933 67.0367C25.3815 66.7222 25.5101 66.447 25.6793 66.211C25.8485 65.9727 26.0511 65.7869 26.287 65.6534C26.5229 65.5176 26.7898 65.4497 27.0877 65.4497C27.3832 65.4497 27.6489 65.5176 27.8848 65.6534C28.1231 65.7869 28.3244 65.9727 28.4889 66.211C28.6557 66.447 28.7832 66.7222 28.8713 67.0367C28.9619 67.3513 29.0072 67.6873 29.0072 68.0447C29.0072 68.4022 28.9619 68.7382 28.8713 69.0527C28.7832 69.3649 28.6557 69.6402 28.4889 69.8784C28.3244 70.1167 28.1231 70.3038 27.8848 70.4396C27.6489 70.5731 27.3832 70.6398 27.0877 70.6398ZM27.0877 70.0393C27.3855 70.0393 27.6346 69.9476 27.8347 69.7641C28.0373 69.5782 28.1886 69.3339 28.2887 69.0313C28.3888 68.7287 28.4388 68.3998 28.4388 68.0447C28.4388 67.6706 28.3864 67.3334 28.2815 67.0332C28.1791 66.7305 28.0266 66.491 27.824 66.3147C27.6238 66.1384 27.3784 66.0502 27.0877 66.0502C26.8589 66.0502 26.6587 66.1038 26.4872 66.211C26.318 66.3183 26.1774 66.4648 26.0654 66.6507C25.9534 66.8366 25.8688 67.0499 25.8116 67.2905C25.7568 67.5288 25.7294 67.7802 25.7294 68.0447C25.7294 68.3998 25.7806 68.7299 25.8831 69.0349C25.9855 69.3375 26.1369 69.5806 26.337 69.7641C26.5396 69.9476 26.7898 70.0393 27.0877 70.0393ZM29.8268 70.5469L32.715 65.5426H33.4084L30.5203 70.5469H29.8268ZM30.4202 67.555C30.251 67.555 30.0973 67.5145 29.9591 67.4335C29.8233 67.3525 29.7136 67.2429 29.6302 67.1047C29.5468 66.9664 29.5051 66.8127 29.5051 66.6436C29.5051 66.4696 29.5468 66.3147 29.6302 66.1789C29.7136 66.0407 29.8244 65.931 29.9627 65.85C30.1009 65.769 30.2534 65.7285 30.4202 65.7285C30.587 65.7285 30.7395 65.7702 30.8777 65.8536C31.0159 65.9346 31.1255 66.0442 31.2066 66.1824C31.29 66.3183 31.3317 66.472 31.3317 66.6436C31.3317 66.8151 31.29 66.97 31.2066 67.1082C31.1232 67.2441 31.0124 67.3525 30.8741 67.4335C30.7359 67.5145 30.5846 67.555 30.4202 67.555ZM30.4202 67.1154C30.5513 67.1154 30.6621 67.0701 30.7526 66.9796C30.8455 66.8866 30.892 66.7746 30.892 66.6436C30.892 66.5101 30.8455 66.3981 30.7526 66.3076C30.6621 66.2146 30.5513 66.1682 30.4202 66.1682C30.2891 66.1682 30.1771 66.2146 30.0842 66.3076C29.9913 66.3981 29.9448 66.5101 29.9448 66.6436C29.9448 66.7746 29.9913 66.8866 30.0842 66.9796C30.1771 67.0701 30.2891 67.1154 30.4202 67.1154ZM32.8187 70.3646C32.6518 70.3646 32.4981 70.3229 32.3575 70.2395C32.2193 70.1537 32.1085 70.0417 32.0251 69.9035C31.9441 69.7629 31.9036 69.6116 31.9036 69.4495C31.9036 69.2779 31.9453 69.123 32.0287 68.9848C32.1145 68.8466 32.2265 68.737 32.3647 68.656C32.5029 68.575 32.6542 68.5344 32.8187 68.5344C32.9902 68.5344 33.1451 68.5773 33.2833 68.6631C33.4215 68.7465 33.5312 68.8573 33.6122 68.9956C33.6932 69.1338 33.7337 69.2851 33.7337 69.4495C33.7337 69.6187 33.692 69.7724 33.6086 69.9106C33.5276 70.0488 33.418 70.1596 33.2798 70.243C33.1415 70.3241 32.9878 70.3646 32.8187 70.3646ZM32.8187 69.9249C32.9497 69.9249 33.0617 69.8784 33.1547 69.7855C33.2476 69.6926 33.2941 69.5806 33.2941 69.4495C33.2941 69.3184 33.2476 69.2064 33.1547 69.1135C33.0617 69.0206 32.9497 68.9741 32.8187 68.9741C32.6876 68.9741 32.5756 69.0206 32.4827 69.1135C32.3897 69.2064 32.3433 69.3184 32.3433 69.4495C32.3433 69.5806 32.3897 69.6926 32.4827 69.7855C32.5756 69.8784 32.6876 69.9249 32.8187 69.9249Z" fill="white"/>
<path d="M27.5073 16.4961V12.0923H26.9461L27.1141 11.4918H28.1078V16.4961H27.5073ZM30.5901 16.589C30.2803 16.589 29.9991 16.514 29.7465 16.3638C29.4939 16.2137 29.2938 16.0135 29.146 15.7633C29.0007 15.5107 28.928 15.2331 28.928 14.9305H29.5285C29.5285 15.1235 29.5762 15.301 29.6715 15.4631C29.7668 15.6227 29.8943 15.7502 30.0539 15.8455C30.216 15.9409 30.3947 15.9885 30.5901 15.9885C30.7831 15.9885 30.9595 15.9409 31.1191 15.8455C31.2788 15.7502 31.4063 15.6227 31.5016 15.4631C31.5969 15.301 31.6446 15.1235 31.6446 14.9305C31.6446 14.7375 31.5993 14.5599 31.5088 14.3979C31.4206 14.2358 31.2907 14.1072 31.1191 14.0118C30.9476 13.9141 30.7391 13.8653 30.4936 13.8653H29.2604L29.7465 11.4918H32.12V12.0923H30.2327L30.0003 13.2648L30.5186 13.2683C30.8594 13.2755 31.1585 13.3518 31.4158 13.4971C31.6756 13.6401 31.8781 13.8355 32.0235 14.0833C32.1712 14.3288 32.2451 14.6112 32.2451 14.9305C32.2451 15.1569 32.2022 15.3713 32.1164 15.5739C32.0306 15.7741 31.9115 15.9504 31.759 16.1029C31.6065 16.2554 31.4301 16.3746 31.2299 16.4603C31.0322 16.5461 30.8189 16.589 30.5901 16.589ZM33.2788 16.4961L36.167 11.4918H36.8604L33.9722 16.4961H33.2788ZM33.8721 13.5043C33.703 13.5043 33.5493 13.4638 33.411 13.3827C33.2752 13.3017 33.1656 13.1921 33.0822 13.0539C32.9988 12.9157 32.9571 12.762 32.9571 12.5928C32.9571 12.4188 32.9988 12.2639 33.0822 12.1281C33.1656 11.9899 33.2764 11.8803 33.4146 11.7992C33.5528 11.7182 33.7053 11.6777 33.8721 11.6777C34.039 11.6777 34.1915 11.7194 34.3297 11.8028C34.4679 11.8838 34.5775 11.9935 34.6585 12.1317C34.7419 12.2675 34.7836 12.4212 34.7836 12.5928C34.7836 12.7643 34.7419 12.9192 34.6585 13.0575C34.5751 13.1933 34.4643 13.3017 34.3261 13.3827C34.1879 13.4638 34.0366 13.5043 33.8721 13.5043ZM33.8721 13.0646C34.0032 13.0646 34.114 13.0193 34.2046 12.9288C34.2975 12.8358 34.344 12.7238 34.344 12.5928C34.344 12.4593 34.2975 12.3473 34.2046 12.2568C34.114 12.1638 34.0032 12.1174 33.8721 12.1174C33.7411 12.1174 33.6291 12.1638 33.5361 12.2568C33.4432 12.3473 33.3967 12.4593 33.3967 12.5928C33.3967 12.7238 33.4432 12.8358 33.5361 12.9288C33.6291 13.0193 33.7411 13.0646 33.8721 13.0646ZM36.2706 16.3138C36.1038 16.3138 35.9501 16.2721 35.8095 16.1887C35.6713 16.1029 35.5605 15.9909 35.4771 15.8527C35.3961 15.7121 35.3556 15.5608 35.3556 15.3987C35.3556 15.2272 35.3973 15.0723 35.4807 14.9341C35.5664 14.7958 35.6784 14.6862 35.8167 14.6052C35.9549 14.5242 36.1062 14.4837 36.2706 14.4837C36.4422 14.4837 36.5971 14.5266 36.7353 14.6123C36.8735 14.6958 36.9831 14.8066 37.0641 14.9448C37.1452 15.083 37.1857 15.2343 37.1857 15.3987C37.1857 15.5679 37.144 15.7216 37.0606 15.8598C36.9796 15.9981 36.8699 16.1089 36.7317 16.1923C36.5935 16.2733 36.4398 16.3138 36.2706 16.3138ZM36.2706 15.8741C36.4017 15.8741 36.5137 15.8277 36.6066 15.7347C36.6996 15.6418 36.746 15.5298 36.746 15.3987C36.746 15.2677 36.6996 15.1557 36.6066 15.0627C36.5137 14.9698 36.4017 14.9233 36.2706 14.9233C36.1396 14.9233 36.0276 14.9698 35.9346 15.0627C35.8417 15.1557 35.7952 15.2677 35.7952 15.3987C35.7952 15.5298 35.8417 15.6418 35.9346 15.7347C36.0276 15.8277 36.1396 15.8741 36.2706 15.8741Z" fill="white"/>
<path d="M7.04962 47.1719L9.5875 42.7681H6.7172V42.1676H10.2809V42.7681L7.73592 47.1719H7.04962ZM11.0286 47.1719L13.9168 42.1676H14.6102L11.7221 47.1719H11.0286ZM11.622 44.18C11.4528 44.18 11.2991 44.1395 11.1609 44.0585C11.025 43.9775 10.9154 43.8679 10.832 43.7297C10.7486 43.5914 10.7069 43.4377 10.7069 43.2686C10.7069 43.0946 10.7486 42.9397 10.832 42.8039C10.9154 42.6657 11.0262 42.556 11.1645 42.475C11.3027 42.394 11.4552 42.3535 11.622 42.3535C11.7888 42.3535 11.9413 42.3952 12.0795 42.4786C12.2177 42.5596 12.3273 42.6692 12.4084 42.8074C12.4918 42.9433 12.5335 43.097 12.5335 43.2686C12.5335 43.4401 12.4918 43.595 12.4084 43.7332C12.325 43.8691 12.2142 43.9775 12.0759 44.0585C11.9377 44.1395 11.7864 44.18 11.622 44.18ZM11.622 43.7404C11.753 43.7404 11.8639 43.6951 11.9544 43.6046C12.0473 43.5116 12.0938 43.3996 12.0938 43.2686C12.0938 43.1351 12.0473 43.0231 11.9544 42.9326C11.8639 42.8396 11.753 42.7932 11.622 42.7932C11.4909 42.7932 11.3789 42.8396 11.286 42.9326C11.193 43.0231 11.1466 43.1351 11.1466 43.2686C11.1466 43.3996 11.193 43.5116 11.286 43.6046C11.3789 43.6951 11.4909 43.7404 11.622 43.7404ZM14.0205 46.9896C13.8536 46.9896 13.6999 46.9479 13.5593 46.8645C13.4211 46.7787 13.3103 46.6667 13.2269 46.5285C13.1459 46.3879 13.1054 46.2366 13.1054 46.0745C13.1054 45.9029 13.1471 45.748 13.2305 45.6098C13.3163 45.4716 13.4283 45.362 13.5665 45.281C13.7047 45.2 13.856 45.1594 14.0205 45.1594C14.192 45.1594 14.3469 45.2023 14.4851 45.2881C14.6233 45.3715 14.733 45.4823 14.814 45.6206C14.895 45.7588 14.9355 45.9101 14.9355 46.0745C14.9355 46.2437 14.8938 46.3974 14.8104 46.5356C14.7294 46.6738 14.6198 46.7846 14.4816 46.868C14.3433 46.9491 14.1896 46.9896 14.0205 46.9896ZM14.0205 46.5499C14.1515 46.5499 14.2635 46.5034 14.3565 46.4105C14.4494 46.3176 14.4959 46.2056 14.4959 46.0745C14.4959 45.9434 14.4494 45.8314 14.3565 45.7385C14.2635 45.6456 14.1515 45.5991 14.0205 45.5991C13.8894 45.5991 13.7774 45.6456 13.6845 45.7385C13.5915 45.8314 13.545 45.9434 13.545 46.0745C13.545 46.2056 13.5915 46.3176 13.6845 46.4105C13.7774 46.5034 13.8894 46.5499 14.0205 46.5499Z" fill="white"/>
<path d="M11.9995 29.7375C11.6969 29.7375 11.4276 29.6696 11.1917 29.5337C10.9581 29.3955 10.7746 29.212 10.6412 28.9833C10.5078 28.7521 10.441 28.4959 10.441 28.2147H11.0415C11.0415 28.3839 11.0809 28.5388 11.1595 28.6794C11.2381 28.8176 11.3489 28.9284 11.4919 29.0119C11.6349 29.0953 11.8041 29.137 11.9995 29.137C12.1687 29.137 12.326 29.0953 12.4713 29.0119C12.6191 28.9284 12.7382 28.8176 12.8288 28.6794C12.9193 28.5388 12.9646 28.3839 12.9646 28.2147C12.9646 28.0027 12.9098 27.8263 12.8002 27.6857C12.6929 27.5427 12.5428 27.4367 12.3498 27.3676C12.1592 27.2961 11.9411 27.2604 11.6957 27.2604V26.7778C12.0341 26.7778 12.3045 26.7075 12.5071 26.5669C12.712 26.4263 12.8145 26.219 12.8145 25.945C12.8145 25.7996 12.7752 25.6661 12.6965 25.5446C12.6179 25.4231 12.5142 25.3266 12.3855 25.2551C12.2592 25.1812 12.1234 25.1443 11.9781 25.1443C11.8303 25.1443 11.6885 25.1812 11.5527 25.2551C11.4169 25.3266 11.3061 25.4231 11.2203 25.5446C11.1345 25.6661 11.0916 25.7996 11.0916 25.945H10.4911C10.4911 25.7519 10.5304 25.5708 10.609 25.4016C10.6901 25.2324 10.7997 25.0835 10.9379 24.9548C11.0785 24.8261 11.2369 24.7261 11.4133 24.6546C11.5896 24.5807 11.7755 24.5438 11.9709 24.5438C12.2259 24.5438 12.463 24.6069 12.6822 24.7332C12.9015 24.8595 13.0778 25.0287 13.2112 25.2408C13.3471 25.4529 13.415 25.6876 13.415 25.945C13.415 26.1761 13.3566 26.3894 13.2398 26.5848C13.1231 26.7802 12.9646 26.9172 12.7644 26.9959C12.9384 27.0554 13.0849 27.1484 13.2041 27.2747C13.3232 27.3986 13.4126 27.5416 13.4722 27.7036C13.5341 27.8656 13.5651 28.036 13.5651 28.2147C13.5651 28.4936 13.4924 28.7485 13.3471 28.9797C13.2041 29.2108 13.0135 29.3955 12.7752 29.5337C12.5392 29.6696 12.2807 29.7375 11.9995 29.7375ZM14.3877 29.6445L17.2759 24.6403H17.9694L15.0812 29.6445H14.3877ZM14.9811 26.6527C14.8119 26.6527 14.6582 26.6122 14.52 26.5312C14.3842 26.4501 14.2746 26.3405 14.1912 26.2023C14.1077 26.0641 14.066 25.9104 14.066 25.7412C14.066 25.5673 14.1077 25.4124 14.1912 25.2765C14.2746 25.1383 14.3854 25.0287 14.5236 24.9477C14.6618 24.8667 14.8143 24.8261 14.9811 24.8261C15.1479 24.8261 15.3004 24.8679 15.4386 24.9513C15.5769 25.0323 15.6865 25.1419 15.7675 25.2801C15.8509 25.4159 15.8926 25.5696 15.8926 25.7412C15.8926 25.9128 15.8509 26.0677 15.7675 26.2059C15.6841 26.3417 15.5733 26.4501 15.4351 26.5312C15.2969 26.6122 15.1455 26.6527 14.9811 26.6527ZM14.9811 26.213C15.1122 26.213 15.223 26.1678 15.3135 26.0772C15.4065 25.9843 15.4529 25.8723 15.4529 25.7412C15.4529 25.6078 15.4065 25.4958 15.3135 25.4052C15.223 25.3123 15.1122 25.2658 14.9811 25.2658C14.85 25.2658 14.738 25.3123 14.6451 25.4052C14.5522 25.4958 14.5057 25.6078 14.5057 25.7412C14.5057 25.8723 14.5522 25.9843 14.6451 26.0772C14.738 26.1678 14.85 26.213 14.9811 26.213ZM17.3796 29.4622C17.2128 29.4622 17.0591 29.4205 16.9185 29.3371C16.7803 29.2513 16.6694 29.1393 16.586 29.0011C16.505 28.8605 16.4645 28.7092 16.4645 28.5472C16.4645 28.3756 16.5062 28.2207 16.5896 28.0825C16.6754 27.9443 16.7874 27.8347 16.9256 27.7536C17.0638 27.6726 17.2152 27.6321 17.3796 27.6321C17.5512 27.6321 17.706 27.675 17.8443 27.7608C17.9825 27.8442 18.0921 27.955 18.1731 28.0932C18.2541 28.2314 18.2946 28.3827 18.2946 28.5472C18.2946 28.7164 18.2529 28.8701 18.1695 29.0083C18.0885 29.1465 17.9789 29.2573 17.8407 29.3407C17.7025 29.4217 17.5488 29.4622 17.3796 29.4622ZM17.3796 29.0226C17.5106 29.0226 17.6226 28.9761 17.7156 28.8832C17.8085 28.7902 17.855 28.6782 17.855 28.5472C17.855 28.4161 17.8085 28.3041 17.7156 28.2112C17.6226 28.1182 17.5106 28.0718 17.3796 28.0718C17.2485 28.0718 17.1365 28.1182 17.0436 28.2112C16.9506 28.3041 16.9042 28.4161 16.9042 28.5472C16.9042 28.6782 16.9506 28.7902 17.0436 28.8832C17.1365 28.9761 17.2485 29.0226 17.3796 29.0226Z" fill="white"/>
</g>
<defs>
<filter id="filter0_d_3488_47241" x="2.91406" y="14.0469" width="39.6778" height="27.9492" filterUnits="userSpaceOnUse" color-interpolation-filters="sRGB">
<feFlood flood-opacity="0" result="BackgroundImageFix"/>
<feColorMatrix in="SourceAlpha" type="matrix" values="0 0 0 0 0 0 0 0 0 0 0 0 0 0 0 0 0 0 127 0" result="hardAlpha"/>
<feOffset dx="0.595745"/>
<feComposite in2="hardAlpha" operator="out"/>
<feColorMatrix type="matrix" values="0 0 0 0 1 0 0 0 0 1 0 0 0 0 1 0 0 0 1 0"/>
<feBlend mode="normal" in2="BackgroundImageFix" result="effect1_dropShadow_3488_47241"/>
<feBlend mode="normal" in="SourceGraphic" in2="effect1_dropShadow_3488_47241" result="shape"/>
</filter>
<filter id="filter1_d_3488_47241" x="1.39844" y="30.9609" width="41.1973" height="29.0469" filterUnits="userSpaceOnUse" color-interpolation-filters="sRGB">
<feFlood flood-opacity="0" result="BackgroundImageFix"/>
<feColorMatrix in="SourceAlpha" type="matrix" values="0 0 0 0 0 0 0 0 0 0 0 0 0 0 0 0 0 0 127 0" result="hardAlpha"/>
<feOffset dx="0.595745"/>
<feComposite in2="hardAlpha" operator="out"/>
<feColorMatrix type="matrix" values="0 0 0 0 1 0 0 0 0 1 0 0 0 0 1 0 0 0 1 0"/>
<feBlend mode="normal" in2="BackgroundImageFix" result="effect1_dropShadow_3488_47241"/>
<feBlend mode="normal" in="SourceGraphic" in2="effect1_dropShadow_3488_47241" result="shape"/>
</filter>
<filter id="filter2_d_3488_47241" x="5.60156" y="42" width="42.1504" height="40.6016" filterUnits="userSpaceOnUse" color-interpolation-filters="sRGB">
<feFlood flood-opacity="0" result="BackgroundImageFix"/>
<feColorMatrix in="SourceAlpha" type="matrix" values="0 0 0 0 0 0 0 0 0 0 0 0 0 0 0 0 0 0 127 0" result="hardAlpha"/>
<feOffset dx="0.595745"/>
<feComposite in2="hardAlpha" operator="out"/>
<feColorMatrix type="matrix" values="0 0 0 0 1 0 0 0 0 1 0 0 0 0 1 0 0 0 1 0"/>
<feBlend mode="normal" in2="BackgroundImageFix" result="effect1_dropShadow_3488_47241"/>
<feBlend mode="normal" in="SourceGraphic" in2="effect1_dropShadow_3488_47241" result="shape"/>
</filter>
<filter id="filter3_d_3488_47241" x="42" y="42" width="40.6739" height="40.2773" filterUnits="userSpaceOnUse" color-interpolation-filters="sRGB">
<feFlood flood-opacity="0" result="BackgroundImageFix"/>
<feColorMatrix in="SourceAlpha" type="matrix" values="0 0 0 0 0 0 0 0 0 0 0 0 0 0 0 0 0 0 127 0" result="hardAlpha"/>
<feOffset dx="0.595745"/>
<feComposite in2="hardAlpha" operator="out"/>
<feColorMatrix type="matrix" values="0 0 0 0 1 0 0 0 0 1 0 0 0 0 1 0 0 0 1 0"/>
<feBlend mode="normal" in2="BackgroundImageFix" result="effect1_dropShadow_3488_47241"/>
<feBlend mode="normal" in="SourceGraphic" in2="effect1_dropShadow_3488_47241" result="shape"/>
</filter>
<filter id="filter4_d_3488_47241" x="42" y="2.16797" width="41.1973" height="46.3672" filterUnits="userSpaceOnUse" color-interpolation-filters="sRGB">
<feFlood flood-opacity="0" result="BackgroundImageFix"/>
<feColorMatrix in="SourceAlpha" type="matrix" values="0 0 0 0 0 0 0 0 0 0 0 0 0 0 0 0 0 0 127 0" result="hardAlpha"/>
<feOffset dx="0.595745"/>
<feComposite in2="hardAlpha" operator="out"/>
<feColorMatrix type="matrix" values="0 0 0 0 1 0 0 0 0 1 0 0 0 0 1 0 0 0 1 0"/>
<feBlend mode="normal" in2="BackgroundImageFix" result="effect1_dropShadow_3488_47241"/>
<feBlend mode="normal" in="SourceGraphic" in2="effect1_dropShadow_3488_47241" result="shape"/>
</filter>
<clipPath id="clip0_3488_47241">
<rect width="84" height="84" fill="white"/>
</clipPath>
</defs>
</svg>
