<svg width="100%" height="100%" viewBox="0 0 16 16" fill="currentColor" xmlns="http://www.w3.org/2000/svg">
<path d="M8 5C9.10457 5 10 4.10457 10 3C10 1.89543 9.10457 1 8 1C6.89543 1 6 1.89543 6 3C6 4.10457 6.89543 5 8 5Z" stroke="#FF0000" stroke-linecap="round" stroke-linejoin="round"/>
<path d="M8.40657 4.93717C8.45639 4.98699 8.48438 5.05455 8.48438 5.125V14.2987C8.48431 14.4295 8.45827 14.559 8.40777 14.6796L8.09341 15.4288C8.08422 15.4453 8.0708 15.4592 8.05452 15.4688C8.03802 15.4786 8.01919 15.4838 8 15.4838C7.98081 15.4838 7.96198 15.4786 7.94548 15.4688C7.9292 15.4592 7.91578 15.4453 7.90659 15.4288L7.59223 14.6796C7.54173 14.559 7.51569 14.4295 7.51562 14.2987V5.125C7.51562 5.05455 7.54361 4.98699 7.59342 4.93717C7.64324 4.88736 7.7108 4.85938 7.78125 4.85938H8.21875C8.2892 4.85938 8.35676 4.88736 8.40657 4.93717Z" fill="currentColor" stroke="#FF0000" stroke-width="100%"/>
<path d="M9.48438 2.25C9.48438 2.65558 9.15558 2.98438 8.75 2.98438C8.34442 2.98438 8.01562 2.65558 8.01562 2.25C8.01562 1.84442 8.34442 1.51562 8.75 1.51562C9.15558 1.51562 9.48438 1.84442 9.48438 2.25Z" fill="currentColor" stroke="#FF0000" stroke-width="100%"/>
</svg>