<svg width="485" height="435" viewBox="0 0 485 435" fill="none" xmlns="http://www.w3.org/2000/svg">
<g filter="url(#filter0_d_3243_11461)">
<rect x="5" y="38" width="473" height="389" rx="16" fill="white" shape-rendering="crispEdges"/>
<g filter="url(#filter1_d_3243_11461)">
<circle cx="241" cy="38" r="28" fill="white"/>
</g>
<path d="M241.001 24.666C233.655 24.666 227.668 30.6527 227.668 37.9993C227.668 45.346 233.655 51.3327 241.001 51.3327C248.348 51.3327 254.335 45.346 254.335 37.9993C254.335 30.6527 248.348 24.666 241.001 24.666ZM247.375 34.9327L239.815 42.4927C239.628 42.6793 239.375 42.786 239.108 42.786C238.841 42.786 238.588 42.6793 238.401 42.4927L234.628 38.7193C234.241 38.3327 234.241 37.6927 234.628 37.306C235.015 36.9193 235.655 36.9193 236.041 37.306L239.108 40.3727L245.961 33.5193C246.348 33.1327 246.988 33.1327 247.375 33.5193C247.761 33.906 247.761 34.5327 247.375 34.9327Z" fill="#23A26D"/>
</g>
<defs>
<filter id="filter0_d_3243_11461" x="0.2" y="6.2" width="484.6" height="428.6" filterUnits="userSpaceOnUse" color-interpolation-filters="sRGB">
<feFlood flood-opacity="0" result="BackgroundImageFix"/>
<feColorMatrix in="SourceAlpha" type="matrix" values="0 0 0 0 0 0 0 0 0 0 0 0 0 0 0 0 0 0 127 0" result="hardAlpha"/>
<feMorphology radius="1" operator="dilate" in="SourceAlpha" result="effect1_dropShadow_3243_11461"/>
<feOffset dx="1" dy="2"/>
<feGaussianBlur stdDeviation="2.4"/>
<feComposite in2="hardAlpha" operator="out"/>
<feColorMatrix type="matrix" values="0 0 0 0 0 0 0 0 0 0 0 0 0 0 0 0 0 0 0.08 0"/>
<feBlend mode="normal" in2="BackgroundImageFix" result="effect1_dropShadow_3243_11461"/>
<feBlend mode="normal" in="SourceGraphic" in2="effect1_dropShadow_3243_11461" result="shape"/>
</filter>
<filter id="filter1_d_3243_11461" x="197" y="0" width="88" height="88" filterUnits="userSpaceOnUse" color-interpolation-filters="sRGB">
<feFlood flood-opacity="0" result="BackgroundImageFix"/>
<feColorMatrix in="SourceAlpha" type="matrix" values="0 0 0 0 0 0 0 0 0 0 0 0 0 0 0 0 0 0 127 0" result="hardAlpha"/>
<feOffset dy="6"/>
<feGaussianBlur stdDeviation="8"/>
<feComposite in2="hardAlpha" operator="out"/>
<feColorMatrix type="matrix" values="0 0 0 0 0.48 0 0 0 0 0.48 0 0 0 0 0.48 0 0 0 0.12 0"/>
<feBlend mode="normal" in2="BackgroundImageFix" result="effect1_dropShadow_3243_11461"/>
<feBlend mode="normal" in="SourceGraphic" in2="effect1_dropShadow_3243_11461" result="shape"/>
</filter>
</defs>
</svg>
