<svg width="25" height="25" viewBox="0 0 25 25" fill="none" xmlns="http://www.w3.org/2000/svg">
<rect width="25" height="25" rx="6.81818" fill="#EB3333"/>
<path d="M16.5779 11.6006C16.5779 11.6006 16.3037 15.0021 16.1446 16.4349C16.0688 17.1193 15.6461 17.5203 14.9537 17.5329C13.636 17.5566 12.3168 17.5582 10.9997 17.5304C10.3335 17.5167 9.91784 17.1107 9.84359 16.4385C9.68349 14.993 9.41077 11.6006 9.41077 11.6006" stroke="white" stroke-width="1.13636" stroke-linecap="round" stroke-linejoin="round"/>
<path d="M17.2766 9.9703H8.71191" stroke="white" stroke-width="1.13636" stroke-linecap="round" stroke-linejoin="round"/>
<path d="M15.626 9.97013C15.2295 9.97013 14.8881 9.68983 14.8103 9.30144L14.6876 8.6873C14.6118 8.40397 14.3553 8.20801 14.0628 8.20801H11.9249C11.6325 8.20801 11.376 8.40397 11.3002 8.6873L11.1775 9.30144C11.0997 9.68983 10.7583 9.97013 10.3618 9.97013" stroke="white" stroke-width="1.13636" stroke-linecap="round" stroke-linejoin="round"/>
</svg>
