<svg width="32" height="32" viewBox="0 0 32 32" fill="none" xmlns="http://www.w3.org/2000/svg">
<circle cx="16" cy="16" r="16" fill="url(#paint0_linear_2914_11278)"/>
<path d="M22.1825 13.2121L8.74251 21.2705C8.65943 20.9659 8.61328 20.6428 8.61328 20.3105V11.689C8.61328 8.8459 11.6871 7.0736 14.1517 8.49513L17.881 10.6459L21.6194 12.8059C21.8225 12.9259 22.0164 13.0551 22.1825 13.2121Z" fill="#34C759"/>
<path opacity="0.4" d="M21.3121 18.6596L21.311 18.6602L17.573 20.82L17.5726 20.8202L13.8441 22.9706C12.5943 23.6903 11.1556 23.4332 10.2227 22.5762L22.7073 15.0889C23.1037 16.3849 22.6348 17.899 21.3121 18.6596Z" fill="#34C759" stroke="#34C759" stroke-width="1.23077"/>
<defs>
<linearGradient id="paint0_linear_2914_11278" x1="16" y1="-1.2493e-06" x2="40.4429" y2="7.46359" gradientUnits="userSpaceOnUse">
<stop stop-color="#F6F6F6"/>
<stop offset="1" stop-color="#F2EFEF"/>
</linearGradient>
</defs>
</svg>
