<svg width="26" height="26" viewBox="0 0 26 26" fill="none" xmlns="http://www.w3.org/2000/svg">
<circle cx="13" cy="13" r="13" fill="url(#paint0_linear_2859_20306)"/>
<path d="M18.25 10C19.4926 10 20.5 8.99264 20.5 7.75C20.5 6.50736 19.4926 5.5 18.25 5.5C17.0074 5.5 16 6.50736 16 7.75C16 8.99264 17.0074 10 18.25 10Z" stroke="#0E093C" stroke-width="1.5" stroke-linecap="round" stroke-linejoin="round"/>
<path d="M9.25 13.75H13" stroke="#0E093C" stroke-width="1.5" stroke-linecap="round" stroke-linejoin="round"/>
<path d="M9.25 16.75H16" stroke="#0E093C" stroke-width="1.5" stroke-linecap="round" stroke-linejoin="round"/>
<path d="M14.5 5.5H10.75C7 5.5 5.5 7 5.5 10.75V15.25C5.5 19 7 20.5 10.75 20.5H15.25C19 20.5 20.5 19 20.5 15.25V11.5" stroke="#0E093C" stroke-width="1.5" stroke-linecap="round" stroke-linejoin="round"/>
<defs>
<linearGradient id="paint0_linear_2859_20306" x1="13" y1="-1.01505e-06" x2="32.8599" y2="6.06417" gradientUnits="userSpaceOnUse">
<stop stop-color="#F6F6F6"/>
<stop offset="1" stop-color="#F2EFEF"/>
</linearGradient>
</defs>
</svg>
