<svg width="119" height="76" viewBox="0 0 119 76" fill="none" xmlns="http://www.w3.org/2000/svg">
<g filter="url(#filter0_d_3488_47272)">
<rect x="7" y="5" width="105" height="63" rx="6.125" fill="white"/>
<rect x="7.21875" y="5.21875" width="104.562" height="62.5625" rx="5.90625" stroke="#F0F0F0" stroke-width="0.4375"/>
</g>
<path d="M19.6153 39.7875C19.1997 39.7831 18.8103 39.8531 18.4472 39.9975C18.0884 40.1375 17.7975 40.3344 17.5744 40.5881C17.3513 40.8375 17.2397 41.1306 17.2397 41.4675C17.2397 41.8612 17.3425 42.1653 17.5481 42.3797C17.7581 42.5897 18.0425 42.7472 18.4013 42.8522C18.76 42.9572 19.1647 43.0512 19.6153 43.1344C20.2016 43.235 20.7463 43.3925 21.2494 43.6069C21.7525 43.8169 22.1572 44.0991 22.4634 44.4534C22.7697 44.8034 22.9228 45.2366 22.9228 45.7528C22.9228 46.2428 22.7872 46.6737 22.5159 47.0456C22.2491 47.4175 21.8925 47.715 21.4463 47.9381C21 48.1612 20.51 48.2947 19.9763 48.3384V49.6575H19.2741V48.3384C18.8234 48.3078 18.3925 48.2138 17.9813 48.0562C17.5744 47.8944 17.22 47.6778 16.9181 47.4066C16.6206 47.1353 16.4063 46.8181 16.275 46.455L17.1347 46.1334C17.2309 46.4047 17.4059 46.6387 17.6597 46.8356C17.9178 47.0281 18.2175 47.1769 18.5588 47.2819C18.9044 47.3869 19.2566 47.4394 19.6153 47.4394C20.0353 47.4394 20.4269 47.3694 20.79 47.2294C21.1531 47.0894 21.4463 46.8947 21.6694 46.6453C21.8925 46.3916 22.0041 46.0941 22.0041 45.7528C22.0041 45.4072 21.8881 45.1228 21.6563 44.8997C21.4244 44.6766 21.1247 44.5016 20.7572 44.3747C20.3941 44.2434 20.0134 44.1428 19.6153 44.0728C18.9897 43.9634 18.4275 43.8147 17.9288 43.6266C17.4344 43.4384 17.0428 43.1737 16.7541 42.8325C16.4653 42.4869 16.3209 42.0319 16.3209 41.4675C16.3209 40.9775 16.4544 40.5466 16.7213 40.1747C16.9925 39.8028 17.3513 39.5053 17.7975 39.2822C18.2481 39.0591 18.7403 38.9278 19.2741 38.8884V37.53H19.9763V38.8884C20.4094 38.9191 20.8272 39.0131 21.2297 39.1706C21.6322 39.3281 21.9866 39.5425 22.2928 39.8137C22.6034 40.0806 22.8288 40.4022 22.9688 40.7784L22.0959 41.0934C21.9997 40.8178 21.8225 40.5837 21.5644 40.3912C21.3106 40.1944 21.0131 40.0456 20.6719 39.945C20.3306 39.84 19.9784 39.7875 19.6153 39.7875Z" fill="#0B9FE1"/>
<path d="M23.7542 48.1875V47.3737C24.1129 47.0412 24.5067 46.6781 24.9354 46.2844C25.3642 45.8862 25.7886 45.4772 26.2086 45.0572C26.6329 44.6328 27.0201 44.215 27.3701 43.8037C27.7201 43.3881 28.0001 42.9966 28.2101 42.6291C28.4245 42.2572 28.5317 41.9291 28.5317 41.6447C28.5317 41.2991 28.4464 40.9841 28.2758 40.6997C28.1095 40.4109 27.8842 40.1812 27.5998 40.0106C27.3198 39.8356 27.007 39.7481 26.6614 39.7481C26.3158 39.7481 25.9986 39.8356 25.7098 40.0106C25.4254 40.1812 25.1979 40.4109 25.0273 40.6997C24.8567 40.9841 24.7714 41.2991 24.7714 41.6447H23.8526C23.8526 41.1197 23.9795 40.645 24.2333 40.2206C24.4914 39.7962 24.8326 39.4594 25.257 39.21C25.6814 38.9562 26.1495 38.8294 26.6614 38.8294C27.1733 38.8294 27.6392 38.9562 28.0592 39.21C28.4836 39.4637 28.8204 39.8028 29.0698 40.2272C29.3236 40.6516 29.4504 41.1241 29.4504 41.6447C29.4504 41.9553 29.3673 42.2966 29.2011 42.6684C29.0392 43.0359 28.8183 43.4187 28.5383 43.8169C28.2583 44.2106 27.9433 44.6087 27.5933 45.0112C27.2433 45.4137 26.8779 45.8075 26.4973 46.1925C26.1167 46.5731 25.747 46.9319 25.3883 47.2687H29.5883V48.1875H23.7542ZM33.5904 48.3581C33.0304 48.3581 32.5207 48.2225 32.0613 47.9512C31.6063 47.68 31.2454 47.3169 30.9785 46.8619C30.7116 46.4025 30.5782 45.8994 30.5782 45.3525H31.4969C31.4969 45.7331 31.591 46.0831 31.7791 46.4025C31.9672 46.7175 32.2188 46.9691 32.5338 47.1572C32.8532 47.3453 33.2054 47.4394 33.5904 47.4394C33.971 47.4394 34.3188 47.3453 34.6338 47.1572C34.9488 46.9691 35.2004 46.7175 35.3885 46.4025C35.581 46.0831 35.6772 45.7331 35.6772 45.3525C35.6772 44.9675 35.5854 44.6175 35.4016 44.3025C35.2222 43.9831 34.9663 43.7294 34.6338 43.5412C34.3057 43.3487 33.9141 43.2525 33.4591 43.2525H31.2279L32.0941 39H36.3925V39.9187H32.8357L32.3566 42.3337L33.4263 42.3403C34.0519 42.3491 34.601 42.4825 35.0735 42.7406C35.5504 42.9987 35.9222 43.3531 36.1891 43.8037C36.4604 44.25 36.596 44.7662 36.596 45.3525C36.596 45.7637 36.5172 46.1509 36.3597 46.5141C36.2066 46.8772 35.99 47.1987 35.71 47.4787C35.4344 47.7544 35.115 47.9709 34.7519 48.1284C34.3932 48.2816 34.006 48.3581 33.5904 48.3581ZM37.6488 48.9225L38.0556 46.7044H38.9744L38.2591 48.9225H37.6488ZM43.4194 48.3581C42.8682 48.3581 42.376 48.2356 41.9429 47.9906C41.5098 47.7412 41.1401 47.3978 40.8338 46.9603C40.5276 46.5228 40.2935 46.0175 40.1316 45.4444C39.9741 44.8669 39.8954 44.25 39.8954 43.5937C39.8954 42.9375 39.9741 42.3206 40.1316 41.7431C40.2935 41.1656 40.5276 40.6603 40.8338 40.2272C41.1401 39.7897 41.5098 39.4484 41.9429 39.2034C42.376 38.9541 42.8682 38.8294 43.4194 38.8294C43.9663 38.8294 44.4563 38.9541 44.8894 39.2034C45.3226 39.4484 45.6901 39.7897 45.9919 40.2272C46.2938 40.6603 46.5235 41.1656 46.681 41.7431C46.8429 42.3206 46.9238 42.9375 46.9238 43.5937C46.9238 44.25 46.8429 44.8669 46.681 45.4444C46.5235 46.0175 46.2938 46.5228 45.9919 46.9603C45.6901 47.3978 45.3226 47.7412 44.8894 47.9906C44.4563 48.2356 43.9663 48.3581 43.4194 48.3581ZM43.4194 47.4394C43.9969 47.4394 44.4804 47.2622 44.8698 46.9078C45.2635 46.5534 45.5588 46.0853 45.7557 45.5034C45.9526 44.9172 46.051 44.2806 46.051 43.5937C46.051 42.8675 45.9482 42.2156 45.7426 41.6381C45.5413 41.0562 45.2438 40.5969 44.8501 40.26C44.4607 39.9187 43.9838 39.7481 43.4194 39.7481C42.9732 39.7481 42.5838 39.8509 42.2513 40.0566C41.9188 40.2622 41.6432 40.5444 41.4244 40.9031C41.2057 41.2619 41.0416 41.6731 40.9323 42.1369C40.8229 42.5962 40.7682 43.0819 40.7682 43.5937C40.7682 44.285 40.8688 44.9237 41.0701 45.51C41.2713 46.0919 41.5688 46.56 41.9626 46.9144C42.3563 47.2644 42.8419 47.4394 43.4194 47.4394ZM50.5293 48.3581C49.9693 48.3581 49.4596 48.2225 49.0002 47.9512C48.5452 47.68 48.1843 47.3169 47.9174 46.8619C47.6506 46.4025 47.5171 45.8994 47.5171 45.3525H48.4359C48.4359 45.7331 48.5299 46.0831 48.7181 46.4025C48.9062 46.7175 49.1577 46.9691 49.4727 47.1572C49.7921 47.3453 50.1443 47.4394 50.5293 47.4394C50.9099 47.4394 51.2577 47.3453 51.5727 47.1572C51.8877 46.9691 52.1393 46.7175 52.3274 46.4025C52.5199 46.0831 52.6162 45.7331 52.6162 45.3525C52.6162 44.9675 52.5243 44.6175 52.3406 44.3025C52.1612 43.9831 51.9052 43.7294 51.5727 43.5412C51.2446 43.3487 50.8531 43.2525 50.3981 43.2525H48.1668L49.0331 39H53.3315V39.9187H49.7746L49.2956 42.3337L50.3652 42.3403C50.9909 42.3491 51.5399 42.4825 52.0124 42.7406C52.4893 42.9987 52.8612 43.3531 53.1281 43.8037C53.3993 44.25 53.5349 44.7662 53.5349 45.3525C53.5349 45.7637 53.4562 46.1509 53.2987 46.5141C53.1456 46.8772 52.929 47.1987 52.649 47.4787C52.3734 47.7544 52.054 47.9709 51.6909 48.1284C51.3321 48.2816 50.9449 48.3581 50.5293 48.3581ZM54.5877 48.1875V47.3737C54.9464 47.0412 55.3402 46.6781 55.7689 46.2844C56.1977 45.8862 56.6221 45.4772 57.0421 45.0572C57.4664 44.6328 57.8536 44.215 58.2036 43.8037C58.5536 43.3881 58.8336 42.9966 59.0436 42.6291C59.258 42.2572 59.3652 41.9291 59.3652 41.6447C59.3652 41.2991 59.2799 40.9841 59.1093 40.6997C58.943 40.4109 58.7177 40.1812 58.4333 40.0106C58.1533 39.8356 57.8405 39.7481 57.4949 39.7481C57.1493 39.7481 56.8321 39.8356 56.5433 40.0106C56.2589 40.1812 56.0314 40.4109 55.8608 40.6997C55.6902 40.9841 55.6049 41.2991 55.6049 41.6447H54.6861C54.6861 41.1197 54.813 40.645 55.0668 40.2206C55.3249 39.7962 55.6661 39.4594 56.0905 39.21C56.5149 38.9562 56.983 38.8294 57.4949 38.8294C58.0068 38.8294 58.4727 38.9562 58.8927 39.21C59.3171 39.4637 59.6539 39.8028 59.9033 40.2272C60.1571 40.6516 60.2839 41.1241 60.2839 41.6447C60.2839 41.9553 60.2008 42.2966 60.0346 42.6684C59.8727 43.0359 59.6518 43.4187 59.3718 43.8169C59.0918 44.2106 58.7768 44.6087 58.4268 45.0112C58.0768 45.4137 57.7114 45.8075 57.3308 46.1925C56.9502 46.5731 56.5805 46.9319 56.2218 47.2687H60.4218V48.1875H54.5877ZM61.4773 48.9225L61.8842 46.7044H62.8029L62.0876 48.9225H61.4773ZM65.6402 48.1875L67.668 44.6766C67.2042 44.8516 66.7405 44.9062 66.2767 44.8406C65.813 44.7706 65.3886 44.6044 65.0036 44.3419C64.6186 44.075 64.308 43.7337 64.0717 43.3181C63.8399 42.8981 63.7239 42.4256 63.7239 41.9006C63.7239 41.4806 63.8027 41.0847 63.9602 40.7128C64.1221 40.3409 64.343 40.015 64.623 39.735C64.903 39.4506 65.2267 39.2297 65.5942 39.0722C65.9661 38.9103 66.3642 38.8294 66.7886 38.8294C67.3486 38.8294 67.8583 38.9694 68.3177 39.2494C68.7814 39.525 69.1511 39.8947 69.4267 40.3584C69.7067 40.8222 69.8467 41.3362 69.8467 41.9006C69.8467 42.22 69.8074 42.4956 69.7286 42.7275C69.6542 42.955 69.5405 43.2109 69.3874 43.4953L66.6967 48.1875H65.6402ZM66.7755 44.0531C67.1911 44.0531 67.5608 43.9547 67.8846 43.7578C68.2127 43.5566 68.4708 43.2919 68.6589 42.9637C68.8471 42.6356 68.9411 42.2834 68.9411 41.9072C68.9411 41.4959 68.8405 41.1284 68.6392 40.8047C68.4424 40.4766 68.1799 40.2184 67.8517 40.0303C67.5236 39.8378 67.1692 39.7416 66.7886 39.7416C66.3686 39.7416 65.9946 39.8422 65.6664 40.0434C65.3427 40.2447 65.0867 40.5116 64.8986 40.8441C64.7149 41.1722 64.623 41.5266 64.623 41.9072C64.623 42.3009 64.7192 42.6619 64.9117 42.99C65.1042 43.3137 65.3624 43.5719 65.6861 43.7644C66.0142 43.9569 66.3774 44.0531 66.7755 44.0531ZM73.4281 48.3581C72.89 48.3581 72.3978 48.2356 71.9516 47.9906C71.5097 47.7456 71.1575 47.4175 70.895 47.0062C70.6325 46.595 70.5012 46.1378 70.5012 45.6347C70.5012 45.1447 70.6369 44.6984 70.9081 44.2959C71.1794 43.8891 71.5316 43.5741 71.9647 43.3509C71.6059 43.1453 71.3106 42.8653 71.0787 42.5109C70.8469 42.1522 70.7309 41.7584 70.7309 41.3297C70.7309 40.8703 70.8512 40.4525 71.0919 40.0762C71.3369 39.6956 71.6628 39.3937 72.0697 39.1706C72.4809 38.9431 72.9337 38.8294 73.4281 38.8294C73.9225 38.8294 74.3731 38.9431 74.78 39.1706C75.1912 39.3937 75.5172 39.6956 75.7578 40.0762C76.0028 40.4525 76.1253 40.8703 76.1253 41.3297C76.1253 41.7584 76.0094 42.1522 75.7775 42.5109C75.55 42.8653 75.2547 43.1453 74.8916 43.3509C75.3334 43.5741 75.6878 43.8891 75.9547 44.2959C76.2259 44.6984 76.3616 45.1447 76.3616 45.6347C76.3616 46.1334 76.2281 46.5906 75.9612 47.0062C75.6987 47.4175 75.3466 47.7456 74.9047 47.9906C74.4628 48.2356 73.9706 48.3581 73.4281 48.3581ZM73.4281 47.4394C73.7912 47.4394 74.1194 47.3584 74.4125 47.1966C74.7056 47.0347 74.9397 46.8181 75.1147 46.5469C75.2897 46.2712 75.3772 45.9672 75.3772 45.6347C75.3772 45.3022 75.2897 45.0003 75.1147 44.7291C74.9397 44.4578 74.7056 44.2412 74.4125 44.0794C74.1194 43.9175 73.7912 43.8366 73.4281 43.8366C73.0737 43.8366 72.7478 43.9175 72.4503 44.0794C72.1572 44.2412 71.9209 44.4578 71.7416 44.7291C71.5666 45.0003 71.4791 45.3022 71.4791 45.6347C71.4791 45.9672 71.5666 46.2712 71.7416 46.5469C71.9209 46.8181 72.1572 47.0347 72.4503 47.1966C72.7478 47.3584 73.0737 47.4394 73.4281 47.4394ZM73.4281 42.9178C73.7475 42.9178 74.0362 42.8478 74.2944 42.7078C74.5525 42.5634 74.7581 42.3709 74.9112 42.1303C75.0687 41.8897 75.1475 41.6228 75.1475 41.3297C75.1475 41.0366 75.0687 40.7719 74.9112 40.5356C74.7581 40.295 74.5525 40.1047 74.2944 39.9647C74.0362 39.8203 73.7475 39.7481 73.4281 39.7481C73.1131 39.7481 72.8244 39.8203 72.5619 39.9647C72.3037 40.1047 72.0959 40.295 71.9384 40.5356C71.7853 40.7719 71.7087 41.0366 71.7087 41.3297C71.7087 41.6228 71.7853 41.8897 71.9384 42.1303C72.0959 42.3709 72.3037 42.5634 72.5619 42.7078C72.8244 42.8478 73.1131 42.9178 73.4281 42.9178ZM80.0939 48.3581C79.5339 48.3581 79.0242 48.2225 78.5648 47.9512C78.1098 47.68 77.7489 47.3169 77.482 46.8619C77.2151 46.4025 77.0817 45.8994 77.0817 45.3525H78.0004C78.0004 45.7331 78.0945 46.0831 78.2826 46.4025C78.4708 46.7175 78.7223 46.9691 79.0373 47.1572C79.3567 47.3453 79.7089 47.4394 80.0939 47.4394C80.4745 47.4394 80.8223 47.3453 81.1373 47.1572C81.4523 46.9691 81.7039 46.7175 81.892 46.4025C82.0845 46.0831 82.1808 45.7331 82.1808 45.3525C82.1808 44.9675 82.0889 44.6175 81.9051 44.3025C81.7258 43.9831 81.4698 43.7294 81.1373 43.5412C80.8092 43.3487 80.4176 43.2525 79.9626 43.2525H77.7314L78.5976 39H82.8961V39.9187H79.3392L78.8601 42.3337L79.9298 42.3403C80.5554 42.3491 81.1045 42.4825 81.577 42.7406C82.0539 42.9987 82.4258 43.3531 82.6926 43.8037C82.9639 44.25 83.0995 44.7662 83.0995 45.3525C83.0995 45.7637 83.0208 46.1509 82.8633 46.5141C82.7101 46.8772 82.4936 47.1987 82.2136 47.4787C81.9379 47.7544 81.6186 47.9709 81.2554 48.1284C80.8967 48.2816 80.5095 48.3581 80.0939 48.3581Z" fill="#353535"/>
<circle cx="21.4375" cy="15.5" r="5.6875" fill="#E9F0FC"/>
<path fill-rule="evenodd" clip-rule="evenodd" d="M22.5015 13.117C22.5015 13.8458 23.0932 14.4366 23.823 14.4366C23.9034 14.4362 23.9835 14.4284 24.0625 14.4135V17.0295C24.0625 18.1301 23.4133 18.7812 22.3111 18.7812H19.9105C18.8054 18.7812 18.1562 18.1301 18.1562 17.0295V14.6325C18.1562 13.5319 18.8054 12.875 19.9105 12.875H22.5246C22.5091 12.9547 22.5014 13.0358 22.5015 13.117ZM21.8146 16.4507L22.7523 15.2406V15.2348C22.8326 15.127 22.8121 14.9749 22.7062 14.892C22.6549 14.8524 22.5897 14.8353 22.5255 14.8445C22.4614 14.8537 22.4037 14.8885 22.3657 14.941L21.5751 15.958L20.6749 15.2492C20.6235 15.2092 20.5581 15.1915 20.4935 15.2002C20.4289 15.2089 20.3705 15.2432 20.3315 15.2953L19.3621 16.5457C19.328 16.5882 19.3096 16.6411 19.3101 16.6956C19.3045 16.8055 19.374 16.9055 19.4791 16.9387C19.5843 16.9718 19.6986 16.93 19.7574 16.8367L20.5681 15.788L21.4684 16.4939C21.5196 16.5352 21.5854 16.5539 21.6507 16.5457C21.716 16.5376 21.7751 16.5033 21.8146 16.4507Z" fill="#003E79"/>
<circle opacity="0.4" cx="23.8984" cy="13.0391" r="0.820312" fill="#003E79"/>
<rect x="80.7188" y="8.71875" width="26.6875" height="13.5625" rx="2.84375" fill="white" stroke="#0B9FE1" stroke-width="0.4375"/>
<mask id="mask0_3488_47272" style="mask-type:luminance" maskUnits="userSpaceOnUse" x="99" y="14" width="4" height="3">
<path d="M102.047 14.7812L100.844 15.9844L99.6406 14.7812H102.047Z" fill="white" stroke="white" stroke-width="0.473958" stroke-linejoin="round"/>
</mask>
<g mask="url(#mask0_3488_47272)">
<path d="M98.4375 12.875H103.25V17.6875H98.4375V12.875Z" fill="#777777"/>
</g>
<path d="M86.6154 17.5058C86.3214 17.5058 86.0676 17.434 85.8541 17.2905C85.6406 17.147 85.4761 16.9545 85.3606 16.713C85.2469 16.4697 85.19 16.2002 85.19 15.9045V13.7625H85.5575V15.9045C85.5575 16.1285 85.5986 16.3341 85.6809 16.5214C85.7631 16.7086 85.883 16.8582 86.0405 16.9702C86.198 17.0822 86.3896 17.1382 86.6154 17.1382C86.8464 17.1382 87.0398 17.0822 87.1955 16.9702C87.353 16.8565 87.472 16.706 87.5525 16.5187C87.633 16.3315 87.6733 16.1267 87.6733 15.9045V13.7625H88.0408V15.9045C88.0408 16.1267 88.0075 16.335 87.941 16.5292C87.8763 16.7217 87.7818 16.8915 87.6575 17.0385C87.535 17.1855 87.3854 17.3001 87.2086 17.3824C87.0336 17.4646 86.8359 17.5058 86.6154 17.5058ZM89.8498 17.5058C89.6538 17.5058 89.464 17.4751 89.2802 17.4139C89.0982 17.3526 88.939 17.2651 88.8025 17.1514C88.666 17.0376 88.5697 16.902 88.5137 16.7445L88.8576 16.6159C88.8961 16.7244 88.9661 16.818 89.0676 16.8967C89.1708 16.9737 89.2907 17.0332 89.4272 17.0752C89.5655 17.1172 89.7063 17.1382 89.8498 17.1382C90.0178 17.1382 90.1745 17.1102 90.3197 17.0542C90.465 16.9982 90.5822 16.9204 90.6715 16.8206C90.7607 16.7191 90.8053 16.6001 90.8053 16.4636C90.8053 16.3254 90.759 16.2116 90.6662 16.1224C90.5735 16.0331 90.4536 15.9631 90.3066 15.9124C90.1613 15.8599 90.0091 15.8196 89.8498 15.7916C89.5996 15.7479 89.3747 15.6884 89.1752 15.6131C88.9775 15.5379 88.8208 15.432 88.7053 15.2955C88.5898 15.1572 88.5321 14.9752 88.5321 14.7495C88.5321 14.5377 88.5933 14.354 88.7158 14.1982C88.8383 14.0425 88.9993 13.9217 89.1988 13.836C89.4001 13.7502 89.6171 13.7074 89.8498 13.7074C90.0406 13.7074 90.227 13.7371 90.409 13.7966C90.591 13.8561 90.7511 13.9427 90.8893 14.0565C91.0293 14.1702 91.13 14.3094 91.1912 14.4739L90.8421 14.5999C90.8036 14.4896 90.7327 14.396 90.6295 14.319C90.528 14.2402 90.409 14.1807 90.2725 14.1405C90.136 14.0985 89.9951 14.0775 89.8498 14.0775C89.6836 14.0757 89.5278 14.1037 89.3826 14.1615C89.2391 14.2175 89.1227 14.2962 89.0335 14.3977C88.9442 14.4975 88.8996 14.6147 88.8996 14.7495C88.8996 14.907 88.9407 15.0286 89.023 15.1144C89.107 15.1984 89.2207 15.2614 89.3642 15.3034C89.5077 15.3454 89.6696 15.383 89.8498 15.4162C90.0843 15.4565 90.3022 15.5195 90.5035 15.6052C90.7047 15.6892 90.8666 15.8021 90.9891 15.9439C91.1116 16.0839 91.1728 16.2571 91.1728 16.4636C91.1728 16.6736 91.1116 16.8574 90.9891 17.0149C90.8666 17.1706 90.7047 17.2914 90.5035 17.3771C90.304 17.4629 90.0861 17.5058 89.8498 17.5058ZM91.7014 17.4375V13.7625H92.9168C93.1706 13.7625 93.4086 13.8106 93.6308 13.9069C93.8531 14.0014 94.0482 14.1335 94.2162 14.3032C94.3842 14.4712 94.5154 14.6664 94.6099 14.8886C94.7062 15.1091 94.7543 15.3462 94.7543 15.6C94.7543 15.8537 94.7062 16.0917 94.6099 16.314C94.5154 16.5345 94.3842 16.7296 94.2162 16.8994C94.0482 17.0674 93.8531 17.1995 93.6308 17.2957C93.4086 17.3902 93.1706 17.4375 92.9168 17.4375H91.7014ZM92.0689 17.07H92.9168C93.1198 17.07 93.3097 17.0324 93.4864 16.9571C93.6649 16.8801 93.8216 16.7742 93.9563 16.6395C94.0911 16.5047 94.1961 16.349 94.2713 16.1722C94.3483 15.9937 94.3868 15.803 94.3868 15.6C94.3868 15.397 94.3483 15.2071 94.2713 15.0304C94.1961 14.8519 94.0902 14.6952 93.9537 14.5605C93.8189 14.4257 93.6632 14.3207 93.4864 14.2455C93.3097 14.1685 93.1198 14.13 92.9168 14.13H92.0689V17.07Z" fill="#0B9FE1"/>
<line x1="10.5" y1="25.6719" x2="110.688" y2="25.6719" stroke="#F0F0F0" stroke-width="0.65625"/>
<path d="M33.7982 13.7125V14.1412H32.3282V18H31.8994V14.1412H30.4325V13.7125H33.7982ZM35.1595 18.0796C34.8778 18.0796 34.6205 18.0071 34.3878 17.8622C34.1571 17.7172 33.9723 17.5233 33.8335 17.2803C33.6967 17.0353 33.6283 16.7648 33.6283 16.4688C33.6283 16.2442 33.6681 16.0349 33.7477 15.8409C33.8273 15.6449 33.9366 15.4734 34.0754 15.3264C34.2163 15.1774 34.3796 15.061 34.5654 14.9773C34.7512 14.8936 34.9492 14.8518 35.1595 14.8518C35.4413 14.8518 35.6975 14.9242 35.9282 15.0692C36.161 15.2141 36.3457 15.4091 36.4825 15.6541C36.6214 15.8991 36.6908 16.1707 36.6908 16.4688C36.6908 16.6913 36.651 16.8995 36.5713 17.0935C36.4917 17.2875 36.3815 17.459 36.2406 17.608C36.1017 17.755 35.9394 17.8704 35.7536 17.9541C35.5699 18.0378 35.3719 18.0796 35.1595 18.0796ZM35.1595 17.6509C35.3678 17.6509 35.5546 17.5968 35.72 17.4886C35.8874 17.3783 36.0191 17.2334 36.115 17.0537C36.213 16.874 36.262 16.679 36.262 16.4688C36.262 16.2544 36.213 16.0574 36.115 15.8777C36.017 15.696 35.8843 15.551 35.7169 15.4428C35.5515 15.3346 35.3657 15.2805 35.1595 15.2805C34.9513 15.2805 34.7634 15.3356 34.596 15.4459C34.4306 15.5541 34.299 15.698 34.201 15.8777C34.105 16.0574 34.057 16.2544 34.057 16.4688C34.057 16.6892 34.107 16.8893 34.2071 17.069C34.3071 17.2466 34.4409 17.3885 34.6083 17.4947C34.7757 17.5988 34.9594 17.6509 35.1595 17.6509ZM38.5981 15.3662H37.8661L37.8631 18H37.4343L37.4374 15.3662H36.8831V14.9375H37.4374L37.4343 13.9759H37.8631L37.8661 14.9375H38.5981V15.3662ZM41.4557 14.9375H41.8845V18H41.4557L41.4404 17.4304C41.3404 17.6243 41.2005 17.7815 41.0209 17.902C40.8412 18.0204 40.6268 18.0796 40.3777 18.0796C40.1531 18.0796 39.9429 18.0378 39.7469 17.9541C39.5509 17.8683 39.3783 17.7509 39.2293 17.6019C39.0803 17.4528 38.9639 17.2803 38.8802 17.0843C38.7965 16.8883 38.7546 16.678 38.7546 16.4534C38.7546 16.2329 38.7954 16.0257 38.8771 15.8317C38.9608 15.6378 39.0751 15.4673 39.2201 15.3203C39.3671 15.1733 39.5366 15.059 39.7285 14.9773C39.9224 14.8936 40.1297 14.8518 40.3502 14.8518C40.6054 14.8518 40.8279 14.913 41.0178 15.0355C41.2077 15.156 41.3588 15.3142 41.471 15.5102L41.4557 14.9375ZM40.3685 17.6631C40.587 17.6631 40.7748 17.61 40.932 17.5039C41.0893 17.3957 41.2097 17.2507 41.2934 17.069C41.3792 16.8873 41.422 16.6872 41.422 16.4688C41.422 16.2442 41.3792 16.042 41.2934 15.8624C41.2077 15.6807 41.0862 15.5367 40.929 15.4306C40.7718 15.3244 40.585 15.2713 40.3685 15.2713C40.1521 15.2713 39.9541 15.3254 39.7744 15.4336C39.5968 15.5398 39.4549 15.6837 39.3487 15.8654C39.2446 16.0471 39.1925 16.2482 39.1925 16.4688C39.1925 16.6913 39.2466 16.8934 39.3549 17.0751C39.4631 17.2548 39.606 17.3977 39.7836 17.5039C39.9633 17.61 40.1583 17.6631 40.3685 17.6631ZM42.4167 18V13.4062H42.8454V18H42.4167ZM44.8095 18V13.7125H46.2642C46.4929 13.7125 46.6991 13.7686 46.8828 13.8809C47.0666 13.9912 47.2125 14.1412 47.3208 14.3311C47.429 14.519 47.4831 14.7303 47.4831 14.9651C47.4831 15.1754 47.4402 15.3662 47.3544 15.5377C47.2687 15.7092 47.1513 15.8511 47.0023 15.9634C46.8553 16.0757 46.6889 16.1502 46.5031 16.187L47.5504 18H47.0543L46.0223 16.2207H45.2383V18H44.8095ZM45.2383 15.7919H46.2274C46.3785 15.7919 46.5163 15.7552 46.6409 15.6817C46.7675 15.6061 46.8675 15.5051 46.941 15.3785C47.0165 15.2499 47.0543 15.1049 47.0543 14.9436C47.0543 14.7823 47.0165 14.6384 46.941 14.5118C46.8675 14.3832 46.7675 14.2821 46.6409 14.2086C46.5163 14.1331 46.3785 14.0953 46.2274 14.0953H45.2383V15.7919ZM49.3363 18.0796C49.0545 18.0796 48.7973 18.0071 48.5645 17.8622C48.3338 17.7172 48.149 17.5233 48.0102 17.2803C47.8734 17.0353 47.805 16.7648 47.805 16.4688C47.805 16.2442 47.8448 16.0349 47.9244 15.8409C48.0041 15.6449 48.1133 15.4734 48.2521 15.3264C48.393 15.1774 48.5563 15.061 48.7421 14.9773C48.9279 14.8936 49.126 14.8518 49.3363 14.8518C49.5629 14.8518 49.7711 14.8967 49.961 14.9865C50.1529 15.0763 50.3173 15.2019 50.4541 15.3632C50.5929 15.5245 50.697 15.7133 50.7664 15.9297C50.8379 16.1462 50.8675 16.3799 50.8553 16.6311H48.2583C48.2828 16.825 48.344 16.9986 48.442 17.1517C48.5421 17.3048 48.6686 17.4263 48.8218 17.5161C48.9769 17.6039 49.1484 17.6488 49.3363 17.6509C49.5404 17.6509 49.7242 17.5978 49.8875 17.4916C50.0529 17.3855 50.1856 17.2395 50.2856 17.0537L50.7205 17.1547C50.598 17.4263 50.4132 17.6488 50.1662 17.8224C49.9192 17.9939 49.6425 18.0796 49.3363 18.0796ZM48.246 16.285H50.4234C50.4092 16.0951 50.351 15.9216 50.2489 15.7644C50.1488 15.6051 50.0192 15.4785 49.8599 15.3846C49.7007 15.2887 49.5261 15.2407 49.3363 15.2407C49.1464 15.2407 48.9728 15.2876 48.8156 15.3816C48.6584 15.4734 48.5298 15.599 48.4298 15.7582C48.3297 15.9155 48.2685 16.091 48.246 16.285ZM52.6053 18H52.0602L50.9424 14.9283H51.3987L52.3328 17.4977L53.2668 14.9283H53.7231L52.6053 18ZM55.3359 18.0796C55.0541 18.0796 54.7969 18.0071 54.5641 17.8622C54.3334 17.7172 54.1487 17.5233 54.0098 17.2803C53.873 17.0353 53.8046 16.7648 53.8046 16.4688C53.8046 16.2442 53.8445 16.0349 53.9241 15.8409C54.0037 15.6449 54.1129 15.4734 54.2518 15.3264C54.3926 15.1774 54.556 15.061 54.7418 14.9773C54.9276 14.8936 55.1256 14.8518 55.3359 14.8518C55.5625 14.8518 55.7708 14.8967 55.9606 14.9865C56.1526 15.0763 56.3169 15.2019 56.4537 15.3632C56.5925 15.5245 56.6967 15.7133 56.7661 15.9297C56.8375 16.1462 56.8671 16.3799 56.8549 16.6311H54.2579C54.2824 16.825 54.3436 16.9986 54.4416 17.1517C54.5417 17.3048 54.6683 17.4263 54.8214 17.5161C54.9766 17.6039 55.1481 17.6488 55.3359 17.6509C55.5401 17.6509 55.7238 17.5978 55.8871 17.4916C56.0525 17.3855 56.1852 17.2395 56.2853 17.0537L56.7201 17.1547C56.5976 17.4263 56.4129 17.6488 56.1658 17.8224C55.9188 17.9939 55.6421 18.0796 55.3359 18.0796ZM54.2456 16.285H56.4231C56.4088 16.0951 56.3506 15.9216 56.2485 15.7644C56.1485 15.6051 56.0188 15.4785 55.8596 15.3846C55.7003 15.2887 55.5258 15.2407 55.3359 15.2407C55.146 15.2407 54.9725 15.2876 54.8153 15.3816C54.6581 15.4734 54.5294 15.599 54.4294 15.7582C54.3293 15.9155 54.2681 16.091 54.2456 16.285ZM59.9279 16.1043V18H59.4991V16.1901C59.4991 16.0226 59.4583 15.8705 59.3766 15.7337C59.295 15.597 59.1857 15.4877 59.0489 15.4061C58.9121 15.3244 58.76 15.2836 58.5926 15.2836C58.4272 15.2836 58.2751 15.3244 58.1363 15.4061C57.9995 15.4877 57.8903 15.597 57.8086 15.7337C57.727 15.8705 57.6861 16.0226 57.6861 16.1901V18H57.2574V14.9375H57.6861V15.3601C57.7943 15.205 57.9352 15.0814 58.1087 14.9896C58.2823 14.8977 58.4711 14.8518 58.6753 14.8518C58.906 14.8518 59.1163 14.9079 59.3062 15.0202C59.4961 15.1325 59.6471 15.2836 59.7594 15.4734C59.8717 15.6633 59.9279 15.8736 59.9279 16.1043ZM60.2962 16.8271V14.9375H60.7249V16.7413C60.7249 16.9087 60.7658 17.0608 60.8474 17.1976C60.9291 17.3344 61.0383 17.4436 61.1751 17.5253C61.314 17.607 61.4661 17.6478 61.6314 17.6478C61.7988 17.6478 61.9499 17.607 62.0847 17.5253C62.2215 17.4436 62.3307 17.3344 62.4124 17.1976C62.494 17.0608 62.5349 16.9087 62.5349 16.7413V14.9375H62.9636L62.9667 18H62.5379L62.5349 17.5712C62.4267 17.7264 62.2858 17.8499 62.1122 17.9418C61.9407 18.0337 61.7529 18.0796 61.5487 18.0796C61.318 18.0796 61.1077 18.0235 60.9179 17.9112C60.728 17.7989 60.5769 17.6478 60.4646 17.4579C60.3523 17.2681 60.2962 17.0578 60.2962 16.8271ZM64.778 18.0796C64.4962 18.0796 64.239 18.0071 64.0062 17.8622C63.7755 17.7172 63.5907 17.5233 63.4519 17.2803C63.3151 17.0353 63.2467 16.7648 63.2467 16.4688C63.2467 16.2442 63.2865 16.0349 63.3661 15.8409C63.4458 15.6449 63.555 15.4734 63.6938 15.3264C63.8347 15.1774 63.998 15.061 64.1838 14.9773C64.3696 14.8936 64.5677 14.8518 64.778 14.8518C65.0046 14.8518 65.2128 14.8967 65.4027 14.9865C65.5946 15.0763 65.759 15.2019 65.8958 15.3632C66.0346 15.5245 66.1387 15.7133 66.2081 15.9297C66.2796 16.1462 66.3092 16.3799 66.297 16.6311H63.7C63.7245 16.825 63.7857 16.9986 63.8837 17.1517C63.9837 17.3048 64.1103 17.4263 64.2635 17.5161C64.4186 17.6039 64.5901 17.6488 64.778 17.6509C64.9821 17.6509 65.1659 17.5978 65.3292 17.4916C65.4946 17.3855 65.6273 17.2395 65.7273 17.0537L66.1622 17.1547C66.0397 17.4263 65.8549 17.6488 65.6079 17.8224C65.3609 17.9939 65.0842 18.0796 64.778 18.0796ZM63.6877 16.285H65.8651C65.8509 16.0951 65.7927 15.9216 65.6906 15.7644C65.5905 15.6051 65.4609 15.4785 65.3016 15.3846C65.1424 15.2887 64.9678 15.2407 64.778 15.2407C64.5881 15.2407 64.4145 15.2876 64.2573 15.3816C64.1001 15.4734 63.9715 15.599 63.8715 15.7582C63.7714 15.9155 63.7102 16.091 63.6877 16.285Z" fill="#777777"/>
<defs>
<filter id="filter0_d_3488_47272" x="0.875" y="0.625" width="117.25" height="75.25" filterUnits="userSpaceOnUse" color-interpolation-filters="sRGB">
<feFlood flood-opacity="0" result="BackgroundImageFix"/>
<feColorMatrix in="SourceAlpha" type="matrix" values="0 0 0 0 0 0 0 0 0 0 0 0 0 0 0 0 0 0 127 0" result="hardAlpha"/>
<feOffset dy="1.75"/>
<feGaussianBlur stdDeviation="3.0625"/>
<feComposite in2="hardAlpha" operator="out"/>
<feColorMatrix type="matrix" values="0 0 0 0 0.859167 0 0 0 0 0.859167 0 0 0 0 0.859167 0 0 0 0.25 0"/>
<feBlend mode="normal" in2="BackgroundImageFix" result="effect1_dropShadow_3488_47272"/>
<feBlend mode="normal" in="SourceGraphic" in2="effect1_dropShadow_3488_47272" result="shape"/>
</filter>
</defs>
</svg>
