<svg width="72" height="73" viewBox="0 0 72 73" fill="none" xmlns="http://www.w3.org/2000/svg">
<rect y="0.5" width="72" height="72" rx="8" fill="url(#paint0_linear_1999_21746)"/>
<path d="M38.9179 33.166C38.9179 33.856 39.4779 34.416 40.1679 34.416H41.3179L37.9629 37.771C37.9242 37.8098 37.8782 37.8406 37.8276 37.8616C37.777 37.8826 37.7227 37.8934 37.6679 37.8934C37.6131 37.8934 37.5588 37.8826 37.5082 37.8616C37.4576 37.8406 37.4116 37.8098 37.3729 37.771L34.7296 35.1277C34.1826 34.5811 33.4411 34.2741 32.6679 34.2741C31.8947 34.2741 31.1532 34.5811 30.6062 35.1277L26.7846 38.9493C26.6618 39.0638 26.5633 39.2018 26.4949 39.3551C26.4266 39.5085 26.3899 39.674 26.3869 39.8418C26.384 40.0097 26.4148 40.1764 26.4777 40.332C26.5406 40.4877 26.6341 40.629 26.7528 40.7477C26.8715 40.8664 27.0129 40.96 27.1686 41.0229C27.3242 41.0858 27.4909 41.1166 27.6588 41.1137C27.8266 41.1107 27.9921 41.074 28.1455 41.0057C28.2988 40.9373 28.4368 40.8388 28.5512 40.716L32.3729 36.8943C32.4116 36.8555 32.4576 36.8248 32.5082 36.8038C32.5588 36.7828 32.6131 36.7719 32.6679 36.7719C32.7227 36.7719 32.777 36.7828 32.8276 36.8038C32.8782 36.8248 32.9242 36.8555 32.9629 36.8943L35.6062 39.5377C36.1532 40.0842 36.8947 40.3912 37.6679 40.3912C38.4411 40.3912 39.1826 40.0842 39.7296 39.5377L43.0846 36.1843V37.3327C43.0846 37.6642 43.2163 37.9821 43.4507 38.2166C43.6851 38.451 44.003 38.5827 44.3346 38.5827C44.6661 38.5827 44.984 38.451 45.2185 38.2166C45.4529 37.9821 45.5846 37.6642 45.5846 37.3327V33.166C45.5846 32.8345 45.4529 32.5166 45.2185 32.2821C44.984 32.0477 44.6661 31.916 44.3346 31.916H40.1679C39.8364 31.916 39.5184 32.0477 39.284 32.2821C39.0496 32.5166 38.9179 32.8345 38.9179 33.166Z" fill="#0E093C"/>
<path fill-rule="evenodd" clip-rule="evenodd" d="M35.9037 18.584C32.0554 18.584 29.0404 18.584 26.687 18.9007C24.2804 19.224 22.3804 19.9007 20.8887 21.3907C19.397 22.8823 18.722 24.7823 18.3987 27.1907C18.082 29.5423 18.082 32.5573 18.082 36.4057V36.5957C18.082 40.444 18.082 43.459 18.3987 45.8123C18.722 48.219 19.3987 50.119 20.8887 51.6106C22.3804 53.1023 24.2804 53.7773 26.6887 54.1007C29.0404 54.4173 32.0554 54.4173 35.9037 54.4173H36.0937C39.942 54.4173 42.957 54.4173 45.3104 54.1007C47.717 53.7773 49.617 53.1007 51.1087 51.6106C52.6004 50.119 53.2754 48.219 53.5987 45.8107C53.9154 43.459 53.9154 40.444 53.9154 36.5957V36.4057C53.9154 32.5573 53.9154 29.5423 53.5987 27.189C53.2754 24.7823 52.5987 22.8823 51.1087 21.3907C49.617 19.899 47.717 19.224 45.3087 18.9007C42.957 18.584 39.942 18.584 36.0937 18.584H35.9037ZM22.657 23.159C23.607 22.209 24.8904 21.664 27.022 21.3773C29.1887 21.0873 32.0354 21.084 35.9987 21.084C39.962 21.084 42.8087 21.0873 44.9754 21.3773C47.107 21.664 48.392 22.2107 49.342 23.159C50.2904 24.109 50.8354 25.3923 51.122 27.524C51.412 29.6906 51.4154 32.5373 51.4154 36.5007C51.4154 40.464 51.412 43.3106 51.122 45.4773C50.8354 47.609 50.2887 48.894 49.3404 49.844C48.3904 50.7923 47.107 51.3373 44.9754 51.624C42.8087 51.914 39.962 51.9173 35.9987 51.9173C32.0354 51.9173 29.1887 51.914 27.022 51.624C24.8904 51.3373 23.6054 50.7906 22.6554 49.8423C21.707 48.8923 21.162 47.609 20.8754 45.4773C20.5854 43.3106 20.582 40.464 20.582 36.5007C20.582 32.5373 20.5854 29.6906 20.8754 27.524C21.162 25.3923 21.7087 24.109 22.657 23.159Z" fill="#0E093C"/>
<defs>
<linearGradient id="paint0_linear_1999_21746" x1="36" y1="0.499997" x2="90.9966" y2="17.2931" gradientUnits="userSpaceOnUse">
<stop stop-color="#F6F6F6"/>
<stop offset="1" stop-color="#F2EFEF"/>
</linearGradient>
</defs>
</svg>
