<svg width="16" height="16" viewBox="0 0 16 16" fill="none" xmlns="http://www.w3.org/2000/svg">
<path d="M14.2849 1.71756C13.9515 1.3769 13.4582 1.2509 12.9982 1.38423L2.27153 4.48356C1.7862 4.61823 1.4422 5.0029 1.34953 5.4909C1.25487 5.98823 1.58553 6.62023 2.01753 6.88423L5.37153 8.93223C5.71553 9.1429 6.15953 9.09023 6.4442 8.8049L10.2849 4.96423C10.4782 4.76356 10.7982 4.76356 10.9915 4.96423C11.1849 5.1569 11.1849 5.4709 10.9915 5.6709L7.1442 9.51156C6.85887 9.7969 6.80553 10.2396 7.01553 10.5842L9.06486 13.9509C9.30486 14.3502 9.7182 14.5776 10.1715 14.5776C10.2249 14.5776 10.2849 14.5776 10.3382 14.5702C10.8582 14.5042 11.2715 14.1502 11.4249 13.6502L14.6049 3.00423C14.7449 2.5509 14.6182 2.05756 14.2849 1.71756Z" fill="#0B9FE1"/>
<path opacity="0.4" fill-rule="evenodd" clip-rule="evenodd" d="M2.00691 11.2039C1.87891 11.2039 1.75091 11.1553 1.65358 11.0573C1.45825 10.8619 1.45825 10.5459 1.65358 10.3506L2.56358 9.43995C2.75891 9.24528 3.07558 9.24528 3.27091 9.43995C3.46558 9.63528 3.46558 9.95195 3.27091 10.1473L2.36025 11.0573C2.26291 11.1553 2.13491 11.2039 2.00691 11.2039ZM4.51442 12C4.38642 12 4.25842 11.9513 4.16108 11.8533C3.96575 11.658 3.96575 11.342 4.16108 11.1467L5.07108 10.236C5.26642 10.0413 5.58308 10.0413 5.77842 10.236C5.97308 10.4313 5.97308 10.748 5.77842 10.9433L4.86775 11.8533C4.77042 11.9513 4.64242 12 4.51442 12ZM4.68349 14.378C4.78083 14.476 4.90883 14.5247 5.03683 14.5247C5.16483 14.5247 5.29283 14.476 5.39016 14.378L6.30083 13.468C6.49549 13.2727 6.49549 12.956 6.30083 12.7607C6.10549 12.566 5.78883 12.566 5.59349 12.7607L4.68349 13.6713C4.48816 13.8667 4.48816 14.1827 4.68349 14.378Z" fill="#0B9FE1"/>
</svg>
