<svg width="22" height="22" viewBox="0 0 22 22" fill="none" xmlns="http://www.w3.org/2000/svg">
<path d="M19.4608 13.1722C19.2828 12.8972 19.0299 12.6222 18.702 12.448C18.4397 12.3197 18.2711 12.1088 18.1212 11.8613C17.6434 11.073 17.9244 10.0372 18.7207 9.56967C19.6575 9.04717 19.9573 7.88301 19.414 6.97551L18.7863 5.89384C18.2523 4.98634 17.0813 4.66551 16.1539 5.19717C15.3295 5.63717 14.271 5.34384 13.7932 4.56467C13.6433 4.30801 13.559 4.03301 13.5777 3.75801C13.6058 3.40051 13.4934 3.06134 13.3248 2.78634C12.9782 2.21801 12.3505 1.83301 11.6573 1.83301H10.3364C9.65256 1.85134 9.0249 2.21801 8.67829 2.78634C8.5003 3.06134 8.39725 3.40051 8.41599 3.75801C8.43472 4.03301 8.35041 4.30801 8.20052 4.56467C7.72276 5.34384 6.66418 5.63717 5.84917 5.19717C4.91238 4.66551 3.75075 4.98634 3.20741 5.89384L2.57976 6.97551C2.04579 7.88301 2.34556 9.04717 3.27299 9.56967C4.06926 10.0372 4.3503 11.073 3.8819 11.8613C3.72265 12.1088 3.55402 12.3197 3.29172 12.448C2.97321 12.6222 2.69217 12.8972 2.54229 13.1722C2.19567 13.7405 2.21441 14.4555 2.56102 15.0513L3.20741 16.1513C3.55402 16.738 4.20041 17.1047 4.8749 17.1047C5.19341 17.1047 5.56813 17.013 5.86791 16.8297C6.1021 16.6738 6.38314 16.6188 6.69229 16.6188C7.61971 16.6188 8.39725 17.3797 8.41599 18.2872C8.41599 19.3413 9.27784 20.1663 10.3645 20.1663H11.6386C12.7159 20.1663 13.5777 19.3413 13.5777 18.2872C13.6058 17.3797 14.3834 16.6188 15.3108 16.6188C15.6106 16.6188 15.8916 16.6738 16.1352 16.8297C16.4349 17.013 16.8003 17.1047 17.1282 17.1047C17.7933 17.1047 18.4397 16.738 18.7863 16.1513L19.4421 15.0513C19.7793 14.4372 19.8074 13.7405 19.4608 13.1722Z" fill="white"/>
<path d="M11.0108 13.5942C9.54007 13.5942 8.35034 12.4484 8.35034 11.0092C8.35034 9.57004 9.54007 8.41504 11.0108 8.41504C12.4816 8.41504 13.6432 9.57004 13.6432 11.0092C13.6432 12.4484 12.4816 13.5942 11.0108 13.5942Z" fill="#003E79"/>
</svg>
