<svg width="23" height="24" viewBox="0 0 23 24" fill="none" xmlns="http://www.w3.org/2000/svg">
<path d="M11.4986 23.9034C17.8491 23.9034 22.9971 18.7553 22.9971 12.4048C22.9971 6.05433 17.8491 0.90625 11.4986 0.90625C5.14808 0.90625 0 6.05433 0 12.4048C0 18.7553 5.14808 23.9034 11.4986 23.9034Z" fill="url(#paint0_radial_1_74074)"/>
<g style="mix-blend-mode:soft-light">
<path d="M11.4986 23.9034C17.8491 23.9034 22.9971 18.7553 22.9971 12.4048C22.9971 6.05433 17.8491 0.90625 11.4986 0.90625C5.14808 0.90625 0 6.05433 0 12.4048C0 18.7553 5.14808 23.9034 11.4986 23.9034Z" fill="url(#paint1_radial_1_74074)"/>
</g>
<g style="mix-blend-mode:soft-light">
<path d="M11.4986 23.9034C17.8491 23.9034 22.9971 18.7553 22.9971 12.4048C22.9971 6.05433 17.8491 0.90625 11.4986 0.90625C5.14808 0.90625 0 6.05433 0 12.4048C0 18.7553 5.14808 23.9034 11.4986 23.9034Z" fill="url(#paint2_radial_1_74074)"/>
</g>
<g style="mix-blend-mode:overlay">
<path d="M11.4986 23.9034C17.8491 23.9034 22.9971 18.7553 22.9971 12.4048C22.9971 6.05433 17.8491 0.90625 11.4986 0.90625C5.14808 0.90625 0 6.05433 0 12.4048C0 18.7553 5.14808 23.9034 11.4986 23.9034Z" fill="url(#paint3_radial_1_74074)" fill-opacity="0.7"/>
</g>
<mask id="mask0_1_74074" style="mask-type:alpha" maskUnits="userSpaceOnUse" x="0" y="0" width="23" height="24">
<path d="M11.4986 23.9034C17.8491 23.9034 22.9971 18.7553 22.9971 12.4048C22.9971 6.05433 17.8491 0.90625 11.4986 0.90625C5.14808 0.90625 0 6.05433 0 12.4048C0 18.7553 5.14808 23.9034 11.4986 23.9034Z" fill="white"/>
</mask>
<g mask="url(#mask0_1_74074)">
<g filter="url(#filter0_f_1_74074)">
<path d="M-0.065494 12.076C-0.0530083 11.9126 0.000757113 11.8962 0.0164387 12.0621C0.0338613 12.2464 -6.51926e-06 12.617 0.00814736 12.8405C0.0297373 13.4323 0.120459 13.9469 0.213982 14.3655C0.515365 15.7143 0.932733 16.5835 1.32202 17.3199C2.60162 19.7405 4.00333 20.9663 5.37073 21.89C7.37512 23.2442 9.39579 23.6749 11.4181 23.7663C11.4691 23.7686 11.4776 24.1008 11.4274 24.1441C11.3369 24.2221 11.2248 24.1447 11.1322 24.1414C10.8662 24.1321 10.6002 24.1139 10.3342 24.0862C9.5455 24.0043 8.75683 23.8373 7.96975 23.5688C5.8297 22.8387 3.52226 21.5884 1.50711 18.0671C1.38034 17.8456 1.25458 17.6124 1.13059 17.3618C1.03144 17.1613 0.933251 16.9512 0.83679 16.7265C0.519516 15.9875 -0.219838 14.0955 -0.065494 12.076ZM11.4195 24.1477C11.3709 24.1492 11.3585 23.8394 11.4049 23.7751C11.475 23.6779 11.5801 23.7579 11.654 23.7533C11.961 23.7341 12.2679 23.7057 12.5747 23.6672C13.416 23.5615 14.2566 23.3811 15.0954 23.1034C17.1758 22.4144 19.4125 21.3641 21.3736 18.1372C21.4984 17.9318 21.6222 17.7139 21.7442 17.4797C22.1152 16.768 23.045 14.8786 22.9375 12.53C22.9284 12.332 22.9887 12.2134 23.0157 12.3832C23.05 12.5995 23.0361 13.0503 23.0266 13.2902C22.9964 14.0586 22.8784 14.7083 22.7539 15.2331C22.3597 16.896 21.8061 17.8603 21.2992 18.6654C19.6515 21.2822 17.8619 22.3371 16.1221 23.0952C14.5616 23.7751 12.9892 24.0992 11.4195 24.1477Z" fill="#401C02"/>
</g>
<g filter="url(#filter1_f_1_74074)">
<path d="M-0.065494 12.076C-0.0530083 11.9126 0.000757113 11.8962 0.0164387 12.0621C0.0338613 12.2464 -6.51926e-06 12.617 0.00814736 12.8405C0.0297373 13.4323 0.120459 13.9469 0.213982 14.3655C0.515365 15.7143 0.932733 16.5835 1.32202 17.3199C2.60162 19.7405 4.00333 20.9663 5.37073 21.89C7.37512 23.2442 9.39579 23.6749 11.4181 23.7663C11.4691 23.7686 11.4776 24.1008 11.4274 24.1441C11.3369 24.2221 11.2248 24.1447 11.1322 24.1414C10.8662 24.1321 10.6002 24.1139 10.3342 24.0862C9.5455 24.0043 8.75683 23.8373 7.96975 23.5688C5.8297 22.8387 3.52226 21.5884 1.50711 18.0671C1.38034 17.8456 1.25458 17.6124 1.13059 17.3618C1.03144 17.1613 0.933251 16.9512 0.83679 16.7265C0.519516 15.9875 -0.219838 14.0955 -0.065494 12.076ZM11.4195 24.1477C11.3709 24.1492 11.3585 23.8394 11.4049 23.7751C11.475 23.6779 11.5801 23.7579 11.654 23.7533C11.961 23.7341 12.2679 23.7057 12.5747 23.6672C13.416 23.5615 14.2566 23.3811 15.0954 23.1034C17.1758 22.4144 19.4125 21.3641 21.3736 18.1372C21.4984 17.9318 21.6222 17.7139 21.7442 17.4797C22.1152 16.768 23.045 14.8786 22.9375 12.53C22.9284 12.332 22.9887 12.2134 23.0157 12.3832C23.05 12.5995 23.0361 13.0503 23.0266 13.2902C22.9964 14.0586 22.8784 14.7083 22.7539 15.2331C22.3597 16.896 21.8061 17.8603 21.2992 18.6654C19.6515 21.2822 17.8619 22.3371 16.1221 23.0952C14.5616 23.7751 12.9892 24.0992 11.4195 24.1477Z" fill="#401C02"/>
</g>
</g>
<path d="M18.1142 15.1046C15.2875 19.4374 7.66689 19.4398 4.84684 15.1003C4.82197 15.0622 4.81123 15.0165 4.81649 14.9713C4.82175 14.9261 4.84266 14.8841 4.87561 14.8527C4.90856 14.8213 4.95147 14.8024 4.99689 14.7993C5.04232 14.7962 5.0874 14.8091 5.12431 14.8357C8.81064 17.4932 14.1504 17.498 17.8362 14.84C17.8731 14.8131 17.9183 14.7999 17.9639 14.8029C18.0095 14.8058 18.0526 14.8247 18.0857 14.8562C18.1188 14.8877 18.1398 14.9299 18.145 14.9753C18.1502 15.0207 18.1393 15.0664 18.1142 15.1046Z" fill="url(#paint4_radial_1_74074)"/>
<path d="M18.1142 15.1046C15.2875 19.4374 7.66689 19.4398 4.84684 15.1003C4.82197 15.0622 4.81123 15.0165 4.81649 14.9713C4.82175 14.9261 4.84266 14.8841 4.87561 14.8527C4.90856 14.8213 4.95147 14.8024 4.99689 14.7993C5.04232 14.7962 5.0874 14.8091 5.12431 14.8357C8.81064 17.4932 14.1504 17.498 17.8362 14.84C17.8731 14.8131 17.9183 14.7999 17.9639 14.8029C18.0095 14.8058 18.0526 14.8247 18.0857 14.8562C18.1188 14.8877 18.1398 14.9299 18.145 14.9753C18.1502 15.0207 18.1393 15.0664 18.1142 15.1046V15.1046Z" stroke="url(#paint5_linear_1_74074)" stroke-width="0.119191" stroke-miterlimit="10"/>
<path d="M9.84985 10.8936C9.8516 11.3103 9.78641 11.7246 9.65677 12.1207C9.64331 12.1655 9.61606 12.2049 9.5789 12.2332C9.54174 12.2615 9.49657 12.2774 9.44985 12.2785C9.39652 12.2769 9.34553 12.2563 9.30597 12.2205C9.26641 12.1847 9.24086 12.136 9.23388 12.0831C9.08703 11.2034 8.51587 10.5474 7.83315 10.5474C7.15042 10.5474 6.57926 11.2034 6.43242 12.0831C6.42544 12.136 6.39989 12.1847 6.36033 12.2205C6.32077 12.2563 6.26977 12.2769 6.21644 12.2785C6.16974 12.2773 6.12461 12.2614 6.08746 12.2331C6.05032 12.2048 6.02305 12.1655 6.00953 12.1207C5.87989 11.7246 5.8147 11.3103 5.81644 10.8936C5.81644 9.30831 6.71943 8.02344 7.83315 8.02344C8.94687 8.02344 9.84985 9.30831 9.84985 10.8936Z" fill="url(#paint6_radial_1_74074)"/>
<path d="M9.84985 10.8936C9.8516 11.3103 9.78641 11.7246 9.65677 12.1207C9.64331 12.1655 9.61606 12.2049 9.5789 12.2332C9.54174 12.2615 9.49657 12.2774 9.44985 12.2785C9.39652 12.2769 9.34553 12.2563 9.30597 12.2205C9.26641 12.1847 9.24086 12.136 9.23388 12.0831C9.08703 11.2034 8.51587 10.5474 7.83315 10.5474C7.15042 10.5474 6.57926 11.2034 6.43242 12.0831C6.42544 12.136 6.39989 12.1847 6.36033 12.2205C6.32077 12.2563 6.26977 12.2769 6.21644 12.2785V12.2785C6.16974 12.2773 6.12461 12.2614 6.08746 12.2331C6.05032 12.2048 6.02305 12.1655 6.00953 12.1207C5.87989 11.7246 5.8147 11.3103 5.81644 10.8936C5.81644 9.30831 6.71943 8.02344 7.83315 8.02344C8.94687 8.02344 9.84985 9.30831 9.84985 10.8936Z" stroke="url(#paint7_linear_1_74074)" stroke-width="0.0953526" stroke-miterlimit="10"/>
<path d="M17.2103 10.8936C17.2128 11.3102 17.1484 11.7245 17.0196 12.1207C17.0061 12.1655 16.9789 12.2049 16.9417 12.2332C16.9045 12.2615 16.8594 12.2774 16.8126 12.2785C16.7593 12.2769 16.7083 12.2563 16.6688 12.2205C16.6292 12.1847 16.6037 12.136 16.5967 12.0831C16.4498 11.2034 15.8787 10.5474 15.1959 10.5474C14.5132 10.5474 13.9421 11.2034 13.7952 12.0831C13.7882 12.136 13.7627 12.1847 13.7231 12.2205C13.6836 12.2563 13.6326 12.2769 13.5792 12.2785C13.5325 12.2774 13.4873 12.2615 13.4502 12.2332C13.413 12.2049 13.3858 12.1655 13.3723 12.1207C13.2427 11.7246 13.1775 11.3103 13.1792 10.8936C13.1792 9.30831 14.0822 8.02344 15.1959 8.02344C16.3097 8.02344 17.2103 9.30831 17.2103 10.8936Z" fill="url(#paint8_radial_1_74074)"/>
<path d="M17.2103 10.8936C17.2128 11.3102 17.1484 11.7245 17.0196 12.1207C17.0061 12.1655 16.9789 12.2049 16.9417 12.2332C16.9045 12.2615 16.8594 12.2774 16.8126 12.2785C16.7593 12.2769 16.7083 12.2563 16.6688 12.2205C16.6292 12.1847 16.6037 12.136 16.5967 12.0831C16.4498 11.2034 15.8787 10.5474 15.1959 10.5474C14.5132 10.5474 13.9421 11.2034 13.7952 12.0831C13.7882 12.136 13.7627 12.1847 13.7231 12.2205C13.6836 12.2563 13.6326 12.2769 13.5792 12.2785C13.5325 12.2774 13.4873 12.2615 13.4502 12.2332C13.413 12.2049 13.3858 12.1655 13.3723 12.1207C13.2427 11.7246 13.1775 11.3103 13.1792 10.8936C13.1792 9.30831 14.0822 8.02344 15.1959 8.02344C16.3097 8.02344 17.2103 9.30831 17.2103 10.8936Z" fill="url(#paint9_radial_1_74074)"/>
<path d="M17.2103 10.8936C17.2128 11.3102 17.1484 11.7245 17.0196 12.1207C17.0061 12.1655 16.9789 12.2049 16.9417 12.2332C16.9045 12.2615 16.8594 12.2774 16.8126 12.2785C16.7593 12.2769 16.7083 12.2563 16.6688 12.2205C16.6292 12.1847 16.6037 12.136 16.5967 12.0831C16.4498 11.2034 15.8787 10.5474 15.1959 10.5474C14.5132 10.5474 13.9421 11.2034 13.7952 12.0831C13.7882 12.136 13.7627 12.1847 13.7231 12.2205C13.6836 12.2563 13.6326 12.2769 13.5792 12.2785V12.2785C13.5325 12.2774 13.4873 12.2615 13.4502 12.2332C13.413 12.2049 13.3858 12.1655 13.3723 12.1207C13.2427 11.7246 13.1775 11.3103 13.1792 10.8936C13.1792 9.30831 14.0822 8.02344 15.1959 8.02344C16.3097 8.02344 17.2103 9.30831 17.2103 10.8936Z" stroke="url(#paint10_linear_1_74074)" stroke-width="0.0953526" stroke-miterlimit="10"/>
<path d="M11.5 0C5.14856 0 0 1.49322 0 3.33734C0 5.18146 5.14904 6.67468 11.5 6.67468C17.851 6.67468 23 5.18146 23 3.33734C23 1.49322 17.8514 0 11.5 0ZM11.5 4.25511C6.44631 4.25511 2.35235 3.44461 2.35235 2.44341C2.35235 1.44221 6.44774 0.631711 11.5 0.631711C16.5523 0.631711 20.6477 1.44221 20.6477 2.44341C20.6477 3.44461 16.5537 4.25654 11.5 4.25654V4.25511Z" fill="url(#paint11_linear_1_74074)"/>
<mask id="mask1_1_74074" style="mask-type:alpha" maskUnits="userSpaceOnUse" x="0" y="0" width="23" height="7">
<path d="M11.5 0C5.14856 0 0 1.49322 0 3.33734C0 5.18146 5.14904 6.67468 11.5 6.67468C17.851 6.67468 23 5.18146 23 3.33734C23 1.49322 17.8514 0 11.5 0ZM11.5 4.25511C6.44631 4.25511 2.35235 3.44461 2.35235 2.44341C2.35235 1.44221 6.44774 0.631711 11.5 0.631711C16.5523 0.631711 20.6477 1.44221 20.6477 2.44341C20.6477 3.44461 16.5537 4.25654 11.5 4.25654V4.25511Z" fill="url(#paint12_linear_1_74074)"/>
</mask>
<g mask="url(#mask1_1_74074)">
<g filter="url(#filter2_f_1_74074)">
<path d="M1.04883 2.95508C1.07553 3.00595 1.10749 3.05389 1.14418 3.09811C1.16182 3.12051 1.18137 3.14149 1.19996 3.16342C1.21856 3.18535 1.23953 3.20395 1.2586 3.22445C1.33981 3.30391 1.42682 3.37722 1.51892 3.44376C1.70239 3.57714 1.89718 3.69424 2.10104 3.7937C2.30319 3.89573 2.51392 3.98107 2.72465 4.06403C2.83192 4.10169 2.93824 4.14031 3.04599 4.17607C3.15374 4.21183 3.26244 4.2452 3.37162 4.27571C3.80788 4.40367 4.25062 4.50838 4.69797 4.58942C4.9211 4.63376 5.14661 4.66761 5.37068 4.70623L5.70871 4.7539C5.82123 4.77011 5.93374 4.7868 6.04721 4.80158C6.95306 4.91457 7.86225 4.98513 8.77477 5.02947L9.11709 5.04616L9.4594 5.05808C9.68777 5.06523 9.91614 5.07572 10.145 5.0781L10.8306 5.09145L11.5171 5.09479C13.3469 5.09479 15.1787 5.04711 16.9889 4.83352C17.4423 4.78299 17.8914 4.711 18.3401 4.63376C18.7872 4.55332 19.2299 4.44989 19.6664 4.32386C20.1035 4.20389 20.5277 4.041 20.9327 3.83757C21.1356 3.7369 21.3274 3.61513 21.5048 3.47427C21.5936 3.40337 21.6765 3.3254 21.7527 3.24114C21.8304 3.15722 21.8928 3.06042 21.9372 2.95508C21.9075 3.06789 21.8569 3.17414 21.788 3.26831C21.7204 3.36401 21.645 3.45394 21.5625 3.53721C21.3954 3.70171 21.2111 3.8478 21.0128 3.97297C20.8165 4.10062 20.6117 4.21453 20.3997 4.31385L20.2414 4.38918L20.0803 4.45831C20.0264 4.48072 19.973 4.50599 19.9186 4.52649L19.7556 4.58894C19.3182 4.74935 18.8726 4.88621 18.4206 4.99896C18.1942 5.05188 17.9682 5.10766 17.7398 5.15105L17.398 5.21875L17.0542 5.27739C16.1383 5.42694 15.2154 5.52958 14.289 5.5849C13.827 5.61303 13.3646 5.63496 12.9026 5.64736L12.5555 5.65689L12.2089 5.66071C11.9781 5.66071 11.7469 5.66786 11.5157 5.66548C10.5914 5.66357 9.66695 5.63178 8.74235 5.57012C7.81683 5.50766 6.89503 5.39866 5.98046 5.24354C5.86604 5.22542 5.75162 5.20349 5.63767 5.18061L5.29583 5.11291C5.06889 5.06142 4.84148 5.01755 4.61692 4.95367C4.16468 4.84074 3.71902 4.70291 3.28199 4.54079C2.84368 4.37877 2.42215 4.17455 2.02333 3.93101C1.8247 3.80752 1.63753 3.66647 1.46409 3.50955C1.37822 3.43059 1.29852 3.34516 1.22571 3.25401C1.15089 3.16464 1.09115 3.06367 1.04883 2.95508V2.95508Z" fill="white"/>
</g>
</g>
<mask id="mask2_1_74074" style="mask-type:alpha" maskUnits="userSpaceOnUse" x="0" y="0" width="23" height="7">
<path d="M11.5 0C5.14856 0 0 1.49322 0 3.33734C0 5.18146 5.14904 6.67468 11.5 6.67468C17.851 6.67468 23 5.18146 23 3.33734C23 1.49322 17.8514 0 11.5 0ZM11.5 4.25511C6.44631 4.25511 2.35235 3.44461 2.35235 2.44341C2.35235 1.44221 6.44774 0.631711 11.5 0.631711C16.5523 0.631711 20.6477 1.44221 20.6477 2.44341C20.6477 3.44461 16.5537 4.25654 11.5 4.25654V4.25511Z" fill="black"/>
</mask>
<g mask="url(#mask2_1_74074)">
<g filter="url(#filter3_f_1_74074)">
<g style="mix-blend-mode:multiply">
<path style="mix-blend-mode:multiply" d="M13.8104 0.672678C14.1594 0.665049 14.5045 0.66791 14.8516 0.672678C15.1987 0.677445 15.5463 0.694132 15.8934 0.713202C16.5885 0.751343 17.2826 0.818567 17.9759 0.925362C18.3225 0.979713 18.6681 1.04551 19.0138 1.12894C19.1864 1.16994 19.3588 1.21762 19.5311 1.27197C19.7062 1.32641 19.8784 1.39007 20.0469 1.46267C20.2299 1.53958 20.4025 1.63904 20.5609 1.75874C20.6548 1.83147 20.7373 1.91794 20.8054 2.01524C20.8452 2.07448 20.8773 2.13857 20.9008 2.20595C20.9266 2.28272 20.939 2.36335 20.9375 2.44433C20.9357 2.52422 20.9209 2.60328 20.8936 2.67842C20.8685 2.7445 20.8357 2.80739 20.7959 2.86579C20.729 2.96312 20.6487 3.05058 20.5575 3.12562C20.4013 3.25139 20.2309 3.35843 20.0498 3.44458C19.7184 3.6025 19.3748 3.7334 19.0223 3.836C18.6786 3.93946 18.3329 4.02194 17.9873 4.09727C17.2955 4.24649 16.5994 4.3509 15.9034 4.43624C15.2073 4.52158 14.5074 4.57737 13.8094 4.61884C13.1114 4.66032 12.412 4.67796 11.7117 4.68416C11.0113 4.69036 10.3138 4.67272 9.61391 4.64268C8.91402 4.61265 8.21747 4.56116 7.52044 4.48726C6.82341 4.41336 6.13068 4.32087 5.43794 4.1888C4.7452 4.05674 4.05533 3.89893 3.3707 3.64529C3.1965 3.58094 3.02604 3.50693 2.86008 3.4236C2.68001 3.33587 2.511 3.22704 2.35662 3.0994C2.26507 3.02136 2.18569 2.93009 2.1211 2.8286C2.03901 2.70091 1.99777 2.55123 2.00286 2.39951C2.00668 2.3217 2.02377 2.24511 2.0534 2.17305C2.07925 2.10906 2.11322 2.04865 2.15447 1.99331C2.2246 1.90164 2.30725 1.82027 2.40001 1.75159C2.55895 1.63686 2.73061 1.54087 2.91157 1.46553C3.07963 1.39379 3.25153 1.33139 3.42648 1.27864C3.76658 1.1768 4.11195 1.0934 4.46105 1.02882C5.14885 0.90364 5.84317 0.817368 6.54069 0.770414C6.88841 0.745622 7.23565 0.727346 7.58242 0.715586C7.9295 0.706528 8.27659 0.698899 8.62367 0.70319C8.27992 0.750867 7.93666 0.798543 7.59482 0.852417C7.25298 0.906291 6.91257 0.957305 6.57216 1.01928C5.89373 1.14467 5.21863 1.2815 4.56117 1.46315C4.23519 1.55055 3.91391 1.65462 3.59859 1.77495C3.44364 1.83598 3.29203 1.90082 3.14995 1.97376C3.01485 2.04045 2.8877 2.12218 2.77093 2.21739C2.72638 2.25457 2.68737 2.29791 2.65507 2.34612C2.63171 2.38569 2.62742 2.41 2.63076 2.42049C2.63627 2.44218 2.64653 2.46237 2.6608 2.47961C2.69412 2.52176 2.73292 2.55928 2.77617 2.59117C2.89475 2.67642 3.02272 2.74777 3.15758 2.80381C3.30483 2.86774 3.4552 2.92423 3.60812 2.97306C3.92553 3.07351 4.24814 3.15674 4.57452 3.22241C4.90349 3.29201 5.23722 3.35113 5.57286 3.40167C6.2451 3.50131 6.92258 3.57616 7.60387 3.63194C8.28517 3.68773 8.96885 3.7273 9.65396 3.74875C10.3391 3.77021 11.0242 3.78356 11.7098 3.77831C12.3953 3.77307 13.08 3.75876 13.7641 3.72682C14.4483 3.69488 15.1305 3.64815 15.8104 3.58379C16.4903 3.51943 17.1654 3.43314 17.8304 3.31585C18.1642 3.25673 18.4936 3.1876 18.8164 3.10608C19.1332 3.02985 19.4434 2.92862 19.7442 2.80333C19.8784 2.74654 20.0062 2.67575 20.1256 2.59213C20.1703 2.56086 20.2107 2.52383 20.2457 2.48199C20.256 2.46967 20.2651 2.45643 20.2729 2.44242C20.2758 2.43336 20.2805 2.42764 20.2805 2.42335C20.2821 2.41726 20.2821 2.41085 20.2805 2.40476C20.277 2.39058 20.2715 2.37695 20.2643 2.36423C20.2363 2.31834 20.2016 2.27688 20.1613 2.24123C20.048 2.14592 19.9238 2.0643 19.7914 1.99808C19.4956 1.85124 19.1883 1.72878 18.8726 1.63192C18.5518 1.52799 18.2223 1.44122 17.89 1.36017C17.225 1.19902 16.5475 1.07411 15.8662 0.961119C15.5258 0.906291 15.1839 0.854801 14.8411 0.808078C14.4983 0.761355 14.1546 0.715586 13.8104 0.672678Z" fill="url(#paint13_linear_1_74074)"/>
</g>
</g>
</g>
<mask id="mask3_1_74074" style="mask-type:alpha" maskUnits="userSpaceOnUse" x="0" y="0" width="23" height="7">
<path d="M11.5 0C5.14856 0 0 1.49322 0 3.33734C0 5.18146 5.14904 6.67468 11.5 6.67468C17.851 6.67468 23 5.18146 23 3.33734C23 1.49322 17.8514 0 11.5 0ZM11.5 4.25511C6.44631 4.25511 2.35235 3.44461 2.35235 2.44341C2.35235 1.44221 6.44774 0.631711 11.5 0.631711C16.5523 0.631711 20.6477 1.44221 20.6477 2.44341C20.6477 3.44461 16.5537 4.25654 11.5 4.25654V4.25511Z" fill="black"/>
</mask>
<g mask="url(#mask3_1_74074)">
<g filter="url(#filter4_f_1_74074)">
<g style="mix-blend-mode:screen">
<g style="mix-blend-mode:screen">
<path d="M5.38728 0.476562C5.00587 0.571915 4.62065 0.667268 4.24305 0.777877C3.86546 0.888486 3.48691 1.00386 3.11789 1.13688C2.74888 1.2699 2.38368 1.41245 2.03421 1.57979C1.68525 1.73972 1.35224 1.9324 1.03968 2.15524C0.889192 2.26296 0.748623 2.3839 0.619654 2.51663C0.499687 2.63985 0.401223 2.78231 0.328352 2.93809C0.319325 2.95596 0.311983 2.97464 0.306421 2.99387L0.28592 3.05108L0.272571 3.10734L0.265896 3.13499L0.262082 3.16312L0.254454 3.2189V3.27468V3.30281L0.256838 3.33047C0.257746 3.3487 0.259816 3.36685 0.263036 3.38482C0.289207 3.53895 0.353081 3.68423 0.448973 3.80771C0.647784 4.07374 0.949098 4.29496 1.26853 4.48137C1.59828 4.66703 1.94214 4.82644 2.29691 4.95813C2.654 5.09449 3.02206 5.21034 3.39346 5.31285C3.76486 5.41535 4.14246 5.50737 4.52196 5.58746C5.28192 5.74622 6.05189 5.86971 6.82568 5.96363C7.59946 6.05755 8.37802 6.12573 9.158 6.16768C9.93799 6.20964 10.7194 6.23491 11.5013 6.233C12.2832 6.23109 13.0646 6.21297 13.8446 6.16816C14.6246 6.12334 15.4026 6.05707 16.1769 5.9641C16.9512 5.87114 17.7207 5.74718 18.4806 5.58889C18.862 5.5088 19.2377 5.41821 19.6096 5.31475C19.9815 5.2113 20.35 5.09687 20.7062 4.96147C21.061 4.8297 21.4051 4.67029 21.735 4.48471C21.8942 4.39413 22.0466 4.29199 22.1908 4.1791C22.329 4.07364 22.4532 3.95091 22.5603 3.8139C22.6572 3.691 22.7226 3.54634 22.751 3.39244L22.7558 3.36527V3.33762C22.7577 3.31925 22.7585 3.30078 22.7581 3.28231V3.22653C22.7581 3.20794 22.7529 3.18934 22.751 3.17075C22.7461 3.13289 22.7385 3.09545 22.7281 3.05871C22.7243 3.04012 22.7152 3.022 22.7095 3.00293C22.7036 2.98396 22.6966 2.96533 22.6885 2.94715C22.6177 2.79136 22.521 2.6487 22.4025 2.52521C22.2748 2.39199 22.1353 2.27056 21.9858 2.1624C21.8323 2.04972 21.6723 1.94624 21.5066 1.8525C21.3398 1.75715 21.1686 1.66752 20.9927 1.58504C20.6423 1.41769 20.2775 1.27609 19.9095 1.14117C19.5414 1.00625 19.1657 0.889439 18.7843 0.780737C18.4029 0.672035 18.0239 0.571915 17.6401 0.476562C18.0329 0.524239 18.4239 0.588125 18.8139 0.659639C19.2039 0.731154 19.5901 0.824123 19.9762 0.926627C20.3631 1.0278 20.7439 1.15117 21.1166 1.29612C21.3039 1.36859 21.489 1.44805 21.6721 1.5345C21.857 1.62278 22.0365 1.72179 22.2099 1.83105C22.3884 1.94294 22.5557 2.07179 22.7095 2.21579C22.8744 2.36747 23.0118 2.54651 23.1157 2.745C23.2268 2.96296 23.2734 3.20805 23.2502 3.45156C23.2215 3.6902 23.1353 3.91829 22.9989 4.11617C22.8734 4.29926 22.7241 4.46488 22.555 4.60867C22.3943 4.74665 22.2236 4.87269 22.0444 4.98579C21.6951 5.20351 21.3284 5.39184 20.9479 5.54884C20.2 5.85553 19.4287 6.10138 18.6413 6.28401C17.8604 6.47472 17.0713 6.61155 16.2799 6.72406C15.4885 6.83658 14.6927 6.91143 13.8961 6.96531C13.0994 7.01918 12.3023 7.04016 11.5046 7.04111C10.707 7.04207 9.90938 7.01537 9.11271 6.96388C8.31604 6.91239 7.52127 6.83372 6.72889 6.72216C5.93651 6.6106 5.14843 6.46947 4.36797 6.2802C3.58072 6.09807 2.8095 5.85253 2.06186 5.54598C1.68128 5.38846 1.31449 5.19948 0.965308 4.98102C0.786273 4.86742 0.615774 4.7409 0.455171 4.60247C0.41417 4.56767 0.375075 4.52952 0.335504 4.49281C0.295932 4.4561 0.257791 4.41558 0.221557 4.37315C0.145364 4.29021 0.0760074 4.20124 0.0141656 4.10711C-0.0516031 4.00931 -0.106441 3.90459 -0.149364 3.79483C-0.194483 3.68129 -0.222908 3.56181 -0.233751 3.44012C-0.254298 3.19671 -0.204662 2.9525 -0.0907223 2.73642C0.0149417 2.53983 0.153084 2.36252 0.317864 2.21198C0.472443 2.06927 0.640222 1.94156 0.818941 1.83057C1.16482 1.61678 1.53043 1.43669 1.91073 1.29278C2.2835 1.14807 2.66426 1.02487 3.05115 0.923766C3.43589 0.821262 3.8235 0.733061 4.21254 0.659639C4.60158 0.586218 4.99395 0.524239 5.38728 0.476562Z" fill="#00FFFF"/>
</g>
</g>
</g>
</g>
<mask id="mask4_1_74074" style="mask-type:alpha" maskUnits="userSpaceOnUse" x="0" y="0" width="23" height="7">
<path d="M11.5 0C5.14856 0 0 1.49322 0 3.33734C0 5.18146 5.14904 6.67468 11.5 6.67468C17.851 6.67468 23 5.18146 23 3.33734C23 1.49322 17.8514 0 11.5 0ZM11.5 4.25511C6.44631 4.25511 2.35235 3.44461 2.35235 2.44341C2.35235 1.44221 6.44774 0.631711 11.5 0.631711C16.5523 0.631711 20.6477 1.44221 20.6477 2.44341C20.6477 3.44461 16.5537 4.25654 11.5 4.25654V4.25511Z" fill="url(#paint14_linear_1_74074)"/>
</mask>
<g mask="url(#mask4_1_74074)">
<g filter="url(#filter5_f_1_74074)">
<path d="M5.34951 0.380859C4.96285 0.461432 4.57668 0.550587 4.19527 0.650707C3.81386 0.750827 3.43245 0.860006 3.06152 0.984441C2.6906 1.10888 2.31968 1.24618 1.96497 1.40733C1.60763 1.56315 1.26585 1.75248 0.94422 1.97277C0.786543 2.08152 0.639092 2.2044 0.503691 2.33988C0.371306 2.47003 0.262002 2.62174 0.180446 2.78851C0.103823 2.94861 0.0742284 3.12716 0.095105 3.30342C0.105932 3.39063 0.129547 3.47577 0.165189 3.5561C0.200553 3.63895 0.245005 3.71762 0.297729 3.79067C0.408018 3.94076 0.537533 4.07572 0.682954 4.1921C0.831097 4.3122 0.987901 4.4212 1.15209 4.51821C1.48758 4.71294 1.83836 4.88004 2.20097 5.01786C2.56283 5.16089 2.93471 5.28055 3.31039 5.38782C3.68608 5.4951 4.06559 5.59045 4.44843 5.67388C5.21125 5.8417 5.98885 5.96852 6.7674 6.06673C8.32713 6.2602 9.89757 6.35447 11.4692 6.34898C13.0409 6.3551 14.6114 6.26099 16.1711 6.06721C16.9501 5.96947 17.7253 5.84361 18.4905 5.67579C18.8719 5.59188 19.2513 5.49653 19.6286 5.38973C20.0043 5.28246 20.3761 5.16232 20.7385 5.02072C21.101 4.88352 21.4518 4.71706 21.7873 4.52298C21.9518 4.42623 22.1089 4.31756 22.2574 4.19782C22.4031 4.08177 22.5332 3.9475 22.6446 3.7983C22.7501 3.65526 22.8194 3.48869 22.8462 3.31295C22.8688 3.13715 22.8408 2.95857 22.7657 2.79805C22.6852 2.63078 22.5769 2.47843 22.4453 2.34751C22.3105 2.2116 22.1635 2.08839 22.0062 1.97945C21.8477 1.86743 21.6826 1.76506 21.5118 1.67289C21.3406 1.57753 21.1656 1.49219 20.9873 1.41257C20.6307 1.25095 20.2617 1.1146 19.8908 0.988255C19.5199 0.861913 19.1394 0.753211 18.758 0.654521C18.3766 0.555831 17.9918 0.463816 17.6052 0.38372C17.9956 0.445699 18.3842 0.51626 18.7713 0.59874C19.1585 0.68122 19.5418 0.778003 19.9227 0.888612C20.3046 0.997705 20.6803 1.12774 21.0479 1.27813C21.2324 1.3525 21.4136 1.43594 21.5923 1.52557C21.7721 1.61538 21.9464 1.71567 22.1144 1.82593C22.285 1.93771 22.4447 2.06541 22.5912 2.20734C22.7433 2.35203 22.8699 2.52146 22.9654 2.70842C23.0633 2.90538 23.1032 3.12613 23.0803 3.34489C23.0523 3.56113 22.9718 3.76722 22.8458 3.94514C22.7259 4.11638 22.5837 4.27079 22.4229 4.40426C22.2663 4.53554 22.1003 4.65506 21.9261 4.76183C21.5816 4.97065 21.2206 5.15099 20.8467 5.30105C20.1052 5.59723 19.341 5.83304 18.5616 6.00619C17.7863 6.18545 17.0026 6.3218 16.2154 6.43003C14.6408 6.63424 13.0546 6.73584 11.4669 6.7342C9.87903 6.73546 8.29282 6.63321 6.7183 6.42812C5.93116 6.31942 5.14784 6.18259 4.37215 6.00333C3.59234 5.82805 2.82798 5.59 2.08654 5.29152C1.71288 5.14132 1.35206 4.96099 1.00763 4.7523C0.833726 4.64502 0.667996 4.52503 0.511796 4.3933C0.472224 4.3604 0.435037 4.32464 0.396896 4.28984C0.358755 4.25504 0.322044 4.21785 0.28581 4.17828C0.21403 4.10134 0.148355 4.01893 0.0893838 3.93179C0.028898 3.84221 -0.0216207 3.74629 -0.0612733 3.64573C-0.102172 3.54469 -0.128033 3.43819 -0.138032 3.32964C-0.15849 3.11071 -0.116328 2.89048 -0.0164576 2.69459C0.0804309 2.50841 0.207912 2.33983 0.360662 2.1959C0.507458 2.05558 0.667076 1.92932 0.837425 1.81878C1.17584 1.60344 1.5339 1.42065 1.9068 1.27288C2.27473 1.12316 2.6505 0.993447 3.03244 0.884321C3.41385 0.77403 3.79765 0.677724 4.18382 0.595403C4.57 0.513082 4.95856 0.441567 5.34951 0.380859Z" fill="white"/>
</g>
</g>
<defs>
<filter id="filter0_f_1_74074" x="-1.27833" y="10.7534" width="25.5078" height="14.6182" filterUnits="userSpaceOnUse" color-interpolation-filters="sRGB">
<feFlood flood-opacity="0" result="BackgroundImageFix"/>
<feBlend mode="normal" in="SourceGraphic" in2="BackgroundImageFix" result="shape"/>
<feGaussianBlur stdDeviation="0.595954" result="effect1_foregroundBlur_1_74074"/>
</filter>
<filter id="filter1_f_1_74074" x="-1.99348" y="10.0383" width="26.9381" height="16.0485" filterUnits="userSpaceOnUse" color-interpolation-filters="sRGB">
<feFlood flood-opacity="0" result="BackgroundImageFix"/>
<feBlend mode="normal" in="SourceGraphic" in2="BackgroundImageFix" result="shape"/>
<feGaussianBlur stdDeviation="0.953526" result="effect1_foregroundBlur_1_74074"/>
</filter>
<filter id="filter2_f_1_74074" x="0.286007" y="2.19226" width="22.4141" height="4.23658" filterUnits="userSpaceOnUse" color-interpolation-filters="sRGB">
<feFlood flood-opacity="0" result="BackgroundImageFix"/>
<feBlend mode="normal" in="SourceGraphic" in2="BackgroundImageFix" result="shape"/>
<feGaussianBlur stdDeviation="0.38141" result="effect1_foregroundBlur_1_74074"/>
</filter>
<filter id="filter3_f_1_74074" x="1.04892" y="-0.285557" width="20.8424" height="5.92463" filterUnits="userSpaceOnUse" color-interpolation-filters="sRGB">
<feFlood flood-opacity="0" result="BackgroundImageFix"/>
<feBlend mode="normal" in="SourceGraphic" in2="BackgroundImageFix" result="shape"/>
<feGaussianBlur stdDeviation="0.476763" result="effect1_foregroundBlur_1_74074"/>
</filter>
<filter id="filter4_f_1_74074" x="-1.66857" y="-0.953727" width="26.3547" height="9.42503" filterUnits="userSpaceOnUse" color-interpolation-filters="sRGB">
<feFlood flood-opacity="0" result="BackgroundImageFix"/>
<feBlend mode="normal" in="SourceGraphic" in2="BackgroundImageFix" result="shape"/>
<feGaussianBlur stdDeviation="0.715145" result="effect1_foregroundBlur_1_74074"/>
</filter>
<filter id="filter5_f_1_74074" x="-1.09659" y="-0.572667" width="25.1368" height="8.26057" filterUnits="userSpaceOnUse" color-interpolation-filters="sRGB">
<feFlood flood-opacity="0" result="BackgroundImageFix"/>
<feBlend mode="normal" in="SourceGraphic" in2="BackgroundImageFix" result="shape"/>
<feGaussianBlur stdDeviation="0.476763" result="effect1_foregroundBlur_1_74074"/>
</filter>
<radialGradient id="paint0_radial_1_74074" cx="0" cy="0" r="1" gradientUnits="userSpaceOnUse" gradientTransform="translate(11.49 0.90625) rotate(90) scale(22.98)">
<stop stop-color="#FFDE43"/>
<stop offset="1" stop-color="#FFBC00"/>
</radialGradient>
<radialGradient id="paint1_radial_1_74074" cx="0" cy="0" r="1" gradientUnits="userSpaceOnUse" gradientTransform="translate(11.49 3.98137) rotate(90) scale(19.9049)">
<stop stop-color="white" stop-opacity="0.5"/>
<stop offset="0.782278"/>
</radialGradient>
<radialGradient id="paint2_radial_1_74074" cx="0" cy="0" r="1" gradientUnits="userSpaceOnUse" gradientTransform="translate(11.49 3.98137) rotate(90) scale(19.9049)">
<stop stop-color="white" stop-opacity="0.5"/>
<stop offset="0.782278"/>
</radialGradient>
<radialGradient id="paint3_radial_1_74074" cx="0" cy="0" r="1" gradientUnits="userSpaceOnUse" gradientTransform="translate(11.49 -1.59675) rotate(90) scale(25.483 34.4621)">
<stop offset="0.0922635" stop-color="white"/>
<stop offset="0.670207" stop-color="white" stop-opacity="0"/>
</radialGradient>
<radialGradient id="paint4_radial_1_74074" cx="0" cy="0" r="1" gradientUnits="userSpaceOnUse" gradientTransform="translate(11.4807 16.5695) scale(5.03131 3.59151)">
<stop stop-color="#743C1C"/>
<stop offset="1" stop-color="#401C02"/>
</radialGradient>
<linearGradient id="paint5_linear_1_74074" x1="11.4807" y1="18.4546" x2="11.4807" y2="14.6844" gradientUnits="userSpaceOnUse">
<stop offset="0.265625" stop-color="#FFDE43"/>
<stop offset="1" stop-color="#F79D14"/>
</linearGradient>
<radialGradient id="paint6_radial_1_74074" cx="0" cy="0" r="1" gradientUnits="userSpaceOnUse" gradientTransform="translate(7.83036 10.1496) scale(2.57085 2.13125)">
<stop stop-color="#743C1C"/>
<stop offset="1" stop-color="#401C02"/>
</radialGradient>
<linearGradient id="paint7_linear_1_74074" x1="7.83315" y1="12.3983" x2="7.83315" y2="7.88651" gradientUnits="userSpaceOnUse">
<stop stop-color="#FFDE43"/>
<stop offset="0.22" stop-color="#FED93F"/>
<stop offset="0.51" stop-color="#FCC934"/>
<stop offset="0.82" stop-color="#F9AF21"/>
<stop offset="1" stop-color="#F79D14"/>
</linearGradient>
<radialGradient id="paint8_radial_1_74074" cx="0" cy="0" r="1" gradientUnits="userSpaceOnUse" gradientTransform="translate(2339.91 3037.69) scale(167.897 193.176)">
<stop stop-color="#743C1C"/>
<stop offset="1" stop-color="#401C02"/>
</radialGradient>
<radialGradient id="paint9_radial_1_74074" cx="0" cy="0" r="1" gradientUnits="userSpaceOnUse" gradientTransform="translate(15.192 10.1496) scale(2.56936 2.13125)">
<stop stop-color="#743C1C"/>
<stop offset="1" stop-color="#401C02"/>
</radialGradient>
<linearGradient id="paint10_linear_1_74074" x1="15.1948" y1="12.3983" x2="15.1948" y2="7.88651" gradientUnits="userSpaceOnUse">
<stop stop-color="#FFDE43"/>
<stop offset="0.22" stop-color="#FED93F"/>
<stop offset="0.51" stop-color="#FCC934"/>
<stop offset="0.82" stop-color="#F9AF21"/>
<stop offset="1" stop-color="#F79D14"/>
</linearGradient>
<linearGradient id="paint11_linear_1_74074" x1="11.5" y1="6.67182" x2="11.5" y2="0.00143052" gradientUnits="userSpaceOnUse">
<stop stop-color="#00CFFE"/>
<stop offset="0.11" stop-color="#00C6FA"/>
<stop offset="0.28" stop-color="#00AEEF"/>
<stop offset="0.5" stop-color="#0086DE"/>
<stop offset="0.75" stop-color="#004FC5"/>
<stop offset="1" stop-color="#0014AB"/>
</linearGradient>
<linearGradient id="paint12_linear_1_74074" x1="11.5" y1="6.67182" x2="11.5" y2="0.00143052" gradientUnits="userSpaceOnUse">
<stop stop-color="#00CFFE"/>
<stop offset="0.11" stop-color="#00C6FA"/>
<stop offset="0.28" stop-color="#00AEEF"/>
<stop offset="0.5" stop-color="#0086DE"/>
<stop offset="0.75" stop-color="#004FC5"/>
<stop offset="1" stop-color="#0014AB"/>
</linearGradient>
<linearGradient id="paint13_linear_1_74074" x1="11.4699" y1="4.68416" x2="11.4699" y2="0.219753" gradientUnits="userSpaceOnUse">
<stop stop-color="#002480"/>
<stop offset="1" stop-color="#002480"/>
</linearGradient>
<linearGradient id="paint14_linear_1_74074" x1="11.5" y1="6.67182" x2="11.5" y2="0.00143052" gradientUnits="userSpaceOnUse">
<stop stop-color="#00CFFE"/>
<stop offset="0.11" stop-color="#00C6FA"/>
<stop offset="0.28" stop-color="#00AEEF"/>
<stop offset="0.5" stop-color="#0086DE"/>
<stop offset="0.75" stop-color="#004FC5"/>
<stop offset="1" stop-color="#0014AB"/>
</linearGradient>
</defs>
</svg>
