<svg width="28" height="29" viewBox="0 0 28 29" fill="none" xmlns="http://www.w3.org/2000/svg">
<circle cx="13.8602" cy="14.7" r="11.2" fill="#0E093C"/>
<path d="M13.6615 8.66663C12.1331 8.66663 10.8906 9.90913 10.8906 11.4375C10.8906 12.9366 12.0631 14.15 13.5915 14.2025C13.6381 14.1966 13.6848 14.1966 13.7198 14.2025C13.7315 14.2025 13.7373 14.2025 13.749 14.2025C13.7548 14.2025 13.7548 14.2025 13.7606 14.2025C15.254 14.15 16.4265 12.9366 16.4323 11.4375C16.4323 9.90913 15.1898 8.66663 13.6615 8.66663Z" fill="white"/>
<path d="M16.6247 15.7542C14.9972 14.6692 12.343 14.6692 10.7039 15.7542C9.96302 16.25 9.55469 16.9208 9.55469 17.6383C9.55469 18.3558 9.96302 19.0208 10.698 19.5108C11.5147 20.0592 12.588 20.3333 13.6614 20.3333C14.7347 20.3333 15.808 20.0592 16.6247 19.5108C17.3597 19.015 17.768 18.35 17.768 17.6267C17.7622 16.9092 17.3597 16.2442 16.6247 15.7542Z" fill="white"/>
</svg>
