<svg width="23" height="23" viewBox="0 0 23 23" fill="none" xmlns="http://www.w3.org/2000/svg">
<circle cx="11.8016" cy="11.5" r="11.2" fill="#0E093C"/>
<path d="M17.4362 13.5985C17.4362 15.226 16.1295 16.5443 14.502 16.5501H14.4962H8.71536C7.0937 16.5501 5.76953 15.2376 5.76953 13.6101V13.6043C5.76953 13.6043 5.77303 11.0225 5.7777 9.72396C5.77828 9.48013 6.05828 9.34363 6.24903 9.4953C7.63503 10.5949 10.1136 12.5998 10.1445 12.626C10.5587 12.958 11.0837 13.1452 11.6204 13.1452C12.157 13.1452 12.682 12.958 13.0962 12.6196C13.1271 12.5992 15.5503 10.6544 16.9573 9.53671C17.1486 9.38446 17.4298 9.52096 17.4304 9.76421C17.4362 11.0528 17.4362 13.5985 17.4362 13.5985Z" fill="white"/>
<path d="M17.1301 7.60964C16.6249 6.65764 15.6309 6.0498 14.5366 6.0498H8.71489C7.62056 6.0498 6.62656 6.65764 6.12139 7.60964C6.00822 7.82255 6.06189 8.08797 6.25031 8.23847L10.5816 11.7029C10.8849 11.9479 11.2524 12.0698 11.6199 12.0698C11.6222 12.0698 11.624 12.0698 11.6257 12.0698C11.6275 12.0698 11.6298 12.0698 11.6316 12.0698C11.9991 12.0698 12.3666 11.9479 12.6699 11.7029L17.0011 8.23847C17.1896 8.08797 17.2432 7.82255 17.1301 7.60964Z" fill="white"/>
</svg>
