<svg width="26" height="26" viewBox="0 0 26 26" fill="none" xmlns="http://www.w3.org/2000/svg">
<circle cx="13" cy="13" r="13" fill="url(#paint0_linear_3413_32920)"/>
<path opacity="0.4" d="M16.75 19.375H9.25C7 19.375 5.5 18.25 5.5 15.625V10.375C5.5 7.75 7 6.625 9.25 6.625H16.75C19 6.625 20.5 7.75 20.5 10.375V15.625C20.5 18.25 19 19.375 16.75 19.375Z" fill="#0E093C"/>
<path d="M13 15.25C14.2426 15.25 15.25 14.2426 15.25 13C15.25 11.7574 14.2426 10.75 13 10.75C11.7574 10.75 10.75 11.7574 10.75 13C10.75 14.2426 11.7574 15.25 13 15.25Z" fill="#0E093C"/>
<path d="M7.375 12.0625C7.0675 12.0625 6.8125 11.8075 6.8125 11.5V10.375C6.8125 9.0325 7.9075 7.9375 9.25 7.9375H10.375C10.6825 7.9375 10.9375 8.1925 10.9375 8.5C10.9375 8.8075 10.6825 9.0625 10.375 9.0625H9.25C8.53 9.0625 7.9375 9.655 7.9375 10.375V11.5C7.9375 11.8075 7.6825 12.0625 7.375 12.0625Z" fill="#0E093C"/>
<path d="M18.625 12.0625C18.3175 12.0625 18.0625 11.8075 18.0625 11.5V10.375C18.0625 9.655 17.47 9.0625 16.75 9.0625H15.625C15.3175 9.0625 15.0625 8.8075 15.0625 8.5C15.0625 8.1925 15.3175 7.9375 15.625 7.9375H16.75C18.0925 7.9375 19.1875 9.0325 19.1875 10.375V11.5C19.1875 11.8075 18.9325 12.0625 18.625 12.0625Z" fill="#0E093C"/>
<path d="M10.375 18.0625H9.25C7.9075 18.0625 6.8125 16.9675 6.8125 15.625V14.5C6.8125 14.1925 7.0675 13.9375 7.375 13.9375C7.6825 13.9375 7.9375 14.1925 7.9375 14.5V15.625C7.9375 16.345 8.53 16.9375 9.25 16.9375H10.375C10.6825 16.9375 10.9375 17.1925 10.9375 17.5C10.9375 17.8075 10.6825 18.0625 10.375 18.0625Z" fill="#0E093C"/>
<path d="M16.75 18.0625H15.625C15.3175 18.0625 15.0625 17.8075 15.0625 17.5C15.0625 17.1925 15.3175 16.9375 15.625 16.9375H16.75C17.47 16.9375 18.0625 16.345 18.0625 15.625V14.5C18.0625 14.1925 18.3175 13.9375 18.625 13.9375C18.9325 13.9375 19.1875 14.1925 19.1875 14.5V15.625C19.1875 16.9675 18.0925 18.0625 16.75 18.0625Z" fill="#0E093C"/>
<defs>
<linearGradient id="paint0_linear_3413_32920" x1="13" y1="-1.01505e-06" x2="32.8599" y2="6.06417" gradientUnits="userSpaceOnUse">
<stop stop-color="#F6F6F6"/>
<stop offset="1" stop-color="#F2EFEF"/>
</linearGradient>
</defs>
</svg>
