<svg width="18" height="18" viewBox="0 0 18 18" fill="none" xmlns="http://www.w3.org/2000/svg">
<path opacity="0.4" d="M5.02904 9.66797C4.64196 9.66797 4.3286 9.98599 4.3286 10.3788L4.1355 13.8129C4.1355 14.3135 4.53575 14.7188 5.02904 14.7188C5.52233 14.7188 5.92171 14.3135 5.92171 13.8129L5.72948 10.3788C5.72948 9.98599 5.41613 9.66797 5.02904 9.66797Z" fill="#003E79"/>
<path d="M5.98528 2.75509C5.98528 2.75509 5.78427 2.54842 5.65963 2.45845C5.47882 2.31948 5.25587 2.25 5.0338 2.25C4.78452 2.25 4.5528 2.32839 4.36408 2.47626C4.32985 2.51101 4.18414 2.64195 4.06389 2.76399C3.30903 3.47753 2.07405 5.3402 1.69661 6.31563C1.63693 6.4635 1.5079 6.83764 1.5 7.03807C1.5 7.2287 1.54213 7.4122 1.62815 7.58591C1.7484 7.80327 1.93712 7.97786 2.16006 8.07318C2.31455 8.13465 2.77712 8.22996 2.7859 8.22996C3.29235 8.32617 4.11568 8.37783 5.02502 8.37783C5.89136 8.37783 6.68045 8.32617 7.19481 8.24778C7.20359 8.23887 7.77763 8.14355 7.97512 8.03844C8.335 7.84692 8.55882 7.47278 8.55882 7.07281V7.03807C8.55005 6.77706 8.32622 6.22833 8.31832 6.22833C7.94089 5.30545 6.76559 3.48643 5.98528 2.75509Z" fill="#003E79"/>
<path opacity="0.4" d="M12.9709 8.33221C13.358 8.33221 13.6714 8.01419 13.6714 7.62134L13.8636 4.18722C13.8636 3.68657 13.4642 3.28125 12.9709 3.28125C12.4776 3.28125 12.0774 3.68657 12.0774 4.18722L12.2705 7.62134C12.2705 8.01419 12.5839 8.33221 12.9709 8.33221Z" fill="#003E79"/>
<path d="M16.3718 10.413C16.2516 10.1957 16.0629 10.022 15.8399 9.92575C15.6854 9.86429 15.222 9.76897 15.2141 9.76897C14.7076 9.67276 13.8843 9.62109 12.975 9.62109C12.1086 9.62109 11.3195 9.67276 10.8052 9.75115C10.7964 9.76006 10.2224 9.85627 10.0249 9.9605C9.66411 10.152 9.44116 10.5262 9.44116 10.927V10.9618C9.44994 11.2228 9.67289 11.7706 9.68166 11.7706C10.0591 12.6935 11.2335 14.5135 12.0147 15.244C12.0147 15.244 12.2157 15.4506 12.3404 15.5397C12.5203 15.6796 12.7432 15.7491 12.9671 15.7491C13.2155 15.7491 13.4463 15.6707 13.6359 15.5228C13.6701 15.488 13.8158 15.3571 13.9361 15.2359C14.6901 14.5215 15.9259 12.6588 16.3025 11.6842C16.3631 11.5364 16.4921 11.1613 16.5 10.9618C16.5 10.7703 16.4579 10.5867 16.3718 10.413Z" fill="#003E79"/>
</svg>
