<svg width="26" height="26" viewBox="0 0 26 26" fill="none" xmlns="http://www.w3.org/2000/svg">
<circle cx="13" cy="13" r="13" fill="url(#paint0_linear_1999_22513)"/>
<g clip-path="url(#clip0_1999_22513)">
<path d="M8.05 5.80078C8.64674 5.80078 9.21903 6.03783 9.64099 6.45979C10.0629 6.88175 10.3 7.45404 10.3 8.05078C10.3 8.64752 10.0629 9.21981 9.64099 9.64177C9.21903 10.0637 8.64674 10.3008 8.05 10.3008C7.45326 10.3008 6.88097 10.0637 6.45901 9.64177C6.03705 9.21981 5.8 8.64752 5.8 8.05078C5.8 7.45404 6.03705 6.88175 6.45901 6.45979C6.88097 6.03783 7.45326 5.80078 8.05 5.80078ZM18.4 5.80078C18.9967 5.80078 19.569 6.03783 19.991 6.45979C20.4129 6.88175 20.65 7.45404 20.65 8.05078C20.65 8.64752 20.4129 9.21981 19.991 9.64177C19.569 10.0637 18.9967 10.3008 18.4 10.3008C17.8033 10.3008 17.231 10.0637 16.809 9.64177C16.3871 9.21981 16.15 8.64752 16.15 8.05078C16.15 7.45404 16.3871 6.88175 16.809 6.45979C17.231 6.03783 17.8033 5.80078 18.4 5.80078ZM4 14.2017C4 12.5452 5.34437 11.2008 7.00094 11.2008H8.20187C8.64906 11.2008 9.07375 11.2992 9.45625 11.4736C9.41969 11.6761 9.40281 11.887 9.40281 12.1008C9.40281 13.1752 9.87531 14.1398 10.6206 14.8008H4.59906C4.27 14.8008 4 14.5308 4 14.2017ZM15.3991 14.8008H15.3794C16.1275 14.1398 16.5972 13.1752 16.5972 12.1008C16.5972 11.887 16.5775 11.6789 16.5437 11.4736C16.9262 11.2964 17.3509 11.2008 17.7981 11.2008H18.9991C20.6556 11.2008 22 12.5452 22 14.2017C22 14.5336 21.73 14.8008 21.4009 14.8008H15.3991ZM10.3 12.1008C10.3 11.3847 10.5845 10.6979 11.0908 10.1916C11.5972 9.68524 12.2839 9.40078 13 9.40078C13.7161 9.40078 14.4028 9.68524 14.9092 10.1916C15.4155 10.6979 15.7 11.3847 15.7 12.1008C15.7 12.8169 15.4155 13.5036 14.9092 14.01C14.4028 14.5163 13.7161 14.8008 13 14.8008C12.2839 14.8008 11.5972 14.5163 11.0908 14.01C10.5845 13.5036 10.3 12.8169 10.3 12.1008ZM7.6 19.4498C7.6 17.3798 9.27906 15.7008 11.3491 15.7008H14.6509C16.7209 15.7008 18.4 17.3798 18.4 19.4498C18.4 19.8633 18.0653 20.2008 17.6491 20.2008H8.35094C7.9375 20.2008 7.6 19.8661 7.6 19.4498Z" fill="#0E093C"/>
</g>
<defs>
<linearGradient id="paint0_linear_1999_22513" x1="13" y1="-1.01505e-06" x2="32.8599" y2="6.06417" gradientUnits="userSpaceOnUse">
<stop stop-color="#F6F6F6"/>
<stop offset="1" stop-color="#F2EFEF"/>
</linearGradient>
<clipPath id="clip0_1999_22513">
<rect width="18" height="14.4" fill="white" transform="translate(4 5.80078)"/>
</clipPath>
</defs>
</svg>
