<svg width="15" height="15" viewBox="0 0 15 15" fill="none" xmlns="http://www.w3.org/2000/svg">
<path d="M13.4362 9.60042C13.4362 11.2279 12.1295 12.5463 10.502 12.5521H10.4962H4.71536C3.0937 12.5521 1.76953 11.2396 1.76953 9.61208V9.60625C1.76953 9.60625 1.77303 7.02442 1.7777 5.72592C1.77828 5.48208 2.05828 5.34558 2.24903 5.49725C3.63503 6.59683 6.11362 8.60175 6.14453 8.628C6.5587 8.95992 7.0837 9.14717 7.62036 9.14717C8.15703 9.14717 8.68203 8.95992 9.0962 8.62158C9.12712 8.60117 11.5503 6.65633 12.9573 5.53867C13.1486 5.38642 13.4298 5.52292 13.4304 5.76617C13.4362 7.05475 13.4362 9.60042 13.4362 9.60042Z" fill="#0E093C"/>
<path d="M13.1301 3.61061C12.6249 2.65861 11.6309 2.05078 10.5366 2.05078H4.71489C3.62056 2.05078 2.62656 2.65861 2.12139 3.61061C2.00822 3.82353 2.06189 4.08895 2.25031 4.23945L6.58156 7.70387C6.88489 7.94886 7.25239 8.07078 7.61989 8.07078C7.62222 8.07078 7.62397 8.07078 7.62572 8.07078C7.62747 8.07078 7.62981 8.07078 7.63156 8.07078C7.99906 8.07078 8.36656 7.94886 8.66989 7.70387L13.0011 4.23945C13.1896 4.08895 13.2432 3.82353 13.1301 3.61061Z" fill="#0E093C"/>
</svg>
