<svg width="15" height="15" viewBox="0 0 15 15" fill="none" xmlns="http://www.w3.org/2000/svg">
<path d="M7.66146 1.66602C6.13313 1.66602 4.89062 2.90852 4.89062 4.43685C4.89062 5.93602 6.06313 7.14935 7.59146 7.20185C7.63812 7.19602 7.68479 7.19602 7.71979 7.20185C7.73146 7.20185 7.73729 7.20185 7.74896 7.20185C7.75479 7.20185 7.75479 7.20185 7.76062 7.20185C9.25396 7.14935 10.4265 5.93602 10.4323 4.43685C10.4323 2.90852 9.18979 1.66602 7.66146 1.66602Z" fill="#0E093C"/>
<path d="M10.6247 8.7532C8.99719 7.6682 6.34302 7.6682 4.70385 8.7532C3.96302 9.24904 3.55469 9.91987 3.55469 10.6374C3.55469 11.3549 3.96302 12.0199 4.69802 12.5099C5.51469 13.0582 6.58802 13.3324 7.66135 13.3324C8.73469 13.3324 9.80802 13.0582 10.6247 12.5099C11.3597 12.014 11.768 11.349 11.768 10.6257C11.7622 9.9082 11.3597 9.2432 10.6247 8.7532Z" fill="#0E093C"/>
</svg>
