<svg width="73" height="73" viewBox="0 0 73 73" fill="none" xmlns="http://www.w3.org/2000/svg">
<rect x="0.5" y="0.5" width="72" height="72" rx="8" fill="url(#paint0_linear_3317_37191)"/>
<path d="M36.418 40.2324C30.668 40.2324 25.8164 41.172 25.8164 44.7982C25.8164 48.426 30.6993 49.3325 36.418 49.3325C42.168 49.3325 47.0195 48.393 47.0195 44.7667C47.0195 41.139 42.1366 40.2324 36.418 40.2324Z" fill="#0E093C"/>
<path opacity="0.4" d="M36.4178 36.7777C40.3113 36.7777 43.4333 33.6378 43.4333 29.7219C43.4333 25.8045 40.3113 22.666 36.4178 22.666C32.5243 22.666 29.4023 25.8045 29.4023 29.7219C29.4023 33.6378 32.5243 36.7777 36.4178 36.7777Z" fill="#0E093C"/>
<path opacity="0.4" d="M51.6476 31.3649C52.6549 27.4024 49.7016 23.8438 45.9409 23.8438C45.532 23.8438 45.141 23.8888 44.759 23.9653C44.7082 23.9773 44.6515 24.0028 44.6217 24.0479C44.5873 24.1049 44.6127 24.1815 44.65 24.231C45.7797 25.825 46.4289 27.7657 46.4289 29.849C46.4289 31.8452 45.8334 33.7063 44.7888 35.2508C44.6814 35.4099 44.7769 35.6245 44.9664 35.6575C45.229 35.7041 45.4977 35.7281 45.7723 35.7356C48.5107 35.8076 50.9686 34.035 51.6476 31.3649Z" fill="#0E093C"/>
<path d="M54.5157 40.6928C54.0143 39.6181 52.804 38.8812 50.9639 38.5195C50.0954 38.3063 47.7449 38.0062 45.5587 38.0467C45.5258 38.0512 45.5079 38.0737 45.5049 38.0887C45.5005 38.1097 45.5094 38.1457 45.5527 38.1683C46.563 38.6711 50.4685 40.8579 49.9775 45.4703C49.9566 45.6699 50.1163 45.8425 50.3147 45.8125C51.2758 45.6744 53.7486 45.1401 54.5157 43.4755C54.9395 42.596 54.9395 41.5739 54.5157 40.6928Z" fill="#0E093C"/>
<path opacity="0.4" d="M28.2431 23.9653C27.8625 23.8873 27.4701 23.8438 27.0612 23.8438C23.3005 23.8438 20.3471 27.4024 21.356 31.3649C22.0335 34.035 24.4914 35.8076 27.2298 35.7356C27.5044 35.7281 27.7745 35.7026 28.0357 35.6575C28.2252 35.6245 28.3207 35.4099 28.2132 35.2508C27.1686 33.7048 26.5732 31.8452 26.5732 29.849C26.5732 27.7642 27.2238 25.8235 28.3535 24.231C28.3893 24.1815 28.4162 24.1049 28.3804 24.0479C28.3505 24.0013 28.2953 23.9773 28.2431 23.9653Z" fill="#0E093C"/>
<path d="M22.0372 38.5202C20.1972 38.8819 18.9884 39.6189 18.487 40.6935C18.0616 41.5746 18.0616 42.5967 18.487 43.4778C19.254 45.1408 21.7268 45.6766 22.6879 45.8132C22.8864 45.8432 23.0446 45.6721 23.0237 45.471C22.5327 40.8601 26.4381 38.6733 27.4499 38.1705C27.4917 38.1465 27.5007 38.1119 27.4962 38.0894C27.4932 38.0744 27.4768 38.0519 27.444 38.0489C25.2562 38.0069 22.9073 38.3071 22.0372 38.5202Z" fill="#0E093C"/>
<defs>
<linearGradient id="paint0_linear_3317_37191" x1="36.5" y1="0.499997" x2="91.4966" y2="17.2931" gradientUnits="userSpaceOnUse">
<stop stop-color="#F6F6F6"/>
<stop offset="1" stop-color="#F2EFEF"/>
</linearGradient>
</defs>
</svg>
