<svg width="29" height="28" viewBox="0 0 29 28" fill="none" xmlns="http://www.w3.org/2000/svg">
<circle cx="14.7" cy="14.2" r="11.2" fill="url(#paint0_linear_2824_9181)"/>
<circle cx="14.5" cy="15" r="6" fill="#0E093C"/>
<circle cx="14.5" cy="11" r="3" fill="#0E093C"/>
<path fill-rule="evenodd" clip-rule="evenodd" d="M22.5 14C22.5 16.1217 21.6571 18.1566 20.1569 19.6569C18.6566 21.1571 16.6217 22 14.5 22C12.3783 22 10.3434 21.1571 8.84315 19.6569C7.34285 18.1566 6.5 16.1217 6.5 14C6.5 11.8783 7.34285 9.84344 8.84315 8.34315C10.3434 6.84285 12.3783 6 14.5 6C16.6217 6 18.6566 6.84285 20.1569 8.34315C21.6571 9.84344 22.5 11.8783 22.5 14ZM16.5 11C16.5 11.5304 16.2893 12.0391 15.9142 12.4142C15.5391 12.7893 15.0304 13 14.5 13C13.9696 13 13.4609 12.7893 13.0858 12.4142C12.7107 12.0391 12.5 11.5304 12.5 11C12.5 10.4696 12.7107 9.96086 13.0858 9.58579C13.4609 9.21071 13.9696 9 14.5 9C15.0304 9 15.5391 9.21071 15.9142 9.58579C16.2893 9.96086 16.5 10.4696 16.5 11ZM14.5 15C13.5426 14.9998 12.6053 15.2745 11.7994 15.7914C10.9936 16.3083 10.353 17.0457 9.954 17.916C10.5167 18.5706 11.2143 19.0958 11.9989 19.4555C12.7836 19.8152 13.6368 20.0009 14.5 20C15.3632 20.0009 16.2164 19.8152 17.0011 19.4555C17.7857 19.0958 18.4833 18.5706 19.046 17.916C18.647 17.0457 18.0064 16.3083 17.2006 15.7914C16.3947 15.2745 15.4574 14.9998 14.5 15Z" fill="url(#paint1_linear_2824_9181)"/>
<defs>
<linearGradient id="paint0_linear_2824_9181" x1="14.7" y1="3" x2="31.8101" y2="8.22451" gradientUnits="userSpaceOnUse">
<stop stop-color="#F6F6F6"/>
<stop offset="1" stop-color="#F2EFEF"/>
</linearGradient>
<linearGradient id="paint1_linear_2824_9181" x1="14.5" y1="6" x2="26.7215" y2="9.73179" gradientUnits="userSpaceOnUse">
<stop stop-color="#F6F6F6"/>
<stop offset="1" stop-color="#F2EFEF"/>
</linearGradient>
</defs>
</svg>
