<svg width="26" height="26" viewBox="0 0 26 26" fill="none" xmlns="http://www.w3.org/2000/svg">
<circle cx="13" cy="13" r="13" fill="url(#paint0_linear_1999_22555)"/>
<path d="M9.25 19.75V18.25H12.25V15.925C11.6375 15.7875 11.0907 15.5282 10.6097 15.1473C10.1287 14.7662 9.7755 14.288 9.55 13.7125C8.6125 13.6 7.82825 13.1907 7.19725 12.4847C6.56625 11.7787 6.2505 10.9505 6.25 10V9.25C6.25 8.8375 6.397 8.4845 6.691 8.191C6.985 7.8975 7.338 7.7505 7.75 7.75H9.25V6.25H16.75V7.75H18.25C18.6625 7.75 19.0157 7.897 19.3097 8.191C19.6038 8.485 19.7505 8.838 19.75 9.25V10C19.75 10.95 19.4342 11.7782 18.8027 12.4847C18.1712 13.1912 17.387 13.6005 16.45 13.7125C16.225 14.2875 15.872 14.7657 15.391 15.1473C14.91 15.5288 14.363 15.788 13.75 15.925V18.25H16.75V19.75H9.25ZM9.25 12.1V9.25H7.75V10C7.75 10.475 7.8875 10.9033 8.1625 11.2847C8.4375 11.6663 8.8 11.938 9.25 12.1ZM16.75 12.1C17.2 11.9375 17.5625 11.6655 17.8375 11.284C18.1125 10.9025 18.25 10.4745 18.25 10V9.25H16.75V12.1Z" fill="#0E093C"/>
<defs>
<linearGradient id="paint0_linear_1999_22555" x1="13" y1="-1.01505e-06" x2="32.8599" y2="6.06417" gradientUnits="userSpaceOnUse">
<stop stop-color="#F6F6F6"/>
<stop offset="1" stop-color="#F2EFEF"/>
</linearGradient>
</defs>
</svg>
