<svg width="18" height="18" viewBox="0 0 18 18" fill="none" xmlns="http://www.w3.org/2000/svg">
<path opacity="0.4" d="M1.50024 8.30859C1.53774 10.0621 1.64274 13.0613 1.65774 13.3921C1.71099 14.0993 1.98174 14.8141 2.40324 15.3181C2.98974 16.0253 3.71199 16.3411 4.71924 16.3411C6.11124 16.3486 7.64574 16.3486 9.13599 16.3486C10.6322 16.3486 12.0842 16.3486 13.3105 16.3411C14.3035 16.3411 15.0482 16.0171 15.6272 15.3181C16.0487 14.8141 16.3195 14.0918 16.3577 13.3921C16.3727 13.1138 16.4477 9.85809 16.4927 8.30859H1.50024Z" fill="#003E79"/>
<path d="M8.43408 11.5371V12.5076C8.43408 12.8181 8.68608 13.0701 8.99658 13.0701C9.30708 13.0701 9.55908 12.8181 9.55908 12.5076V11.5371C9.55908 11.2266 9.30708 10.9746 8.99658 10.9746C8.68608 10.9746 8.43408 11.2266 8.43408 11.5371Z" fill="#003E79"/>
<path fill-rule="evenodd" clip-rule="evenodd" d="M7.65849 10.917C7.58349 11.1892 7.32174 11.3632 7.03824 11.3258C5.12499 11.0588 3.29649 10.38 1.75299 9.36075C1.59474 9.25725 1.50024 9.08025 1.50024 8.89125V6.29175C1.50024 4.71675 2.78424 3.43575 4.36299 3.43575H5.83824C5.97924 2.34675 6.90174 1.5 8.02824 1.5H9.96474C11.0905 1.5 12.0137 2.34675 12.1547 3.43575H13.6375C15.2117 3.43575 16.4927 4.71675 16.4927 6.29175V8.89125C16.4927 9.08025 16.3975 9.2565 16.2407 9.36075C14.6942 10.3845 12.8582 11.0662 10.9322 11.3325C10.906 11.3362 10.8805 11.3377 10.855 11.3377C10.6007 11.3377 10.3735 11.166 10.3097 10.914C10.1582 10.317 9.61599 9.89925 8.99274 9.89925C8.36124 9.89925 7.82499 10.308 7.65849 10.917ZM9.96474 2.625H8.02824C7.52349 2.625 7.10199 2.97 6.97599 3.43575H11.0162C10.8902 2.97 10.4687 2.625 9.96474 2.625Z" fill="#003E79"/>
</svg>
