<svg width="88" height="88" viewBox="0 0 88 88" fill="none" xmlns="http://www.w3.org/2000/svg">
<g filter="url(#filter0_d_3134_23918)">
<circle cx="44" cy="38" r="28" fill="white"/>
</g>
<path d="M44.0013 24.667C36.6546 24.667 30.668 30.6537 30.668 38.0003C30.668 45.347 36.6546 51.3337 44.0013 51.3337C51.348 51.3337 57.3346 45.347 57.3346 38.0003C57.3346 30.6537 51.348 24.667 44.0013 24.667ZM50.3746 34.9337L42.8146 42.4937C42.628 42.6803 42.3746 42.787 42.108 42.787C41.8413 42.787 41.588 42.6803 41.4013 42.4937L37.628 38.7203C37.2413 38.3337 37.2413 37.6937 37.628 37.307C38.0146 36.9203 38.6546 36.9203 39.0413 37.307L42.108 40.3737L48.9613 33.5203C49.348 33.1337 49.988 33.1337 50.3746 33.5203C50.7613 33.907 50.7613 34.5337 50.3746 34.9337Z" fill="#23A26D"/>
<defs>
<filter id="filter0_d_3134_23918" x="0" y="0" width="88" height="88" filterUnits="userSpaceOnUse" color-interpolation-filters="sRGB">
<feFlood flood-opacity="0" result="BackgroundImageFix"/>
<feColorMatrix in="SourceAlpha" type="matrix" values="0 0 0 0 0 0 0 0 0 0 0 0 0 0 0 0 0 0 127 0" result="hardAlpha"/>
<feOffset dy="6"/>
<feGaussianBlur stdDeviation="8"/>
<feComposite in2="hardAlpha" operator="out"/>
<feColorMatrix type="matrix" values="0 0 0 0 0.48 0 0 0 0 0.48 0 0 0 0 0.48 0 0 0 0.12 0"/>
<feBlend mode="normal" in2="BackgroundImageFix" result="effect1_dropShadow_3134_23918"/>
<feBlend mode="normal" in="SourceGraphic" in2="effect1_dropShadow_3134_23918" result="shape"/>
</filter>
</defs>
</svg>
